<svg width="80" height="80" viewBox="0 0 80 80" fill="none" xmlns="http://www.w3.org/2000/svg">
<rect width="80" height="80" rx="20" fill="white"/>
<path d="M53.5106 19.2878C53.5766 19.3188 53.6486 19.3349 53.7215 19.3349C53.7944 19.3349 53.8664 19.3188 53.9324 19.2878C54.0578 19.2251 54.1148 19.1054 54.1775 18.923C54.2972 18.1364 54.3599 17.0477 53.693 16.3808C52.1141 14.8076 48.4205 16.8026 46.4825 18.1991C46.4548 18.2107 46.4297 18.2277 46.4085 18.249C46.3874 18.2703 46.3706 18.2956 46.3592 18.3234C46.3479 18.3511 46.3421 18.3809 46.3422 18.4109C46.3423 18.441 46.3484 18.4707 46.36 18.4984C46.3716 18.5261 46.3885 18.5512 46.4098 18.5723C46.4311 18.5935 46.4564 18.6102 46.4842 18.6216C46.512 18.633 46.5417 18.6388 46.5718 18.6387C46.6018 18.6385 46.6315 18.6325 46.6592 18.6209C48.958 18.2341 51.3184 18.4642 53.4992 19.2878H53.5106ZM56.1155 20.69C57.6041 21.679 58.8747 22.9619 59.8494 24.4599C60.8241 25.958 61.4822 27.6394 61.7832 29.4011C62.0843 31.1627 62.022 32.9673 61.6002 34.704C61.1784 36.4407 60.4059 38.0728 59.3303 39.5C59.1296 39.7653 59.0015 40.0782 58.9585 40.408C58.9155 40.7379 58.9592 41.0732 59.0852 41.381L59.6552 42.7091C59.6741 42.7927 59.7201 42.8677 59.7861 42.9224C59.8521 42.977 59.9344 43.0083 60.02 43.0112L60.9263 43.1366C61.1058 43.1633 61.2743 43.2392 61.4132 43.3559C61.552 43.4726 61.6558 43.6256 61.7129 43.7978C62.0777 44.5274 62.3798 45.3767 62.6876 46.1633C62.7479 46.3262 62.7628 46.5024 62.7307 46.6731C62.6986 46.8438 62.6206 47.0025 62.5052 47.1323C62.3228 47.3717 62.0777 47.7023 61.8953 47.9189C61.8504 47.9902 61.8304 48.0744 61.8383 48.1583L61.8953 48.2837C61.922 48.363 61.9703 48.4332 62.0348 48.4866C62.0992 48.54 62.1772 48.5743 62.2601 48.5858L63.1721 48.7055C63.3518 48.7339 63.5202 48.8111 63.6589 48.9287C63.7976 49.0463 63.9013 49.1998 63.9587 49.3724C64.3235 50.0963 64.6256 50.9456 64.9277 51.7322C64.9893 51.8949 65.0049 52.0714 64.9727 52.2423C64.9405 52.4133 64.8618 52.5721 64.7453 52.7012C64.5712 52.9366 64.3807 53.1595 64.1753 53.3681C64.0927 53.5463 64.0726 53.7471 64.1183 53.9381L64.9676 55.8761C65.1604 56.425 65.2018 57.0157 65.0873 57.5861L64.0556 62.7959C63.9632 63.2837 63.7477 63.7398 63.4294 64.1209C63.1112 64.502 62.7008 64.7954 62.2373 64.9733C61.789 65.155 61.3005 65.2143 60.8218 65.1452C60.3431 65.0761 59.8913 64.881 59.5127 64.58L55.1465 61.5533C54.661 61.2523 54.2807 60.8082 54.0578 60.2822L48.2381 45.8099C48.1102 45.4981 47.903 45.2252 47.637 45.0182C47.3711 44.8112 47.0556 44.6774 46.7219 44.63C45.5417 44.4371 44.3919 44.0902 43.3019 43.5983C43.2565 43.5674 43.2029 43.5509 43.148 43.5509C43.0931 43.5509 43.0395 43.5674 42.9941 43.5983C41.0009 44.0113 38.9406 43.9743 36.9635 43.49C36.6349 43.4004 36.2886 43.398 35.9588 43.483C35.629 43.5679 35.327 43.7373 35.0825 43.9745L34.1135 45.0062C34.0539 45.0567 34.0107 45.1238 33.9894 45.1989C33.9681 45.274 33.9696 45.3538 33.9938 45.428L34.2389 46.34C34.2661 46.5143 34.2524 46.6926 34.199 46.8607C34.1456 47.0289 34.0539 47.1823 33.9311 47.309L32.09 49.1387C31.9598 49.254 31.8039 49.3364 31.6353 49.379C31.4667 49.4217 31.2904 49.4233 31.121 49.3838C30.8189 49.2641 30.4541 49.2014 30.152 49.0817C30.0681 49.0733 29.9838 49.0934 29.9126 49.1387L29.8499 49.2641C29.7862 49.3253 29.7412 49.4033 29.72 49.4891C29.6988 49.5748 29.7023 49.6648 29.7302 49.7486L29.9126 50.5922C29.967 50.7604 29.9728 50.9406 29.9294 51.112C29.8861 51.2834 29.7953 51.4391 29.6675 51.5612L27.872 53.3795C27.7498 53.5073 27.5941 53.5981 27.4228 53.6414C27.2514 53.6848 27.0712 53.679 26.903 53.6246C26.629 53.5142 26.3444 53.432 26.0537 53.3795C25.9699 53.3516 25.8799 53.3481 25.7941 53.3693C25.7084 53.3905 25.6304 53.4355 25.5692 53.4992L24.053 55.0154C23.6568 55.4154 23.1511 55.6891 22.5995 55.802L17.3897 56.8907C16.915 57.0017 16.4196 56.9876 15.952 56.8497C15.4844 56.7119 15.0606 56.4549 14.7221 56.1041C14.3669 55.7698 14.1066 55.3474 13.9674 54.8799C13.8283 54.4124 13.8153 53.9164 13.9298 53.4422L14.99 48.2324C15.1173 47.6677 15.3883 47.1455 15.7766 46.7162L26.8403 35.6981C27.081 35.4682 27.2494 35.173 27.3248 34.8488C27.4503 34.538 27.4503 34.1906 27.3248 33.8798C26.7948 31.6787 26.8337 29.3789 27.438 27.197C28.0423 25.0151 29.1921 23.023 30.779 21.4082C33.0864 19.0911 36.1816 17.7277 39.4487 17.5892C39.5776 17.5749 39.7081 17.5877 39.8318 17.6268C39.9554 17.666 40.0695 17.7306 40.1667 17.8165C40.2639 17.9024 40.342 18.0077 40.3961 18.1257C40.4501 18.2436 40.4788 18.3715 40.4804 18.5012C40.4939 18.6297 40.4804 18.7596 40.4409 18.8825C40.4014 19.0055 40.3366 19.1189 40.2508 19.2155C40.165 19.312 40.06 19.3896 39.9425 19.4433C39.825 19.497 39.6976 19.5255 39.5684 19.5272C37.9165 19.6028 36.3022 20.0449 34.8423 20.8215C33.3824 21.598 32.1135 22.6896 31.1276 24.0171C30.1416 25.3446 29.4633 26.8748 29.1418 28.4968C28.8202 30.1188 28.8635 31.7921 29.2685 33.3953C29.3988 34.0584 29.3773 34.7424 29.2058 35.396C29.0304 36.0379 28.6973 36.6257 28.2368 37.106L17.1446 48.1127C17.0406 48.2619 16.9581 48.425 16.8995 48.5972L15.8108 53.864C15.782 54.0179 15.792 54.1765 15.84 54.3256C15.888 54.4746 15.9724 54.6093 16.0857 54.7174C16.1989 54.8255 16.3373 54.9037 16.4884 54.9448C16.6395 54.9859 16.7984 54.9886 16.9508 54.9527L22.1663 53.9267C22.2634 53.9122 22.3565 53.8778 22.4399 53.8259C22.5232 53.7739 22.595 53.7054 22.6508 53.6246L24.7085 51.5612C24.8393 51.4254 25.0033 51.3261 25.1842 51.2731C25.3652 51.2201 25.5568 51.2153 25.7402 51.2591L26.5895 51.5042C26.6738 51.5314 26.7642 51.534 26.85 51.5118C26.9357 51.4896 27.0134 51.4435 27.074 51.3788L27.6782 50.7746C27.7419 50.7134 27.7869 50.6354 27.8081 50.5497C27.8293 50.4639 27.8258 50.3739 27.7979 50.2901L27.5585 49.3838C27.5188 49.2196 27.5261 49.0476 27.5795 48.8873C27.6329 48.727 27.7303 48.585 27.8606 48.4775L29.0006 47.3375C29.1087 47.1903 29.2611 47.0815 29.4354 47.0271C29.6098 46.9728 29.797 46.9757 29.9696 47.0354L30.8816 47.2748C30.9563 47.2837 31.0321 47.2777 31.1045 47.2571C31.1769 47.2366 31.2445 47.2019 31.3034 47.1551L31.9133 46.5509C31.9805 46.4885 32.0316 46.4109 32.0623 46.3246C32.0931 46.2383 32.1026 46.1458 32.09 46.055L31.8734 45.2C31.8041 45.0342 31.79 44.8505 31.8331 44.676C31.8762 44.5015 31.9743 44.3455 32.1128 44.231L33.6917 42.5951C34.1819 42.1233 34.7825 41.7816 35.4386 41.6014C36.0947 41.4212 36.7855 41.4081 37.448 41.5634C39.322 42.0292 41.2837 42.0095 43.148 41.5064C45.3855 40.8755 47.3718 39.5654 48.8327 37.757C50.2935 35.9487 51.1568 33.7313 51.3032 31.4112C51.4496 29.0911 50.8719 26.7828 49.65 24.8051C48.4281 22.8274 46.6222 21.278 44.4818 20.3708C44.3848 20.3377 44.2807 20.3313 44.1804 20.3524C44.08 20.3734 43.9873 20.4212 43.9118 20.4905C42.7513 21.7507 41.7902 23.1808 41.0618 24.7313C41.0344 24.7987 41.0223 24.8714 41.0264 24.9441C41.0305 25.0167 41.0508 25.0876 41.0857 25.1514C41.1207 25.2153 41.1694 25.2706 41.2283 25.3133C41.2873 25.3559 41.355 25.385 41.4266 25.3982C42.4258 25.5858 43.3442 26.0728 44.06 26.7947C44.9648 27.7157 45.4717 28.955 45.4717 30.2461C45.4717 31.5371 44.9648 32.7765 44.06 33.6974C43.6099 34.1572 43.0725 34.5226 42.4794 34.772C41.8862 35.0214 41.2493 35.1499 40.6058 35.1499C39.9624 35.1499 39.3254 35.0214 38.7322 34.772C38.1391 34.5226 37.6017 34.1572 37.1516 33.6974C36.5807 33.1397 36.155 32.4508 35.9115 31.6907C35.6681 30.9306 35.6144 30.1225 35.7551 29.3369C35.8201 29.0958 35.9736 28.888 36.185 28.7551C36.3965 28.6222 36.6503 28.574 36.8957 28.6201C37.1412 28.6661 37.3602 28.8031 37.5091 29.0036C37.658 29.2041 37.7257 29.4534 37.6988 29.7017C37.6041 30.1723 37.6325 30.6593 37.7813 31.1157C37.9301 31.5721 38.1942 31.9823 38.5481 32.3066C39.0722 32.8321 39.7774 33.1373 40.5193 33.1596C41.2612 33.1818 41.9835 32.9195 42.5381 32.4263C42.6155 32.3648 42.6718 32.2807 42.6989 32.1856C42.7261 32.0905 42.7227 31.9893 42.6894 31.8962C42.6561 31.8032 42.5944 31.7229 42.5131 31.6666C42.4318 31.6104 42.3349 31.581 42.236 31.5827C41.2572 31.5355 40.3299 31.1297 39.6311 30.4427C38.6621 29.4737 38.36 28.0202 38.5994 26.3843C39.0269 23.4773 41.1473 20.5076 43.1594 18.5126C44.9164 16.6354 47.0921 15.1999 49.5092 14.3231C51.7892 13.5365 53.8127 13.7189 55.0838 14.99C56.3549 16.2611 56.4176 18.3815 55.9331 20.12C55.9022 20.218 55.9032 20.3232 55.936 20.4205C55.9688 20.5178 56.0316 20.6022 56.1155 20.6615V20.69ZM41.0276 29.0348C41.2839 29.3047 41.6269 29.4762 41.9966 29.5193C43.3874 29.8214 43.6325 29.1602 42.6635 28.1912C42.2987 27.8264 41.0846 27.0512 40.6628 27.4616C40.241 27.872 40.7198 28.7327 41.0276 29.0348ZM21.3284 50.8373C21.1432 51.0225 20.892 51.1265 20.6302 51.1265C20.3683 51.1265 20.1171 51.0225 19.9319 50.8373C19.7467 50.6521 19.6427 50.401 19.6427 50.1391C19.6427 49.8772 19.7467 49.626 19.9319 49.4408L28.3565 41.0846C28.5417 40.8994 28.7929 40.7954 29.0548 40.7954C29.3166 40.7954 29.5678 40.8994 29.753 41.0846C29.9382 41.2698 30.0422 41.521 30.0422 41.7829C30.0422 42.0448 29.9382 42.2959 29.753 42.4811L21.3284 50.8373ZM47.3261 42.7205C47.9409 42.8593 48.5118 43.1479 48.9881 43.5606C49.4645 43.9733 49.8314 44.4973 50.0564 45.086L55.8761 59.5583C55.9622 59.7244 56.085 59.8686 56.2352 59.9801L60.59 63.0068C60.7236 63.0957 60.8769 63.1509 61.0365 63.1676C61.1962 63.1842 61.3575 63.1619 61.5066 63.1025C61.6557 63.043 61.7882 62.9483 61.8926 62.8264C61.9971 62.7045 62.0704 62.5591 62.1062 62.4026L63.1493 57.17C63.1776 57.0756 63.1866 56.9766 63.1758 56.8786C63.165 56.7807 63.1347 56.686 63.0866 56.6L61.9979 53.864C61.9378 53.7049 61.9173 53.5335 61.9381 53.3647C61.959 53.1959 62.0206 53.0347 62.1176 52.895L62.6876 52.1711C62.8073 51.9887 62.87 51.8063 62.8073 51.6866L62.4197 50.9C62.4 50.8169 62.3537 50.7424 62.2879 50.6879C62.2221 50.6334 62.1403 50.6018 62.0549 50.5979L61.16 50.4098C60.9814 50.4068 60.8085 50.3465 60.6669 50.2377C60.5252 50.1289 60.4223 49.9774 60.3734 49.8056L59.7635 48.2951C59.6927 48.1274 59.6666 47.9443 59.6875 47.7635C59.7085 47.5827 59.7759 47.4104 59.8832 47.2634L60.4532 46.5965C60.5041 46.5278 60.5366 46.4472 60.5475 46.3624C60.5585 46.2776 60.5476 46.1914 60.5159 46.112L60.2138 45.2627C60.1354 45.119 60.0048 45.0108 59.849 44.9606L58.88 44.8409C58.7014 44.838 58.5285 44.7776 58.3869 44.6688C58.2452 44.56 58.1423 44.4085 58.0934 44.2367L57.2441 42.1163C56.9774 41.5043 56.8826 40.8311 56.97 40.1692C57.0573 39.5074 57.3236 38.8818 57.74 38.36C58.9553 36.759 59.7169 34.8602 59.9447 32.8631C60.1725 30.866 59.8582 28.8445 59.0347 27.0109C58.2112 25.1773 56.909 23.5994 55.2649 22.443C53.6208 21.2866 51.6956 20.5944 49.6916 20.4392C49.5941 20.4411 49.4992 20.4711 49.4182 20.5255C49.3373 20.58 49.2738 20.6566 49.2353 20.7462C49.1968 20.8358 49.1849 20.9347 49.2012 21.0308C49.2174 21.127 49.261 21.2165 49.3268 21.2885L49.6916 21.6476C52.0118 24.1008 53.2926 27.3569 53.2655 30.7334C53.2603 32.9393 52.7032 35.1088 51.6449 37.0442C50.5866 38.9797 49.0607 40.6195 47.2064 41.8142C47.1169 41.8596 47.0437 41.9316 46.9969 42.0204C46.9501 42.1092 46.9321 42.2103 46.9452 42.3098C46.9583 42.4092 47.002 42.5022 47.0703 42.5758C47.1385 42.6493 47.2279 42.6999 47.3261 42.7205ZM60.0542 56.771C60.5387 57.9794 58.6634 58.709 58.1789 57.4949L53.693 46.34C53.2085 45.2 55.0838 44.402 55.574 45.6104L60.0542 56.771Z" fill="#7B51F7"/>
</svg>
