<svg width="640" height="373" viewBox="0 0 640 373" fill="none" xmlns="http://www.w3.org/2000/svg">
<rect width="640" height="373" rx="30" fill="#F4F8FF"/>
<rect x="20.5" y="273.5" width="599" height="79" rx="19.5" fill="white" stroke="#E4EAF4"/>
<rect x="20" y="20" width="600" height="50" rx="25" fill="#E4EAF4"/>
<rect x="101" y="301" width="99" height="8" rx="4" fill="#E4EAF4"/>
<rect x="101" y="318" width="65" height="8" rx="4" fill="#E4EAF4"/>
<rect x="302" y="301" width="99" height="8" rx="4" fill="#E4EAF4"/>
<rect x="302" y="318" width="65" height="8" rx="4" fill="#E4EAF4"/>
<rect x="487" y="301" width="99" height="8" rx="4" fill="#E4EAF4"/>
<rect x="487" y="318" width="65" height="8" rx="4" fill="#E4EAF4"/>
<path d="M220 353L220 273" stroke="#E4EAF4"/>
<path d="M420 353L420 273" stroke="#E4EAF4"/>
<rect x="256" y="110" width="128" height="128" rx="64" fill="#E4EAF4"/>
<path d="M59.4531 308.453V293H84.3125V319.203H76.9219V333.312H70.875" stroke="#7A55F6" stroke-width="2" stroke-linecap="round" stroke-linejoin="round"/>
<path d="M68.8594 329.281L64.8281 333.312H44V300.391H59.4531M59.4531 314.5V323.234M59.4531 329.281V333.312M59.4531 319.203H44" stroke="#7A55F6" stroke-width="2" stroke-linecap="round" stroke-linejoin="round"/>
<path d="M244 329.542H252.827V321.156H260.329V312.771H269.156V305.268H277.1V296H285.486" stroke="#7A55F6" stroke-width="2" stroke-linecap="round" stroke-linejoin="round"/>
<path d="M248.855 307.034L259.448 296.441M259.448 296.441V304.385M259.448 296.441H251.062" stroke="#7A55F6" stroke-width="2" stroke-linecap="round" stroke-linejoin="round"/>
<path d="M456.469 311.386C459.731 311.386 462.375 308.741 462.375 305.479C462.375 302.218 459.731 299.573 456.469 299.573C453.207 299.573 450.562 302.218 450.562 305.479C450.562 308.741 453.207 311.386 456.469 311.386Z" stroke="#7A55F6" stroke-width="2" stroke-linecap="round" stroke-linejoin="round"/>
<path d="M462.375 324.98C466.282 325.645 468.938 326.949 468.938 328.448C468.938 330.623 463.355 332.386 456.469 332.386C449.583 332.386 444 330.623 444 328.448C444 326.949 446.655 325.645 450.562 324.98" stroke="#7A55F6" stroke-width="2" stroke-linecap="round" stroke-linejoin="round"/>
<path d="M446.277 312.652H446.271L456.469 327.136L466.667 312.652H466.66C467.79 311.05 468.526 309.203 468.808 307.263C469.09 305.323 468.911 303.344 468.284 301.486C467.658 299.628 466.602 297.944 465.203 296.57C463.804 295.197 462.101 294.173 460.232 293.581C458.362 292.99 456.38 292.847 454.445 293.165C452.511 293.483 450.679 294.253 449.097 295.412C447.516 296.571 446.23 298.087 445.345 299.836C444.459 301.585 443.998 303.519 444 305.479C443.995 308.049 444.791 310.556 446.277 312.652Z" stroke="#7A55F6" stroke-width="2" stroke-linecap="round" stroke-linejoin="round"/>
<path d="M308.395 131.76H330.193V135.483H308.395V131.76ZM300.471 136.742H338.244V140.533H300.471V136.742ZM347.694 213.68H326.179V202.822H311.486V213.68H291.84V210.701H297.224V141.769H342.288V210.597H347.694V213.68Z" fill="#7B51F7"/>
<path d="M300.065 158.794H305.807V164.468H300.065V158.794ZM300.065 169.808H305.807V175.483H300.065V169.808ZM310.037 179.877H315.764V185.559H310.037V179.877ZM310.097 190.802H315.794V196.484H310.097V190.802ZM310.015 169.845H315.779V175.542H310.015V169.845ZM300.125 179.728H305.725V185.507H300.125V179.728ZM331.143 147.824H336.803V153.588H331.143V147.824ZM300.043 190.899H305.733V196.588H300.043V190.899ZM310.104 147.809H315.787V153.513H310.104V147.809ZM310.104 158.823H315.794V164.528H310.104V158.823ZM300.11 147.734H305.762V153.499H300.11V147.734ZM331.068 158.853H336.847V164.498H331.068V158.853ZM320.985 169.875H326.764V175.505H320.985V169.875ZM331.053 169.83H336.833V175.475H331.053V169.83ZM331.068 179.884H336.788V185.529H331.068V179.884Z" fill="#E4EAF4"/>
<path d="M331.15 190.891H336.84V196.551H331.15V190.891ZM321.126 190.869H326.726V196.648H321.126V190.869ZM321.104 147.846H326.883V153.447H321.104V147.846ZM321.104 179.832H326.823V185.485H321.104V179.832ZM321.104 158.764H326.816V164.454H321.104V158.764Z" fill="#E4EAF4"/>
<path d="M44.96 39.176H46.464V43.176C47.0933 42.3867 47.9573 41.992 49.056 41.992C50.2613 41.992 51.1733 42.3493 51.792 43.064C52.4213 43.7787 52.736 44.824 52.736 46.2V51H51.248V46.36C51.248 44.376 50.4533 43.384 48.864 43.384C48.0853 43.384 47.488 43.6347 47.072 44.136C46.6667 44.6267 46.464 45.3467 46.464 46.296V51H44.96V39.176ZM55.3351 43.576H53.7191V42.216H55.3351V39.176H56.8231V42.216H58.5671V43.576H56.8231V51H55.3351V43.576ZM60.3935 43.576H58.7775V42.216H60.3935V39.176H61.8815V42.216H63.6255V43.576H61.8815V51H60.3935V43.576ZM64.6039 42.216H66.0439V43.56C66.4065 43.048 66.8652 42.664 67.4199 42.408C67.9745 42.1413 68.6039 42.008 69.3079 42.008C69.9585 42.008 70.5612 42.1253 71.1159 42.36C71.6705 42.5947 72.1505 42.9147 72.5559 43.32C72.9612 43.7253 73.2759 44.2107 73.4999 44.776C73.7345 45.3307 73.8519 45.9387 73.8519 46.6C73.8519 47.2507 73.7345 47.8587 73.4999 48.424C73.2652 48.9893 72.9452 49.48 72.5399 49.896C72.1345 50.3013 71.6492 50.6213 71.0839 50.856C70.5292 51.0907 69.9265 51.208 69.2759 51.208C67.9532 51.208 66.8972 50.712 66.1079 49.72V54.04H64.6039V42.216ZM69.1959 49.832C69.6439 49.832 70.0545 49.752 70.4279 49.592C70.8119 49.432 71.1425 49.208 71.4199 48.92C71.7079 48.632 71.9319 48.296 72.0919 47.912C72.2519 47.5173 72.3319 47.0907 72.3319 46.632C72.3319 46.1627 72.2519 45.7307 72.0919 45.336C71.9319 44.9307 71.7079 44.584 71.4199 44.296C71.1425 44.008 70.8065 43.784 70.4119 43.624C70.0279 43.464 69.6012 43.384 69.1319 43.384C68.6945 43.384 68.2839 43.4693 67.8999 43.64C67.5265 43.8 67.1959 44.024 66.9079 44.312C66.6305 44.6 66.4119 44.9413 66.2519 45.336C66.0919 45.7307 66.0119 46.1573 66.0119 46.616C66.0119 47.0747 66.0919 47.5013 66.2519 47.896C66.4119 48.28 66.6359 48.616 66.9239 48.904C67.2119 49.192 67.5479 49.4213 67.9319 49.592C68.3265 49.752 68.7479 49.832 69.1959 49.832ZM76.0247 48.344C76.1421 49.336 76.6434 49.832 77.5287 49.832C77.9021 49.832 78.2114 49.7093 78.4567 49.464C78.7021 49.2187 78.8247 48.9093 78.8247 48.536C78.8247 48.3333 78.7874 48.1627 78.7127 48.024C78.6487 47.8747 78.5474 47.7467 78.4087 47.64C78.2701 47.5227 78.0994 47.416 77.8967 47.32C77.6941 47.224 77.4594 47.128 77.1927 47.032C76.7661 46.872 76.4034 46.712 76.1047 46.552C75.8061 46.3813 75.5607 46.2 75.3687 46.008C75.1874 45.8053 75.0541 45.5867 74.9687 45.352C74.8941 45.1173 74.8567 44.8507 74.8567 44.552C74.8567 44.1787 74.9207 43.8373 75.0487 43.528C75.1874 43.2187 75.3687 42.952 75.5927 42.728C75.8274 42.504 76.1047 42.328 76.4247 42.2C76.7554 42.072 77.1127 42.008 77.4967 42.008C77.8701 42.008 78.2114 42.072 78.5207 42.2C78.8407 42.3173 79.1127 42.4827 79.3367 42.696C79.5714 42.9093 79.7527 43.1707 79.8807 43.48C80.0194 43.7787 80.0941 44.1093 80.1047 44.472H78.6167C78.5314 43.7467 78.1527 43.384 77.4807 43.384C77.1501 43.384 76.8781 43.48 76.6647 43.672C76.4621 43.8533 76.3607 44.0933 76.3607 44.392C76.3607 44.7547 76.5314 45.0533 76.8727 45.288C77.2141 45.512 77.6407 45.7147 78.1527 45.896C79.6034 46.3867 80.3287 47.2187 80.3287 48.392C80.3287 48.7973 80.2594 49.176 80.1207 49.528C79.9821 49.8693 79.7847 50.168 79.5287 50.424C79.2834 50.6693 78.9847 50.8613 78.6327 51C78.2914 51.1387 77.9127 51.208 77.4967 51.208C76.6114 51.208 75.9021 50.952 75.3687 50.44C74.8461 49.928 74.5687 49.2293 74.5367 48.344H76.0247ZM82.0451 48.968H83.5491V51H82.0451V48.968ZM82.0451 42.92H83.5491V44.968H82.0451V42.92ZM90.1303 39.176H91.3783L86.5623 53.048H85.3463L90.1303 39.176ZM97.0793 39.176H98.3273L93.5113 53.048H92.2953L97.0793 39.176ZM98.8442 42.216H100.396L102.78 48.904L104.652 42.92H105.868L107.724 48.904L110.156 42.216H111.692L108.364 51H107.068L105.244 45.208L103.42 51H102.124L98.8442 42.216ZM111.7 42.216H113.252L115.636 48.904L117.508 42.92H118.724L120.58 48.904L123.012 42.216H124.548L121.22 51H119.924L118.1 45.208L116.276 51H114.98L111.7 42.216ZM124.555 42.216H126.107L128.491 48.904L130.363 42.92H131.579L133.435 48.904L135.867 42.216H137.403L134.075 51H132.779L130.955 45.208L129.131 51H127.835L124.555 42.216ZM138.786 48.968H140.29V51H138.786V48.968ZM151.271 48.312C150.343 50.2427 148.903 51.208 146.951 51.208C146.279 51.208 145.655 51.0907 145.079 50.856C144.503 50.6107 143.996 50.28 143.559 49.864C143.132 49.448 142.796 48.9627 142.551 48.408C142.306 47.8427 142.183 47.2347 142.183 46.584C142.183 45.944 142.3 45.3467 142.535 44.792C142.78 44.2373 143.116 43.752 143.543 43.336C143.97 42.92 144.466 42.5947 145.031 42.36C145.607 42.1253 146.22 42.008 146.871 42.008C147.884 42.008 148.78 42.2693 149.559 42.792C150.338 43.3147 150.903 44.04 151.255 44.968H149.575C148.978 43.912 148.071 43.384 146.855 43.384C146.407 43.384 145.991 43.4693 145.607 43.64C145.223 43.8 144.887 44.024 144.599 44.312C144.322 44.6 144.103 44.9413 143.943 45.336C143.783 45.72 143.703 46.1413 143.703 46.6C143.703 47.0587 143.783 47.4853 143.943 47.88C144.114 48.2747 144.343 48.616 144.631 48.904C144.919 49.192 145.255 49.4213 145.639 49.592C146.034 49.752 146.455 49.832 146.903 49.832C147.468 49.832 147.954 49.7147 148.359 49.48C148.775 49.2453 149.18 48.856 149.575 48.312H151.271ZM152.609 42.216H154.113V51H152.609V42.216ZM152.609 39.176H154.113V41.192H152.609V39.176ZM155.487 46.632C155.487 45.9707 155.599 45.3573 155.823 44.792C156.058 44.2267 156.378 43.7413 156.783 43.336C157.199 42.92 157.685 42.5947 158.239 42.36C158.805 42.1253 159.413 42.008 160.063 42.008C160.799 42.008 161.423 42.136 161.935 42.392C162.458 42.648 162.927 43.064 163.343 43.64V42.216H164.783V51H163.343V49.592C162.885 50.168 162.405 50.584 161.903 50.84C161.413 51.0853 160.815 51.208 160.111 51.208C159.45 51.208 158.837 51.096 158.271 50.872C157.706 50.6373 157.215 50.3173 156.799 49.912C156.394 49.5067 156.074 49.0267 155.839 48.472C155.605 47.9067 155.487 47.2933 155.487 46.632ZM157.007 46.616C157.007 47.0747 157.087 47.5013 157.247 47.896C157.418 48.28 157.647 48.616 157.935 48.904C158.223 49.192 158.559 49.4213 158.943 49.592C159.338 49.752 159.759 49.832 160.207 49.832C160.655 49.832 161.066 49.752 161.439 49.592C161.823 49.4213 162.154 49.192 162.431 48.904C162.709 48.616 162.922 48.2747 163.071 47.88C163.231 47.4853 163.311 47.0587 163.311 46.6C163.311 46.1307 163.231 45.704 163.071 45.32C162.911 44.9253 162.687 44.584 162.399 44.296C162.122 44.008 161.786 43.784 161.391 43.624C161.007 43.464 160.586 43.384 160.127 43.384C159.69 43.384 159.279 43.4693 158.895 43.64C158.522 43.8 158.191 44.0293 157.903 44.328C157.626 44.616 157.407 44.9573 157.247 45.352C157.087 45.7467 157.007 46.168 157.007 46.616ZM166.523 42.216H167.963V43.256C168.336 42.8187 168.742 42.504 169.179 42.312C169.616 42.1093 170.118 42.008 170.683 42.008C173.104 42.008 174.315 43.4587 174.315 46.36V51H172.811V46.488C172.811 44.4187 172.022 43.384 170.443 43.384C168.832 43.384 168.027 44.3867 168.027 46.392V51H166.523V42.216ZM176.562 48.968H178.066V51H176.562V48.968ZM180.327 42.216H181.767V43.336C182.013 42.8667 182.311 42.536 182.663 42.344C183.026 42.1413 183.511 42.0293 184.119 42.008V43.464C182.594 43.5813 181.831 44.4133 181.831 45.96V51H180.327V42.216ZM191.44 49.816C191.099 50.3067 190.715 50.664 190.288 50.888C189.872 51.1013 189.344 51.208 188.704 51.208C187.509 51.208 186.608 50.8507 186 50.136C185.403 49.4213 185.104 48.3547 185.104 46.936V42.216H186.608V46.808C186.608 47.8427 186.795 48.6053 187.168 49.096C187.541 49.5867 188.123 49.832 188.912 49.832C190.555 49.832 191.376 48.7547 191.376 46.6V42.216H192.88V51H191.44V49.816ZM198.952 39.176H200.2L195.384 53.048H194.168L198.952 39.176ZM202.381 48.344C202.498 49.336 202.999 49.832 203.885 49.832C204.258 49.832 204.567 49.7093 204.813 49.464C205.058 49.2187 205.181 48.9093 205.181 48.536C205.181 48.3333 205.143 48.1627 205.069 48.024C205.005 47.8747 204.903 47.7467 204.765 47.64C204.626 47.5227 204.455 47.416 204.253 47.32C204.05 47.224 203.815 47.128 203.549 47.032C203.122 46.872 202.759 46.712 202.461 46.552C202.162 46.3813 201.917 46.2 201.725 46.008C201.543 45.8053 201.41 45.5867 201.325 45.352C201.25 45.1173 201.213 44.8507 201.213 44.552C201.213 44.1787 201.277 43.8373 201.405 43.528C201.543 43.2187 201.725 42.952 201.949 42.728C202.183 42.504 202.461 42.328 202.781 42.2C203.111 42.072 203.469 42.008 203.853 42.008C204.226 42.008 204.567 42.072 204.877 42.2C205.197 42.3173 205.469 42.4827 205.693 42.696C205.927 42.9093 206.109 43.1707 206.237 43.48C206.375 43.7787 206.45 44.1093 206.461 44.472H204.973C204.887 43.7467 204.509 43.384 203.837 43.384C203.506 43.384 203.234 43.48 203.021 43.672C202.818 43.8533 202.717 44.0933 202.717 44.392C202.717 44.7547 202.887 45.0533 203.229 45.288C203.57 45.512 203.997 45.7147 204.509 45.896C205.959 46.3867 206.685 47.2187 206.685 48.392C206.685 48.7973 206.615 49.176 206.477 49.528C206.338 49.8693 206.141 50.168 205.885 50.424C205.639 50.6693 205.341 50.8613 204.989 51C204.647 51.1387 204.269 51.208 203.853 51.208C202.967 51.208 202.258 50.952 201.725 50.44C201.202 49.928 200.925 49.2293 200.893 48.344H202.381ZM207.521 46.632C207.521 45.9707 207.633 45.3573 207.857 44.792C208.092 44.2267 208.412 43.7413 208.817 43.336C209.233 42.92 209.718 42.5947 210.273 42.36C210.838 42.1253 211.446 42.008 212.097 42.008C212.833 42.008 213.457 42.136 213.969 42.392C214.492 42.648 214.961 43.064 215.377 43.64V42.216H216.817V51H215.377V49.592C214.918 50.168 214.438 50.584 213.937 50.84C213.446 51.0853 212.849 51.208 212.145 51.208C211.484 51.208 210.87 51.096 210.305 50.872C209.74 50.6373 209.249 50.3173 208.833 49.912C208.428 49.5067 208.108 49.0267 207.873 48.472C207.638 47.9067 207.521 47.2933 207.521 46.632ZM209.041 46.616C209.041 47.0747 209.121 47.5013 209.281 47.896C209.452 48.28 209.681 48.616 209.969 48.904C210.257 49.192 210.593 49.4213 210.977 49.592C211.372 49.752 211.793 49.832 212.241 49.832C212.689 49.832 213.1 49.752 213.473 49.592C213.857 49.4213 214.188 49.192 214.465 48.904C214.742 48.616 214.956 48.2747 215.105 47.88C215.265 47.4853 215.345 47.0587 215.345 46.6C215.345 46.1307 215.265 45.704 215.105 45.32C214.945 44.9253 214.721 44.584 214.433 44.296C214.156 44.008 213.82 43.784 213.425 43.624C213.041 43.464 212.62 43.384 212.161 43.384C211.724 43.384 211.313 43.4693 210.929 43.64C210.556 43.8 210.225 44.0293 209.937 44.328C209.66 44.616 209.441 44.9573 209.281 45.352C209.121 45.7467 209.041 46.168 209.041 46.616ZM218.557 39.176H220.061V51H218.557V39.176ZM230.363 48.2C230.213 48.648 229.995 49.0587 229.707 49.432C229.429 49.7947 229.104 50.1093 228.731 50.376C228.357 50.6427 227.947 50.8507 227.499 51C227.061 51.1387 226.603 51.208 226.123 51.208C225.472 51.208 224.859 51.0907 224.283 50.856C223.717 50.6107 223.221 50.28 222.795 49.864C222.368 49.448 222.032 48.9627 221.787 48.408C221.552 47.8427 221.435 47.2347 221.435 46.584C221.435 45.944 221.552 45.3467 221.787 44.792C222.032 44.2373 222.357 43.752 222.763 43.336C223.179 42.92 223.664 42.5947 224.219 42.36C224.773 42.1253 225.371 42.008 226.011 42.008C226.651 42.008 227.248 42.1307 227.803 42.376C228.368 42.6107 228.859 42.936 229.275 43.352C229.691 43.7573 230.016 44.2373 230.251 44.792C230.496 45.3467 230.619 45.944 230.619 46.584C230.619 46.7973 230.597 46.9947 230.555 47.176H223.003C223.035 47.56 223.136 47.912 223.307 48.232C223.488 48.552 223.712 48.8347 223.979 49.08C224.256 49.3147 224.576 49.5013 224.939 49.64C225.301 49.768 225.685 49.832 226.091 49.832C226.677 49.832 227.205 49.688 227.675 49.4C228.155 49.112 228.523 48.712 228.779 48.2H230.363ZM229.099 45.848C228.917 45.0693 228.555 44.4667 228.011 44.04C227.477 43.6027 226.816 43.384 226.027 43.384C225.259 43.384 224.603 43.608 224.059 44.056C223.515 44.4933 223.163 45.0907 223.003 45.848H229.099ZM236.259 39.176H237.507L232.691 53.048H231.475L236.259 39.176ZM239.368 43.576H238.2V42.264H239.368C239.4 41.2187 239.688 40.4453 240.232 39.944C240.787 39.4427 241.629 39.192 242.76 39.192V40.568C242.067 40.568 241.576 40.696 241.288 40.952C241.011 41.208 240.872 41.6453 240.872 42.264H242.712V43.576H240.872V51H239.368V43.576ZM243.512 39.176H245V51H243.512V39.176ZM246.375 46.632C246.375 45.9707 246.487 45.3573 246.711 44.792C246.946 44.2267 247.266 43.7413 247.671 43.336C248.087 42.92 248.573 42.5947 249.127 42.36C249.693 42.1253 250.301 42.008 250.951 42.008C251.687 42.008 252.311 42.136 252.823 42.392C253.346 42.648 253.815 43.064 254.231 43.64V42.216H255.671V51H254.231V49.592C253.773 50.168 253.293 50.584 252.791 50.84C252.301 51.0853 251.703 51.208 250.999 51.208C250.338 51.208 249.725 51.096 249.159 50.872C248.594 50.6373 248.103 50.3173 247.687 49.912C247.282 49.5067 246.962 49.0267 246.727 48.472C246.493 47.9067 246.375 47.2933 246.375 46.632ZM247.895 46.616C247.895 47.0747 247.975 47.5013 248.135 47.896C248.306 48.28 248.535 48.616 248.823 48.904C249.111 49.192 249.447 49.4213 249.831 49.592C250.226 49.752 250.647 49.832 251.095 49.832C251.543 49.832 251.954 49.752 252.327 49.592C252.711 49.4213 253.042 49.192 253.319 48.904C253.597 48.616 253.81 48.2747 253.959 47.88C254.119 47.4853 254.199 47.0587 254.199 46.6C254.199 46.1307 254.119 45.704 253.959 45.32C253.799 44.9253 253.575 44.584 253.287 44.296C253.01 44.008 252.674 43.784 252.279 43.624C251.895 43.464 251.474 43.384 251.015 43.384C250.578 43.384 250.167 43.4693 249.783 43.64C249.41 43.8 249.079 44.0293 248.791 44.328C248.514 44.616 248.295 44.9573 248.135 45.352C247.975 45.7467 247.895 46.168 247.895 46.616ZM258.259 43.576H256.643V42.216H258.259V39.176H259.747V42.216H261.491V43.576H259.747V51H258.259V43.576ZM266.79 39.176H268.038L263.222 53.048H262.006L266.79 39.176ZM269.93 48.968H271.434V51H269.93V48.968ZM274.208 48.968H275.712V51H274.208V48.968ZM278.485 48.968H279.989V51H278.485V48.968Z" fill="#9098A6"/>
</svg>
