<svg width="640" height="373" viewBox="0 0 640 373" fill="none" xmlns="http://www.w3.org/2000/svg">
<rect width="640" height="373" rx="30" fill="#F4F8FF"/>
<mask id="mask0_42_167" style="mask-type:alpha" maskUnits="userSpaceOnUse" x="0" y="0" width="640" height="373">
<rect width="640" height="373" rx="30" fill="#F4F8FF"/>
</mask>
<g mask="url(#mask0_42_167)">
<rect x="-14" y="81" width="157" height="211" rx="20" fill="white"/>
<rect x="30" y="99" width="70" height="15" rx="7.5" fill="#E4EAF4"/>
<rect x="4" y="134" width="52" height="4" rx="2" fill="#E4EAF4"/>
<rect x="4" y="145" width="121" height="4" rx="2" fill="#E4EAF4"/>
<rect x="4" y="153" width="121" height="4" rx="2" fill="#E4EAF4"/>
<rect x="4" y="161" width="121" height="4" rx="2" fill="#E4EAF4"/>
<rect x="4" y="180" width="52" height="4" rx="2" fill="#E4EAF4"/>
<rect x="4" y="191" width="121" height="4" rx="2" fill="#E4EAF4"/>
<rect x="4" y="199" width="121" height="4" rx="2" fill="#E4EAF4"/>
<rect x="4" y="207" width="121" height="4" rx="2" fill="#E4EAF4"/>
<rect x="4" y="226" width="52" height="4" rx="2" fill="#E4EAF4"/>
<rect x="4" y="237" width="121" height="4" rx="2" fill="#E4EAF4"/>
<rect x="4" y="245" width="121" height="4" rx="2" fill="#E4EAF4"/>
<rect x="4" y="253" width="121" height="4" rx="2" fill="#E4EAF4"/>
<rect x="156" y="81" width="157" height="211" rx="20" fill="white"/>
<rect x="193" y="99" width="84" height="11" rx="5.5" fill="#E4EAF4"/>
<rect x="174" y="126" width="121" height="6" rx="3" fill="#E4EAF4"/>
<rect x="174" y="138" width="121" height="6" rx="3" fill="#E4EAF4"/>
<rect x="174" y="150" width="121" height="6" rx="3" fill="#E4EAF4"/>
<rect x="174" y="212" width="121" height="6" rx="3" fill="#E4EAF4"/>
<rect x="174" y="224" width="121" height="6" rx="3" fill="#E4EAF4"/>
<rect x="174" y="162" width="76" height="6" rx="3" fill="#E4EAF4"/>
<rect x="174" y="187" width="121" height="6" rx="3" fill="#E4EAF4"/>
<rect x="174" y="199" width="76" height="6" rx="3" fill="#E4EAF4"/>
<rect x="326" y="81" width="157" height="211" rx="20" fill="white"/>
<rect x="381" y="95" width="48" height="6" rx="3" fill="#E4EAF4"/>
<rect x="342" y="97" width="28" height="28" rx="8" stroke="#E4EAF4" stroke-width="4"/>
<rect x="342" y="145" width="28" height="28" rx="8" stroke="#E4EAF4" stroke-width="4"/>
<rect x="342" y="193" width="28" height="28" rx="8" stroke="#E4EAF4" stroke-width="4"/>
<rect x="342" y="241" width="28" height="28" rx="8" stroke="#E4EAF4" stroke-width="4"/>
<path d="M362 107L354 115L350 111" stroke="#9098A6" stroke-width="4" stroke-linecap="round" stroke-linejoin="round"/>
<path d="M362 155L354 163L350 159" stroke="#9098A6" stroke-width="4" stroke-linecap="round" stroke-linejoin="round"/>
<path d="M362 203L354 211L350 207" stroke="#9098A6" stroke-width="4" stroke-linecap="round" stroke-linejoin="round"/>
<rect x="381" y="124" width="88" height="3" rx="1.5" fill="#E4EAF4"/>
<rect x="381" y="117" width="88" height="3" rx="1.5" fill="#E4EAF4"/>
<rect x="381" y="110" width="88" height="3" rx="1.5" fill="#E4EAF4"/>
<rect x="381" y="143" width="48" height="6" rx="3" fill="#E4EAF4"/>
<rect x="381" y="172" width="88" height="3" rx="1.5" fill="#E4EAF4"/>
<rect x="381" y="165" width="88" height="3" rx="1.5" fill="#E4EAF4"/>
<rect x="381" y="158" width="88" height="3" rx="1.5" fill="#E4EAF4"/>
<rect x="381" y="239" width="48" height="6" rx="3" fill="#E4EAF4"/>
<rect x="381" y="268" width="88" height="3" rx="1.5" fill="#E4EAF4"/>
<rect x="381" y="261" width="88" height="3" rx="1.5" fill="#E4EAF4"/>
<rect x="381" y="254" width="88" height="3" rx="1.5" fill="#E4EAF4"/>
<rect x="381" y="191" width="48" height="6" rx="3" fill="#E4EAF4"/>
<rect x="381" y="220" width="88" height="3" rx="1.5" fill="#E4EAF4"/>
<rect x="381" y="213" width="88" height="3" rx="1.5" fill="#E4EAF4"/>
<rect x="381" y="206" width="88" height="3" rx="1.5" fill="#E4EAF4"/>
<rect x="496" y="81" width="157" height="211" rx="20" fill="white"/>
<rect x="514" y="169" width="121" height="6" rx="3" fill="#E4EAF4"/>
<rect x="514" y="181" width="121" height="6" rx="3" fill="#E4EAF4"/>
<rect x="514" y="193" width="121" height="6" rx="3" fill="#E4EAF4"/>
<rect x="514" y="146" width="121" height="6" rx="3" fill="#E4EAF4"/>
<rect x="514" y="158" width="121" height="6" rx="3" fill="#E4EAF4"/>
<rect x="514" y="205" width="76" height="6" rx="3" fill="#E4EAF4"/>
<rect x="605" y="244" width="28" height="28" rx="14" stroke="#E4EAF4" stroke-width="4"/>
<path d="M625 254L617 262L613 258" stroke="#E4EAF4" stroke-width="4" stroke-linecap="round" stroke-linejoin="round"/>
<rect x="540" y="99" width="70" height="15" rx="7.5" fill="#E4EAF4"/>
<path fill-rule="evenodd" clip-rule="evenodd" d="M422.52 163.11C419.502 166.128 417.108 169.712 415.474 173.655C413.841 177.599 413 181.826 413 186.094C413 190.363 413.841 194.589 415.474 198.533C417.108 202.477 419.502 206.06 422.52 209.078C425.539 212.096 429.122 214.491 433.065 216.124C437.009 217.758 441.236 218.598 445.504 218.598C449.773 218.598 454 217.758 457.943 216.124C461.887 214.491 465.47 212.096 468.488 209.078C474.408 202.949 477.684 194.739 477.61 186.218C477.536 177.696 474.118 169.545 468.092 163.519C462.067 157.493 453.915 154.075 445.394 154.001C436.872 153.927 428.663 157.203 422.533 163.123M463.899 204.489C461.495 206.948 458.626 208.905 455.46 210.247C452.294 211.589 448.894 212.29 445.455 212.309C442.016 212.328 438.608 211.665 435.427 210.357C432.246 209.05 429.357 207.125 426.925 204.693C424.494 202.261 422.569 199.371 421.262 196.19C419.955 193.009 419.292 189.601 419.312 186.162C419.331 182.723 420.033 179.322 421.376 176.156C422.719 172.991 424.676 170.123 427.135 167.719C432.03 162.933 438.614 160.271 445.459 160.31C452.304 160.349 458.858 163.086 463.698 167.926C468.538 172.767 471.273 179.321 471.311 186.166C471.349 193.012 468.686 199.595 463.899 204.489Z" fill="#7A55F6"/>
<path d="M463.886 213.804C462.668 212.584 461.983 210.93 461.984 209.206C461.984 207.482 462.67 205.828 463.89 204.61C465.109 203.391 466.763 202.706 468.488 202.707C470.212 202.708 471.865 203.393 473.084 204.613L491.466 223.001C492.087 223.601 492.582 224.318 492.923 225.111C493.263 225.904 493.443 226.757 493.45 227.62C493.458 228.483 493.293 229.339 492.966 230.138C492.639 230.937 492.157 231.663 491.547 232.273C490.936 232.883 490.21 233.366 489.412 233.693C488.613 234.02 487.757 234.184 486.894 234.176C486.031 234.169 485.178 233.99 484.385 233.649C483.592 233.308 482.875 232.813 482.275 232.192L463.886 213.804Z" fill="#7A55F6"/>
</g>
<mask id="mask1_42_167" style="mask-type:alpha" maskUnits="userSpaceOnUse" x="417" y="158" width="56" height="56">
<circle cx="445" cy="186" r="28" fill="#D9D9D9"/>
</mask>
<g mask="url(#mask1_42_167)">
<rect x="326" y="75.2324" width="176" height="236.535" rx="20" fill="white"/>
<rect x="387.656" y="177.245" width="98.6497" height="3.36306" rx="1.68153" fill="#E4EAF4"/>
<rect x="387.656" y="169.398" width="98.6497" height="3.36306" rx="1.68153" fill="#E4EAF4"/>
<rect x="387.656" y="161.551" width="98.6497" height="3.36306" rx="1.68153" fill="#E4EAF4"/>
<rect x="387.656" y="198.544" width="53.8089" height="6.72611" rx="3.36306" fill="#E4EAF4"/>
</g>
</svg>
