<svg width="640" height="373" viewBox="0 0 640 373" fill="none" xmlns="http://www.w3.org/2000/svg">
<rect width="640" height="373" rx="30" fill="#F4F8FF"/>
<rect x="513" y="50" width="77" height="77" rx="20" fill="#7A55F6"/>
<rect x="513" y="149" width="77" height="76" rx="20" fill="white"/>
<path fill-rule="evenodd" clip-rule="evenodd" d="M547.399 79.8297C546.325 80.6144 545.839 81.5549 545.839 82.4327C545.839 83.3124 546.325 84.2529 547.399 85.0395C548.475 85.8261 550.051 86.3695 551.874 86.3695C552.391 86.3695 552.887 86.5697 553.253 86.926C553.619 87.2823 553.824 87.7656 553.824 88.2695C553.824 88.7734 553.619 89.2567 553.253 89.613C552.887 89.9693 552.391 90.1695 551.874 90.1695C549.289 90.1695 546.872 89.4057 545.059 88.0795C543.245 86.7533 541.939 84.7773 541.939 82.4346C541.939 80.09 543.245 78.114 545.059 76.7878C546.872 75.4635 549.29 74.6997 551.874 74.6997C555.878 74.6997 559.663 76.5674 561.168 79.6777C561.277 79.9035 561.34 80.1481 561.352 80.3974C561.364 80.6468 561.326 80.896 561.239 81.1309C561.152 81.3658 561.019 81.5818 560.847 81.7666C560.675 81.9513 560.467 82.1011 560.235 82.2076C560.003 82.314 559.752 82.3749 559.496 82.3868C559.24 82.3987 558.984 82.3614 558.743 82.2769C558.502 82.1925 558.281 82.0626 558.091 81.8947C557.901 81.7269 557.748 81.5242 557.638 81.2984C556.956 79.8791 554.827 78.4997 551.876 78.4997C550.053 78.4997 548.475 79.0431 547.399 79.8297Z" fill="white"/>
<path fill-rule="evenodd" clip-rule="evenodd" d="M555.706 96.7076C556.781 95.9229 557.264 94.9824 557.264 94.1046C557.264 93.2249 556.781 92.2825 555.704 91.4978C554.63 90.7112 553.052 90.1678 551.231 90.1678C550.714 90.1678 550.218 89.9676 549.852 89.6113C549.486 89.255 549.281 88.7717 549.281 88.2678C549.281 87.7639 549.486 87.2806 549.852 86.9243C550.218 86.568 550.714 86.3678 551.231 86.3678C553.817 86.3678 556.233 87.1316 558.046 88.4578C559.86 89.784 561.164 91.76 561.164 94.1027C561.164 96.4454 559.86 98.4233 558.044 99.7476C556.231 101.074 553.817 101.838 551.231 101.838C547.228 101.838 543.441 99.9699 541.937 96.8577C541.717 96.4019 541.691 95.8794 541.866 95.4052C542.041 94.9309 542.402 94.5437 542.869 94.3288C543.337 94.1139 543.873 94.0888 544.36 94.2592C544.847 94.4295 545.244 94.7812 545.465 95.237C546.151 96.6582 548.281 98.0376 551.231 98.0376C553.054 98.0376 554.63 97.4942 555.706 96.7076ZM551.5 70.8999C552.017 70.8999 552.513 71.1001 552.879 71.4564C553.245 71.8127 553.45 72.296 553.45 72.7999V74.6999C553.45 75.2038 553.245 75.6871 552.879 76.0434C552.513 76.3997 552.017 76.5999 551.5 76.5999C550.983 76.5999 550.487 76.3997 550.121 76.0434C549.755 75.6871 549.55 75.2038 549.55 74.6999V72.7999C549.55 72.296 549.755 71.8127 550.121 71.4564C550.487 71.1001 550.983 70.8999 551.5 70.8999Z" fill="white"/>
<path fill-rule="evenodd" clip-rule="evenodd" d="M551.5 99.3999C552.017 99.3999 552.513 99.6001 552.879 99.9564C553.244 100.313 553.45 100.796 553.45 101.3V103.2C553.45 103.704 553.244 104.187 552.879 104.543C552.513 104.9 552.017 105.1 551.5 105.1C550.983 105.1 550.487 104.9 550.121 104.543C549.755 104.187 549.55 103.704 549.55 103.2V101.3C549.55 100.796 549.755 100.313 550.121 99.9564C550.487 99.6001 550.983 99.3999 551.5 99.3999Z" fill="white"/>
<rect x="534.816" y="203.122" width="25.5203" height="5.13333" rx="2.56667" transform="rotate(-90 534.816 203.122)" fill="#7A55F6"/>
<rect x="543.799" y="203.122" width="33.1764" height="5.13333" rx="2.56667" transform="rotate(-90 543.799 203.122)" fill="#7A55F6"/>
<rect x="552.783" y="203.122" width="14.0362" height="5.13333" rx="2.56667" transform="rotate(-90 552.783 203.122)" fill="#7A55F6"/>
<rect x="561.766" y="203.122" width="20.4162" height="5.13333" rx="2.56667" transform="rotate(-90 561.766 203.122)" fill="#7A55F6"/>
<rect x="513" y="246" width="77" height="77" rx="20" fill="white"/>
<rect x="50" y="50" width="449" height="273" rx="20" fill="white"/>
<rect x="50" y="50" width="449" height="38" rx="19" fill="#E4EAF4"/>
<circle cx="76" cy="69" r="6" fill="#9098A6"/>
<circle cx="94" cy="69" r="6" fill="#9098A6" fill-opacity="0.3"/>
<circle cx="112" cy="69" r="6" fill="#9098A6" fill-opacity="0.3"/>
<path d="M563.716 282.714H553.773C552.869 282.714 552.001 282.353 551.362 281.71C550.723 281.067 550.364 280.195 550.364 279.286V269.286C550.364 269.21 550.334 269.137 550.28 269.084C550.227 269.03 550.155 269 550.08 269H543.545C542.34 269 541.184 269.482 540.331 270.339C539.479 271.196 539 272.359 539 273.571V296.429C539 297.641 539.479 298.804 540.331 299.661C541.184 300.518 542.34 301 543.545 301H559.455C560.66 301 561.816 300.518 562.669 299.661C563.521 298.804 564 297.641 564 296.429V283C564 282.924 563.97 282.852 563.917 282.798C563.864 282.744 563.791 282.714 563.716 282.714Z" fill="#7A55F6"/>
<path d="M562.961 279.769L553.231 270.039C553.212 270.021 553.188 270.008 553.162 270.003C553.135 269.997 553.108 270 553.084 270.01C553.059 270.02 553.038 270.038 553.023 270.06C553.008 270.082 553 270.108 553 270.135V278.917C553 279.205 553.114 279.48 553.317 279.683C553.52 279.886 553.795 280 554.083 280H562.865C562.892 280 562.918 279.992 562.94 279.977C562.962 279.962 562.98 279.941 562.99 279.916C563 279.892 563.003 279.865 562.997 279.838C562.992 279.812 562.979 279.788 562.961 279.769Z" fill="#7A55F6"/>
<rect x="112" y="111" width="199" height="8" rx="4" fill="#E8ECF6" fill-opacity="0.7"/>
<rect x="112" y="127" width="121" height="8" rx="4" fill="#E8ECF6" fill-opacity="0.7"/>
<rect x="280" y="189" width="199" height="8" rx="4" fill="#E8ECF6" fill-opacity="0.7"/>
<rect x="280" y="205" width="121" height="8" rx="4" fill="#E8ECF6" fill-opacity="0.7"/>
<rect x="112" y="276" width="199" height="8" rx="4" fill="#E8ECF6" fill-opacity="0.7"/>
<rect x="112" y="292" width="121" height="8" rx="4" fill="#E8ECF6" fill-opacity="0.7"/>
<circle cx="85" cy="123" r="15" fill="#EFF2F9"/>
<circle cx="253" cy="201" r="15" fill="#EFF2F9"/>
<circle cx="85" cy="288" r="15" fill="#EFF2F9"/>
</svg>
