<svg width="640" height="373" viewBox="0 0 640 373" fill="none" xmlns="http://www.w3.org/2000/svg">
<rect width="640" height="373" rx="30" fill="#F4F8FF"/>
<mask id="path-2-inside-1_42_113" fill="white">
<path d="M96.6953 153C96.6953 136.431 110.127 123 126.695 123H512.306C528.875 123 542.306 136.431 542.306 153V373H96.6953V153Z"/>
</mask>
<path d="M96.6953 153C96.6953 136.431 110.127 123 126.695 123H512.306C528.875 123 542.306 136.431 542.306 153V373H96.6953V153Z" fill="white"/>
<path d="M95.6953 153C95.6953 135.879 109.574 122 126.695 122H512.306C529.427 122 543.306 135.879 543.306 153H541.306C541.306 136.984 528.322 124 512.306 124H126.695C110.679 124 97.6953 136.984 97.6953 153H95.6953ZM542.306 373H96.6953H542.306ZM95.6953 373V153C95.6953 135.879 109.574 122 126.695 122V124C110.679 124 97.6953 136.984 97.6953 153V373H95.6953ZM512.306 122C529.427 122 543.306 135.879 543.306 153V373H541.306V153C541.306 136.984 528.322 124 512.306 124V122Z" fill="#E4EAF4" mask="url(#path-2-inside-1_42_113)"/>
<rect x="117.583" y="344.413" width="116.973" height="5.57013" rx="2.78507" fill="#E4EAF4"/>
<rect x="256.837" y="344.413" width="257.619" height="17.4067" rx="8.70333" fill="#E4EAF4"/>
<rect x="117.583" y="356.25" width="73.108" height="5.57013" rx="2.78507" fill="#E4EAF4"/>
<rect x="96.6953" y="180.094" width="445.611" height="38.2947" fill="#E4EAF4"/>
<rect x="161.448" y="149.458" width="73.108" height="11.1403" rx="5.57013" fill="#E4EAF4"/>
<rect x="117.583" y="149.458" width="32.0283" height="11.1403" rx="5.57013" fill="#E4EAF4"/>
<rect x="117.583" y="239.277" width="54.3088" height="54.3088" rx="14.5937" fill="#E4EAF4"/>
<rect x="407.927" y="258.772" width="106.529" height="34.8133" rx="14.5937" fill="#E4EAF4"/>
<path d="M437.949 278.845C437.443 279.847 436.767 280.611 435.921 281.137C435.074 281.662 434.101 281.925 433.002 281.925C432.204 281.925 431.455 281.784 430.754 281.501C430.064 281.209 429.465 280.815 428.959 280.319C428.453 279.823 428.055 279.234 427.763 278.553C427.471 277.872 427.325 277.138 427.325 276.35C427.325 275.562 427.466 274.827 427.748 274.146C428.04 273.465 428.434 272.876 428.93 272.38C429.426 271.874 430.015 271.48 430.696 271.198C431.377 270.906 432.112 270.76 432.9 270.76C433.464 270.76 433.999 270.833 434.505 270.979C435.021 271.115 435.493 271.32 435.921 271.592C436.358 271.855 436.748 272.176 437.088 272.555C437.429 272.935 437.706 273.368 437.92 273.854H436.358C435.95 273.241 435.468 272.789 434.914 272.497C434.359 272.205 433.702 272.059 432.944 272.059C432.35 272.059 431.795 272.171 431.28 272.395C430.764 272.609 430.317 272.906 429.937 273.285C429.558 273.665 429.261 274.117 429.047 274.642C428.833 275.158 428.726 275.722 428.726 276.335C428.726 276.929 428.838 277.488 429.062 278.013C429.285 278.529 429.587 278.982 429.966 279.371C430.356 279.76 430.808 280.066 431.324 280.29C431.839 280.514 432.389 280.626 432.973 280.626C433.654 280.626 434.262 280.485 434.797 280.203C435.332 279.92 435.853 279.468 436.358 278.845H437.949ZM438.483 270.95H439.972L443.474 279.984L446.977 270.95H448.451L444.087 281.735H442.847L438.483 270.95ZM448.527 270.95H450.015L453.518 279.984L457.02 270.95H458.494L454.131 281.735H452.89L448.527 270.95ZM463.27 270.95H464.408L460.015 283.603H458.906L463.27 270.95ZM476.015 278.845C475.509 279.847 474.833 280.611 473.986 281.137C473.14 281.662 472.167 281.925 471.067 281.925C470.27 281.925 469.52 281.784 468.82 281.501C468.129 281.209 467.531 280.815 467.025 280.319C466.519 279.823 466.12 279.234 465.828 278.553C465.536 277.872 465.39 277.138 465.39 276.35C465.39 275.562 465.531 274.827 465.814 274.146C466.106 273.465 466.5 272.876 466.996 272.38C467.492 271.874 468.081 271.48 468.762 271.198C469.443 270.906 470.177 270.76 470.965 270.76C471.53 270.76 472.065 270.833 472.571 270.979C473.086 271.115 473.558 271.32 473.986 271.592C474.424 271.855 474.813 272.176 475.154 272.555C475.494 272.935 475.771 273.368 475.985 273.854H474.424C474.015 273.241 473.534 272.789 472.979 272.497C472.425 272.205 471.768 272.059 471.009 272.059C470.416 272.059 469.861 272.171 469.345 272.395C468.83 272.609 468.382 272.906 468.003 273.285C467.623 273.665 467.327 274.117 467.112 274.642C466.898 275.158 466.791 275.722 466.791 276.335C466.791 276.929 466.903 277.488 467.127 278.013C467.351 278.529 467.652 278.982 468.032 279.371C468.421 279.76 468.873 280.066 469.389 280.29C469.905 280.514 470.454 280.626 471.038 280.626C471.719 280.626 472.327 280.485 472.862 280.203C473.398 279.92 473.918 279.468 474.424 278.845H476.015ZM476.549 270.95H478.037L481.54 279.984L485.042 270.95H486.516L482.153 281.735H480.912L476.549 270.95ZM497.698 278.845C497.192 279.847 496.516 280.611 495.67 281.137C494.823 281.662 493.85 281.925 492.751 281.925C491.953 281.925 491.204 281.784 490.504 281.501C489.813 281.209 489.214 280.815 488.708 280.319C488.203 279.823 487.804 279.234 487.512 278.553C487.22 277.872 487.074 277.138 487.074 276.35C487.074 275.562 487.215 274.827 487.497 274.146C487.789 273.465 488.183 272.876 488.679 272.38C489.175 271.874 489.764 271.48 490.445 271.198C491.126 270.906 491.861 270.76 492.649 270.76C493.213 270.76 493.748 270.833 494.254 270.979C494.77 271.115 495.242 271.32 495.67 271.592C496.108 271.855 496.497 272.176 496.837 272.555C497.178 272.935 497.455 273.368 497.669 273.854H496.108C495.699 273.241 495.217 272.789 494.663 272.497C494.108 272.205 493.451 272.059 492.693 272.059C492.099 272.059 491.545 272.171 491.029 272.395C490.513 272.609 490.066 272.906 489.686 273.285C489.307 273.665 489.01 274.117 488.796 274.642C488.582 275.158 488.475 275.722 488.475 276.335C488.475 276.929 488.587 277.488 488.811 278.013C489.034 278.529 489.336 278.982 489.715 279.371C490.105 279.76 490.557 280.066 491.073 280.29C491.588 280.514 492.138 280.626 492.722 280.626C493.403 280.626 494.011 280.485 494.546 280.203C495.081 279.92 495.602 279.468 496.108 278.845H497.698Z" fill="#9098A6"/>
<circle cx="61" cy="61" r="31" fill="#E4EAF4"/>
<rect x="113" y="45" width="205" height="11" rx="5.5" fill="#E4EAF4"/>
<rect x="113" y="66" width="80" height="11" rx="5.5" fill="#E4EAF4"/>
<circle cx="582" cy="61" r="28" fill="#E4EAF4"/>
<rect x="568" y="50" width="28" height="22" rx="3" fill="#7B51F7"/>
<rect x="568" y="55" width="28" height="7" fill="#E4EAF4"/>
<rect x="572" y="65" width="8" height="3" fill="#E4EAF4"/>
<circle cx="548" cy="62" r="14" fill="#7B51F7" stroke="#F4F8FF" stroke-width="2"/>
<path d="M554 59L546 67L542 63" stroke="white" stroke-width="2" stroke-linecap="round" stroke-linejoin="round"/>
</svg>
