<svg width="80" height="80" viewBox="0 0 80 80" fill="none" xmlns="http://www.w3.org/2000/svg">
<rect width="80" height="80" rx="20" fill="#F4F8FF"/>
<g clip-path="url(#clip0_42_16)">
<path d="M57.7147 39.0484C57.7295 38.6116 57.6494 38.1768 57.4798 37.774C57.3102 37.3712 57.0552 37.01 56.7325 36.7153L41.9344 23.6385C41.4017 23.1633 40.7127 22.9007 39.9989 22.9007C39.285 22.9007 38.5961 23.1633 38.0633 23.6385L23.2682 36.7153C22.937 37.0066 22.6724 37.3657 22.4922 37.7682C22.3121 38.1708 22.2206 38.6074 22.2241 39.0484V60.9658C22.2253 61.7634 22.5427 62.5279 23.1066 63.0918C23.6706 63.6557 24.4351 63.9731 25.2326 63.9743H54.7674C55.5552 63.9602 56.3059 63.6368 56.8572 63.0739C57.4086 62.511 57.7164 61.7538 57.7141 60.9658L57.7147 39.0484ZM36.5333 49.178C36.1035 47.9502 37.9454 47.2136 38.3753 48.4413C38.5324 48.7789 38.7845 49.0632 39.1008 49.2595C39.4171 49.4559 39.7838 49.5556 40.156 49.5466C40.3228 49.579 40.4946 49.5751 40.6597 49.5352C40.8248 49.4954 40.9795 49.4205 41.1132 49.3157C41.2468 49.2109 41.3564 49.0786 41.4345 48.9277C41.5126 48.7769 41.5574 48.611 41.5658 48.4413C41.5658 47.889 40.5836 47.7047 39.6626 47.4591L39.0484 47.2754C38.3675 47.179 37.7401 46.8522 37.2708 46.3495C36.8015 45.8468 36.5186 45.1984 36.4692 44.5124C36.4867 43.8741 36.712 43.2588 37.111 42.7601C37.51 42.2615 38.0608 41.9066 38.6798 41.7495C38.777 41.7115 38.8593 41.6432 38.9147 41.5548C38.97 41.4663 38.9955 41.3624 38.9872 41.2584V40.706C38.9996 40.4458 39.1117 40.2003 39.3003 40.0205C39.4889 39.8407 39.7395 39.7404 40 39.7404C40.2606 39.7404 40.5111 39.8407 40.6997 40.0205C40.8883 40.2003 41.0004 40.4458 41.0129 40.706V41.3815C41.014 41.4759 41.0441 41.5678 41.0991 41.6447C41.154 41.7215 41.2312 41.7797 41.3202 41.8113C42.2789 42.2767 43.0253 43.0884 43.4089 44.0826C43.8388 45.3104 41.9356 45.9245 41.5057 44.6968C41.3701 44.3662 41.1337 44.0868 40.8303 43.8983C40.0919 43.2847 38.4978 43.5302 38.4978 44.5124C38.4978 45.0036 39.1732 45.2491 39.5418 45.3722L40.156 45.4947C41.8137 45.9245 43.5331 46.3544 43.5331 48.4413C43.5417 49.0989 43.3369 49.7415 42.9494 50.2728C42.5619 50.804 42.0125 51.1954 41.3838 51.388C41.2734 51.4114 41.1751 51.4741 41.1074 51.5644C41.0396 51.6547 41.0068 51.7665 41.0152 51.8791V52.3702C41.0027 52.6305 40.8906 52.876 40.702 53.0557C40.5134 53.2355 40.2629 53.3358 40.0023 53.3358C39.7418 53.3358 39.4912 53.2355 39.3026 53.0557C39.1141 52.876 39.0019 52.6305 38.9895 52.3702V51.7566C38.9815 51.6561 38.9494 51.559 38.8959 51.4735C38.8424 51.388 38.769 51.3166 38.6821 51.2655C38.1898 51.102 37.7408 50.8293 37.3687 50.4678C36.9966 50.1063 36.711 49.6654 36.5333 49.178ZM39.9717 34.8121C42.2511 34.8063 44.4809 35.4773 46.3785 36.74C48.2761 38.0028 49.7561 39.8005 50.631 41.9052C51.5059 44.01 51.7363 46.3271 51.2929 48.563C50.8495 50.7988 49.7524 52.8527 48.1405 54.4643C46.5286 56.076 44.4746 57.1728 42.2387 57.6158C40.0028 58.0589 37.6857 57.8282 35.581 56.953C33.4764 56.0778 31.6789 54.5975 30.4165 52.6996C29.154 50.8018 28.4834 48.5719 28.4895 46.2926C28.499 43.2504 29.7118 40.3355 31.8631 38.1845C34.0145 36.0335 36.9295 34.8211 39.9717 34.8121ZM39.9717 36.7766C38.0835 36.7828 36.2395 37.3487 34.6729 38.4029C33.1063 39.4571 31.8875 40.9522 31.1706 42.699C30.4537 44.4459 30.2709 46.3661 30.6453 48.2169C31.0198 50.0677 31.9346 51.7658 33.2742 53.0966C34.6137 54.4275 36.3178 55.3312 38.171 55.6935C40.0242 56.0558 41.9431 55.8605 43.6853 55.1322C45.4274 54.4039 46.9145 53.1754 47.9584 51.6019C49.0024 50.0285 49.5563 48.1808 49.5501 46.2926C49.5371 43.762 48.5218 41.3396 46.7265 39.5561C44.9313 37.7725 42.5023 36.773 39.9717 36.7766ZM59.7433 60.9658C59.7407 62.2901 59.2174 63.5602 58.2865 64.5021C57.3556 65.4439 56.0916 65.982 54.7674 66H25.2326C23.9088 65.9814 22.6455 65.4431 21.715 64.5013C20.7846 63.5595 20.2617 62.2897 20.2591 60.9658V39.0484C20.2428 38.3257 20.3888 37.6086 20.6864 36.9499C20.984 36.2911 21.4255 35.7075 21.9785 35.242L36.7148 22.1652C37.6097 21.3646 38.7683 20.922 39.9691 20.922C41.1699 20.922 42.3285 21.3646 43.2234 22.1652L58.0215 35.242C58.5638 35.7165 58.9979 36.3018 59.2946 36.9585C59.5912 37.6152 59.7434 38.3278 59.741 39.0484L59.7433 60.9658ZM65.6354 34.6267C65.839 34.7977 65.9663 35.0426 65.9893 35.3074C66.0124 35.5723 65.9292 35.8355 65.7582 36.039C65.5872 36.2426 65.3423 36.3699 65.0775 36.3929C64.8126 36.416 64.5494 36.3328 64.3458 36.1618L41.9344 16.7629C41.3902 16.288 40.6923 16.0263 39.97 16.0263C39.2476 16.0263 38.5498 16.288 38.0055 16.7629L29.4082 24.2527C29.2587 24.375 29.0774 24.4521 28.8856 24.475C28.6938 24.4978 28.4995 24.4654 28.3255 24.3816C28.1514 24.2978 28.0049 24.1661 27.9032 24.0019C27.8015 23.8377 27.7487 23.6479 27.7511 23.4548V20.6918C27.7425 20.5643 27.6879 20.4443 27.5975 20.354C27.507 20.2637 27.3869 20.2092 27.2594 20.2007H22.777C22.6398 20.1972 22.5063 20.246 22.4036 20.3371C22.301 20.4283 22.2368 20.5551 22.2241 20.6918V29.9623C22.2286 30.1237 22.198 30.2842 22.1344 30.4327C22.0707 30.5811 21.9756 30.714 21.8555 30.822L15.6542 36.163C15.4499 36.3293 15.1884 36.4086 14.9262 36.3838C14.6639 36.3589 14.422 36.2318 14.2526 36.0301C14.0832 35.8283 14 35.568 14.021 35.3054C14.042 35.0428 14.1654 34.799 14.3646 34.6267L20.0754 29.6578C20.1389 29.6213 20.1902 29.5668 20.2229 29.5012C20.2556 29.4356 20.2682 29.3619 20.2591 29.2892V20.2007C20.2732 19.68 20.4688 19.1805 20.812 18.7886C20.9951 18.5981 21.2142 18.4458 21.4566 18.3404C21.699 18.2351 21.9599 18.1789 22.2241 18.175H27.7511C28.2826 18.1934 28.7873 18.4127 29.1633 18.7887C29.5394 19.1647 29.7588 19.6693 29.7774 20.2007C29.7721 20.2953 29.7953 20.3893 29.8441 20.4706C29.8929 20.5518 29.965 20.6165 30.0511 20.6562C30.1371 20.696 30.2331 20.7089 30.3266 20.6934C30.42 20.6779 30.5067 20.6347 30.5753 20.5693L36.7148 15.2278C37.6176 14.442 38.7725 14.0063 39.9694 14C41.1829 14.0162 42.3538 14.4497 43.2853 15.2278L65.6354 34.6267Z" fill="#7A55F6"/>
</g>
<defs>
<clipPath id="clip0_42_16">
<rect width="52" height="52" fill="white" transform="translate(14 14)"/>
</clipPath>
</defs>
</svg>
