<svg width="80" height="80" viewBox="0 0 80 80" fill="none" xmlns="http://www.w3.org/2000/svg">
<rect width="80" height="80" rx="20" fill="#F4F8FF"/>
<path d="M63.0722 35.1641C63.2366 35.3232 63.3346 35.5387 63.3464 35.7672C63.3583 35.9956 63.2832 36.2201 63.1362 36.3954C62.9893 36.5707 62.7813 36.6839 62.5543 36.712C62.3273 36.7402 62.098 36.6814 61.9126 36.5473L41.7834 19.0857C41.2937 18.6581 40.6656 18.4226 40.0154 18.4226C39.3653 18.4226 38.7372 18.6581 38.2474 19.0857L30.4474 25.7729C30.3205 25.8934 30.1608 25.9735 29.9883 26.0031C29.8158 26.0328 29.6384 26.0105 29.4786 25.9392C29.3188 25.868 29.1837 25.7509 29.0905 25.6028C28.9973 25.4547 28.9502 25.2822 28.955 25.1073V22.6217C28.9557 22.5635 28.9448 22.5057 28.9228 22.4517C28.9008 22.3978 28.8683 22.3488 28.8271 22.3076C28.786 22.2664 28.7369 22.2339 28.683 22.2119C28.6291 22.19 28.5713 22.179 28.513 22.1797H24.4778C24.4196 22.179 24.3618 22.19 24.3079 22.2119C24.2539 22.2339 24.2049 22.2664 24.1637 22.3076C24.1226 22.3488 24.09 22.3978 24.0681 22.4517C24.0461 22.5057 24.0351 22.5635 24.0358 22.6217V30.9677C24.034 31.1087 23.998 31.2471 23.931 31.3712C23.8639 31.4952 23.7679 31.6012 23.651 31.6801L18.0662 36.5473C17.9764 36.6249 17.872 36.6837 17.7591 36.7202C17.6461 36.7568 17.5271 36.7704 17.4088 36.7602C17.2906 36.7501 17.1756 36.7163 17.0706 36.661C16.9656 36.6057 16.8727 36.5299 16.7974 36.4381C16.6507 36.2515 16.5803 36.0161 16.6006 35.7795C16.6209 35.543 16.7303 35.323 16.9066 35.1641L22.0494 30.6921C22.1017 30.6539 22.1441 30.6038 22.1731 30.5459C22.202 30.488 22.2167 30.424 22.2158 30.3593V22.1797C22.2326 21.7024 22.4298 21.2491 22.7675 20.9114C23.1053 20.5737 23.5585 20.3765 24.0358 20.3597H28.9602C29.4381 20.3764 29.8919 20.5734 30.2305 20.911C30.5691 21.2486 30.7673 21.7019 30.7854 22.1797C30.7858 22.2627 30.8098 22.3439 30.8546 22.4137C30.8994 22.4836 30.9632 22.5393 31.0385 22.5742C31.1138 22.6091 31.1974 22.6218 31.2797 22.6109C31.362 22.6 31.4395 22.5659 31.503 22.5125L37.0306 17.7077C37.8634 17.0078 38.9121 16.6166 39.9998 16.6001C41.0788 16.6047 42.12 16.9979 42.9326 17.7077L63.0722 35.1641ZM48.0338 52.8441C48.46 52.597 48.9553 52.4957 49.4443 52.5558C49.9333 52.6159 50.3893 52.834 50.743 53.1769L56.1614 58.5953C56.5528 59.0205 56.7701 59.5774 56.7701 60.1553C56.7701 60.7332 56.5528 61.2901 56.1614 61.7153L55.1214 62.7085C54.7039 63.1151 54.1442 63.3426 53.5614 63.3426C52.9787 63.3426 52.4189 63.1151 52.0014 62.7085L46.5934 57.3213C46.2502 56.9687 46.0323 56.5131 45.9731 56.0246C45.9139 55.5361 46.0167 55.0417 46.2658 54.6173C46.3297 54.5312 46.3592 54.4244 46.3487 54.3177C46.3381 54.211 46.2882 54.112 46.2086 54.0401C45.4364 53.2316 44.9195 52.2135 44.7225 51.113C44.5255 50.0124 44.6572 48.8782 45.101 47.8521L47.8674 41.0921C48.1839 40.3609 48.2688 39.5503 48.1108 38.7694C47.9528 37.9885 47.5593 37.2747 46.9834 36.7241L45.1998 34.9457C45.0459 34.8128 44.8494 34.7398 44.646 34.7398C44.4427 34.7398 44.2462 34.8128 44.0922 34.9457L43.541 35.4969C43.2602 35.7725 43.3746 36.0481 43.593 36.2717C43.8411 36.5055 44.0387 36.7876 44.1738 37.1006C44.3089 37.4135 44.3785 37.7508 44.3785 38.0917C44.3785 38.4326 44.3089 38.7699 44.1738 39.0828C44.0387 39.3958 43.8411 39.6779 43.593 39.9117L33.3282 50.2493C32.8296 50.7276 32.1654 50.9947 31.4744 50.9947C30.7835 50.9947 30.1193 50.7276 29.6206 50.2493L27.629 48.2057C27.1526 47.7197 26.8858 47.0663 26.8858 46.3857C26.8858 45.7051 27.1526 45.0517 27.629 44.5657L37.9198 34.2281C38.4164 33.7477 39.0802 33.4792 39.771 33.4792C40.4619 33.4792 41.1257 33.7477 41.6222 34.2281C41.6616 34.2788 41.7121 34.3199 41.7697 34.3482C41.8274 34.3764 41.8908 34.3911 41.955 34.3911C42.0193 34.3911 42.0827 34.3764 42.1403 34.3482C42.198 34.3199 42.2485 34.2788 42.2878 34.2281L42.839 33.6717C43.3251 33.1953 43.9785 32.9285 44.659 32.9285C45.3396 32.9285 45.993 33.1953 46.479 33.6717L48.247 35.4969C49.086 36.2972 49.6584 37.3363 49.8863 38.4732C50.1142 39.61 49.9867 40.7894 49.521 41.8513L46.7598 48.5385C46.4664 49.2397 46.3733 50.0085 46.4908 50.7595C46.6083 51.5104 46.9318 52.2141 47.4254 52.7921C47.5084 52.8638 47.6119 52.9075 47.7212 52.9168C47.8305 52.9261 47.9399 52.9007 48.0338 52.8441ZM39.1938 35.4969L28.903 45.8293C28.8245 45.8986 28.7615 45.9838 28.7184 46.0793C28.6753 46.1748 28.653 46.2783 28.653 46.3831C28.653 46.4879 28.6753 46.5914 28.7184 46.6869C28.7615 46.7824 28.8245 46.8676 28.903 46.9369L30.8946 48.9805C31.0582 49.1144 31.2631 49.1876 31.4744 49.1876C31.6858 49.1876 31.8907 49.1144 32.0542 48.9805L42.3398 38.6481C42.4184 38.5788 42.4813 38.4936 42.5244 38.3981C42.5675 38.3026 42.5898 38.1991 42.5898 38.0943C42.5898 37.9895 42.5675 37.886 42.5244 37.7905C42.4813 37.695 42.4184 37.6098 42.3398 37.5405L40.3482 35.4969C40.1847 35.363 39.9798 35.2898 39.7684 35.2898C39.5571 35.2898 39.3522 35.363 39.1886 35.4969H39.1938ZM48.8398 54.5029L47.8466 55.5013C47.807 55.5355 47.7753 55.5778 47.7535 55.6253C47.7317 55.6729 47.7204 55.7246 47.7204 55.7769C47.7204 55.8292 47.7317 55.8809 47.7535 55.9285C47.7753 55.976 47.807 56.0183 47.8466 56.0525L53.2858 61.4657C53.3205 61.5046 53.3629 61.5356 53.4104 61.5569C53.4579 61.5782 53.5094 61.5892 53.5614 61.5892C53.6135 61.5892 53.665 61.5782 53.7124 61.5569C53.7599 61.5356 53.8024 61.5046 53.837 61.4657L54.877 60.4725C54.9574 60.3916 55.0025 60.2823 55.0025 60.1683C55.0025 60.0543 54.9574 59.945 54.877 59.8641L49.5262 54.5029C49.4328 54.4251 49.315 54.3825 49.1934 54.3825C49.0718 54.3825 48.9541 54.4251 48.8606 54.5029H48.8398ZM55.995 39.1421C55.9955 38.7483 55.9118 38.359 55.7495 38.0003C55.5872 37.6415 55.35 37.3216 55.0538 37.0621L41.7314 25.2737C41.2537 24.8425 40.633 24.6038 39.9894 24.6038C39.3459 24.6038 38.7252 24.8425 38.2474 25.2737L24.9198 37.0465C24.6308 37.3089 24.4017 37.6305 24.2482 37.9895C24.0948 38.3484 24.0206 38.7362 24.0306 39.1265V58.8137C24.0181 59.5319 24.2907 60.2257 24.7888 60.7433C25.2868 61.2608 25.9697 61.5599 26.6878 61.5749H47.1498C48.3198 61.5749 48.3198 63.4001 47.1498 63.4001H26.693C25.4926 63.3809 24.3485 62.8881 23.5098 62.029C22.6712 61.1699 22.2061 60.0142 22.2158 58.8137V39.1421C22.2153 38.4933 22.3543 37.8519 22.6235 37.2615C22.8927 36.6712 23.2857 36.1456 23.7758 35.7205L37.0878 23.9477C37.8935 23.2267 38.9368 22.828 40.018 22.828C41.0993 22.828 42.1425 23.2267 42.9482 23.9477L56.2706 35.7205C56.7509 36.1499 57.1329 36.6778 57.3904 37.2683C57.648 37.8588 57.7751 38.498 57.763 39.1421V54.7785C57.763 55.0129 57.6699 55.2378 57.5041 55.4036C57.3383 55.5694 57.1135 55.6625 56.879 55.6625C56.6446 55.6625 56.4197 55.5694 56.254 55.4036C56.0882 55.2378 55.995 55.0129 55.995 54.7785V39.1421Z" fill="#7A55F6"/>
</svg>
