<svg width="80" height="80" viewBox="0 0 80 80" fill="none" xmlns="http://www.w3.org/2000/svg">
<rect width="80" height="80" rx="20" fill="#F4F8FF"/>
<path d="M47.0354 38.8145C47.2037 38.6442 47.4327 38.5477 47.6721 38.5462C47.9115 38.5447 48.1417 38.6384 48.312 38.8067C48.4824 38.975 48.5789 39.204 48.5803 39.4434C48.5818 39.6828 48.4881 39.913 48.3198 40.0833L33.1046 55.2777C32.9344 55.4368 32.7091 55.5236 32.4761 55.5198C32.2432 55.5161 32.0208 55.4222 31.8557 55.2578C31.6906 55.0934 31.5957 54.8713 31.5911 54.6384C31.5864 54.4054 31.6723 54.1798 31.8306 54.0089L47.0354 38.8145ZM55.9898 39.1421C55.9903 38.7483 55.9066 38.359 55.7443 38.0003C55.5819 37.6415 55.3448 37.3216 55.0486 37.0621L41.7262 25.2737C41.2485 24.8425 40.6278 24.6038 39.9842 24.6038C39.3407 24.6038 38.72 24.8425 38.2422 25.2737L24.9198 37.0465C24.6314 37.3091 24.4032 37.6309 24.2506 37.9899C24.098 38.3489 24.0248 38.7366 24.0358 39.1265V58.8709C24.0344 59.5804 24.3124 60.262 24.8097 60.768C25.307 61.2741 25.9836 61.564 26.693 61.5749H53.3378C54.0464 61.5626 54.7216 61.2721 55.2178 60.7662C55.714 60.2603 55.9913 59.5795 55.9898 58.8709V39.1421ZM57.7578 58.8709C57.7676 60.0562 57.3085 61.1974 56.4806 62.0458C55.6527 62.8941 54.5231 63.3809 53.3378 63.4001H26.693C25.5012 63.3837 24.3635 62.8998 23.5251 62.0527C22.6867 61.2055 22.2146 60.0628 22.2106 58.8709V39.1421C22.2104 38.4933 22.3496 37.8521 22.6188 37.2617C22.8879 36.6714 23.2807 36.1458 23.7706 35.7205L37.0826 23.9477C37.8883 23.2267 38.9316 22.828 40.0128 22.828C41.0941 22.828 42.1373 23.2267 42.943 23.9477L56.2654 35.7205C56.7468 36.149 57.1295 36.6768 57.3872 37.2675C57.6448 37.8582 57.7713 38.4978 57.7578 39.1421V58.8709ZM63.1242 35.1641C63.2912 35.3312 63.3892 35.5549 63.3988 35.791C63.4085 36.027 63.329 36.258 63.1762 36.4381C63.1014 36.5305 63.0087 36.6068 62.9037 36.6626C62.7987 36.7183 62.6835 36.7523 62.5651 36.7625C62.4466 36.7727 62.3273 36.7589 62.2143 36.7219C62.1013 36.6849 61.9969 36.6255 61.9074 36.5473L41.7834 19.0857C41.2928 18.6578 40.6639 18.422 40.0128 18.422C39.3618 18.422 38.7328 18.6578 38.2422 19.0857L30.4422 25.8457C30.3075 25.9552 30.1444 26.0241 29.972 26.0444C29.7995 26.0647 29.6249 26.0355 29.4684 25.9603C29.3119 25.8851 29.1801 25.7669 29.0883 25.6195C28.9965 25.4721 28.9484 25.3017 28.9498 25.1281V22.6217C28.9505 22.5635 28.9396 22.5057 28.9176 22.4517C28.8956 22.3978 28.8631 22.3488 28.8219 22.3076C28.7808 22.2664 28.7317 22.2339 28.6778 22.2119C28.6239 22.19 28.5661 22.179 28.5078 22.1797H24.4778C24.4196 22.179 24.3618 22.19 24.3079 22.2119C24.2539 22.2339 24.2049 22.2664 24.1637 22.3076C24.1226 22.3488 24.09 22.3978 24.0681 22.4517C24.0461 22.5057 24.0351 22.5635 24.0358 22.6217V30.9677C24.0303 31.116 23.9931 31.2614 23.9268 31.3942C23.8604 31.5269 23.7664 31.6439 23.651 31.7373L18.0662 36.5473C17.9764 36.6249 17.872 36.6837 17.7591 36.7202C17.6461 36.7568 17.5271 36.7704 17.4088 36.7602C17.2906 36.7501 17.1756 36.7163 17.0706 36.661C16.9656 36.6057 16.8727 36.5299 16.7974 36.4381C16.6507 36.2515 16.5803 36.0161 16.6006 35.7795C16.6209 35.543 16.7303 35.323 16.9066 35.1641L22.0494 30.6921C22.1057 30.6583 22.151 30.6088 22.1796 30.5497C22.2082 30.4906 22.219 30.4244 22.2106 30.3593V22.1797C22.2287 21.7019 22.427 21.2486 22.7656 20.911C23.1042 20.5734 23.558 20.3764 24.0358 20.3597H28.955C29.4333 20.3752 29.8878 20.5718 30.2266 20.9097C30.5655 21.2475 30.7634 21.7015 30.7802 22.1797C30.7759 22.2646 30.797 22.3489 30.8409 22.4217C30.8848 22.4946 30.9495 22.5526 31.0267 22.5884C31.1038 22.6241 31.1899 22.636 31.2739 22.6225C31.3578 22.609 31.4358 22.5707 31.4978 22.5125L37.0306 17.7077C37.8634 17.0078 38.9121 16.6166 39.9998 16.6001C41.0774 16.6041 42.1171 16.9975 42.9274 17.7077L63.1242 35.1641ZM46.3178 49.3081C47.0736 49.4012 47.7691 49.7674 48.2736 50.3378C48.778 50.9081 49.0564 51.6433 49.0564 52.4047C49.0564 53.1661 48.778 53.9013 48.2736 54.4716C47.7691 55.042 47.0736 55.4082 46.3178 55.5013C45.8792 55.5553 45.4342 55.5155 45.0121 55.3846C44.59 55.2537 44.2005 55.0346 43.8695 54.7418C43.5385 54.4491 43.2734 54.0893 43.0919 53.6864C42.9103 53.2835 42.8164 52.8466 42.8164 52.4047C42.8164 51.9628 42.9103 51.5259 43.0919 51.123C43.2734 50.7201 43.5385 50.3603 43.8695 50.0676C44.2005 49.7748 44.59 49.5557 45.0121 49.4248C45.4342 49.2938 45.8792 49.2541 46.3178 49.3081ZM46.3178 51.1333C46.1471 51.1292 45.9772 51.1587 45.8179 51.2202C45.6586 51.2817 45.513 51.3741 45.3894 51.4919C45.2657 51.6097 45.1665 51.7507 45.0974 51.9069C45.0283 52.0631 44.9907 52.2314 44.9866 52.4021C44.9907 52.7534 45.1324 53.0891 45.3814 53.337C45.6303 53.585 45.9665 53.7254 46.3178 53.7281C46.4883 53.7247 46.6565 53.6877 46.8126 53.6192C46.9688 53.5506 47.1098 53.4519 47.2277 53.3287C47.3456 53.2055 47.438 53.0602 47.4996 52.9012C47.5612 52.7422 47.5908 52.5726 47.5866 52.4021C47.5895 52.2347 47.5586 52.0684 47.4958 51.9132C47.433 51.758 47.3397 51.617 47.2213 51.4986C47.1029 51.3803 46.9619 51.2869 46.8067 51.2241C46.6515 51.1614 46.4852 51.1305 46.3178 51.1333ZM33.713 38.5909C34.3301 38.5909 34.9333 38.7739 35.4464 39.1167C35.9595 39.4595 36.3594 39.9468 36.5955 40.5169C36.8317 41.087 36.8935 41.7144 36.7731 42.3196C36.6527 42.9248 36.3556 43.4807 35.9192 43.9171C35.4829 44.3534 34.9269 44.6506 34.3217 44.7709C33.7165 44.8913 33.0892 44.8295 32.5191 44.5934C31.949 44.3573 31.4617 43.9574 31.1189 43.4443C30.776 42.9312 30.593 42.328 30.593 41.7109C30.5896 41.3002 30.6679 40.8929 30.8235 40.5128C30.979 40.1327 31.2087 39.7874 31.4991 39.497C31.7896 39.2066 32.1349 38.9769 32.515 38.8213C32.8951 38.6658 33.3023 38.5874 33.713 38.5909ZM33.713 40.3589C33.3626 40.3629 33.0277 40.504 32.7799 40.7518C32.5321 40.9996 32.3911 41.3345 32.387 41.6849C32.3904 41.8554 32.4274 42.0235 32.496 42.1797C32.5645 42.3358 32.6632 42.4769 32.7864 42.5948C32.9096 42.7127 33.0549 42.8051 33.2139 42.8667C33.3729 42.9283 33.5426 42.9578 33.713 42.9537C33.8804 42.9565 34.0467 42.9256 34.2019 42.8628C34.3571 42.8001 34.4981 42.7067 34.6165 42.5883C34.7349 42.47 34.8282 42.329 34.891 42.1738C34.9538 42.0185 34.9847 41.8523 34.9818 41.6849C34.986 41.5144 34.9564 41.3448 34.8948 41.1858C34.8332 41.0268 34.7408 40.8815 34.6229 40.7583C34.505 40.6351 34.364 40.5364 34.2078 40.4678C34.0517 40.3993 33.8835 40.3623 33.713 40.3589Z" fill="#7A55F6"/>
</svg>
