<svg width="80" height="80" viewBox="0 0 80 80" fill="none" xmlns="http://www.w3.org/2000/svg">
<rect width="80" height="80" rx="20" fill="#F4F8FF"/>
<g clip-path="url(#clip0_42_21)">
<path d="M61.352 36.0382C60.8093 36.0382 60.2893 35.0954 59.9561 33.5565C61.0582 32.4334 61.822 31.032 62.1626 29.5079C62.5386 29.2663 62.8507 28.9401 63.073 28.5563C63.2953 28.1726 63.4213 27.7423 63.4408 27.3011C63.4113 26.8614 63.2884 26.4326 63.0801 26.0424C62.8718 25.6522 62.5828 25.3091 62.2315 25.0353C61.9957 21.812 59.2672 19.3154 55.9796 19.3154C52.692 19.3154 49.9634 21.812 49.7276 25.0353C49.3764 25.3089 49.0873 25.6518 48.879 26.0419C48.6708 26.432 48.5479 26.8606 48.5183 27.3002C48.5382 27.7419 48.6649 28.1726 48.888 28.5566C49.1111 28.9405 49.4241 29.2667 49.8011 29.5079C50.1417 31.032 50.9055 32.4334 52.0077 33.5565C51.6699 35.0955 51.1494 36.0382 50.6071 36.0382H50.5425C50.1845 33.3544 48.2271 30.7566 45.2347 30.7566C44.692 30.7566 44.1716 29.8141 43.8391 28.2752C44.9412 27.1521 45.7048 25.7506 46.0449 24.2263C46.421 23.9848 46.7332 23.6587 46.9556 23.275C47.178 22.8913 47.3042 22.461 47.3238 22.0198C47.2942 21.5801 47.1712 21.1513 46.9628 20.7611C46.7544 20.3708 46.4652 20.0278 46.1138 19.7541C45.8787 16.5307 43.1495 14.0342 39.8622 14.0342C36.575 14.0342 33.8458 16.5307 33.6106 19.7541C33.2594 20.0278 32.9702 20.3707 32.7619 20.7608C32.5535 21.1509 32.4304 21.5796 32.4007 22.0193C32.4207 22.461 32.5475 22.8916 32.7708 23.2755C32.994 23.6593 33.3071 23.9853 33.6842 24.2263C34.0242 25.7506 34.7878 27.1522 35.89 28.2752C35.5529 29.8141 35.0325 30.7566 34.4898 30.7566C31.4973 30.7566 29.5393 33.3579 29.182 36.0382H29.1173C28.5751 36.0382 28.0546 35.0954 27.7214 33.5565C28.8235 32.4334 29.5873 31.032 29.9279 29.5079C30.3039 29.2662 30.6159 28.94 30.8382 28.5563C31.0605 28.1725 31.1866 27.7423 31.2061 27.3011C31.1766 26.8614 31.0537 26.4326 30.8454 26.0424C30.6372 25.6522 30.3481 25.3091 29.9968 25.0353C29.761 21.812 27.0325 19.3154 23.7449 19.3154C20.4573 19.3154 17.7288 21.812 17.493 25.0353C17.1417 25.3089 16.8526 25.6518 16.6444 26.0419C16.4361 26.432 16.3132 26.8606 16.2837 27.3002C16.3035 27.7419 16.4303 28.1726 16.6533 28.5566C16.8764 28.9405 17.1894 29.2667 17.5664 29.5079C17.907 31.032 18.6708 32.4334 19.773 33.5565C19.4352 35.0955 18.9151 36.0382 18.3724 36.0382C15.054 36.0382 13 39.2358 13 42.1994C13 42.6855 13.4007 43.0797 13.8955 43.0797H22.8497V54.5225C22.8497 55.0083 23.2504 55.4025 23.7449 55.4025H25.5356C26.0304 55.4025 26.4311 55.0083 26.4311 54.5225C26.4311 54.0362 26.0304 53.642 25.5356 53.642H24.6404V43.0796H33.5943C34.0891 43.0796 34.4898 42.6854 34.4898 42.1993C34.487 40.591 33.9124 39.0342 32.8653 37.7984H38.9667V40.4388C38.9667 40.9251 39.3677 41.3193 39.8622 41.3193C40.3568 41.3193 40.7578 40.9251 40.7578 40.4388V37.7984H46.8592C45.8121 39.0342 45.2374 40.591 45.2347 42.1994C45.2347 42.4331 45.3288 42.6566 45.497 42.8218C45.6649 42.9869 45.8924 43.0797 46.1302 43.0797H55.0841V53.642H54.1889C53.694 53.642 53.2934 54.0362 53.2934 54.5225C53.2934 55.0083 53.694 55.4025 54.1889 55.4025H55.9796C56.474 55.4025 56.8748 55.0083 56.8748 54.5225V43.0797H65.8289C66.3238 43.0797 66.7245 42.6855 66.7245 42.1994C66.7245 39.2358 64.6704 36.0382 61.352 36.0382ZM51.4899 28.8513C51.4698 28.7327 51.4252 28.6194 51.3589 28.5184C51.2925 28.4174 51.2059 28.3308 51.1042 28.2639C50.8078 28.0702 50.3107 27.6876 50.309 27.3041C50.309 26.8805 50.8465 26.3812 51.1042 26.208C51.2268 26.1275 51.3273 26.0185 51.3968 25.8907C51.4662 25.7629 51.5026 25.6202 51.5026 25.4753C51.5026 23.0449 53.5068 21.0747 55.9796 21.0747C58.452 21.0747 60.4565 23.0449 60.4565 25.4753C60.4572 25.6194 60.4935 25.7611 60.5624 25.8882C60.6312 26.0154 60.7305 26.1241 60.8516 26.2051C61.1133 26.3812 61.653 26.8805 61.6501 27.3041C61.6501 27.6876 61.1513 28.0702 60.8549 28.2639C60.7537 28.3309 60.6673 28.4173 60.6011 28.518C60.5348 28.6186 60.4899 28.7315 60.4693 28.8496C60.4369 29.0353 59.6338 33.3973 55.9796 33.3973C52.3257 33.3973 51.5223 29.0353 51.4899 28.8513ZM35.3729 23.57C35.3527 23.4514 35.3081 23.3381 35.2416 23.2372C35.1752 23.1362 35.0884 23.0497 34.9866 22.983C34.6905 22.789 34.1933 22.4064 34.1914 22.0225C34.1914 21.5992 34.7289 21.0999 34.9866 20.9268C35.1092 20.8463 35.2097 20.7373 35.2792 20.6095C35.3487 20.4817 35.385 20.339 35.385 20.1941C35.385 17.7636 37.3898 15.7932 39.8622 15.7932C42.3347 15.7932 44.3395 17.7637 44.3395 20.1941C44.3401 20.3381 44.3764 20.4798 44.4451 20.607C44.5139 20.7341 44.6132 20.8429 44.7343 20.9239C44.9956 21.0999 45.5354 21.5992 45.5331 22.0225C45.5331 22.4064 45.034 22.789 44.7379 22.983C44.6366 23.0498 44.5502 23.1361 44.4838 23.2367C44.4174 23.3372 44.3724 23.45 44.3516 23.5681C44.3199 23.7537 43.5164 28.1163 39.8622 28.1163C36.208 28.1163 35.4046 23.7537 35.3729 23.57ZM34.4898 32.5172C35.8749 32.5172 36.8671 31.4468 37.4571 29.3564C38.211 29.699 39.0317 29.8764 39.8622 29.8764C40.6928 29.8764 41.5135 29.699 42.2674 29.3564C42.8574 31.4468 43.8496 32.5172 45.2347 32.5172C47.1411 32.5172 48.4223 34.2141 48.739 36.0382H30.9854C31.3022 34.2141 32.5833 32.5172 34.4898 32.5172ZM19.2552 28.8513C19.2351 28.7327 19.1905 28.6194 19.1242 28.5184C19.0579 28.4174 18.9712 28.3308 18.8696 28.2639C18.5732 28.0702 18.076 27.6876 18.0744 27.3041C18.0744 26.8805 18.6112 26.3812 18.8696 26.208C18.9922 26.1275 19.0927 26.0186 19.1622 25.8908C19.2317 25.763 19.268 25.6203 19.268 25.4753C19.268 23.0449 21.2725 21.0747 23.7449 21.0747C26.2176 21.0747 28.2218 23.0449 28.2218 25.4753C28.2225 25.6193 28.2588 25.761 28.3276 25.8881C28.3964 26.0153 28.4956 26.1241 28.6166 26.2051C28.8779 26.3812 29.4183 26.8805 29.4154 27.3041C29.4154 27.6876 28.9166 28.0702 28.6202 28.2639C28.519 28.3308 28.4326 28.4172 28.3663 28.5179C28.3 28.6186 28.2552 28.7314 28.2346 28.8496C28.2022 29.0353 27.3987 33.3973 23.7449 33.3973C20.0907 33.3973 19.2876 29.0353 19.2552 28.8513ZM14.8678 41.3194C15.1845 39.4957 16.4661 37.7985 18.3724 37.7985C19.7579 37.7985 20.7498 36.728 21.3401 34.6376C22.0939 34.9802 22.9144 35.1576 23.7449 35.1576C24.5754 35.1576 25.3959 34.9802 26.1497 34.6376C26.74 36.728 27.7323 37.7985 29.1173 37.7985C31.0235 37.7985 32.3053 39.4957 32.622 41.3194H14.8678ZM47.1024 41.3194C47.4192 39.4957 48.701 37.7985 50.6071 37.7985C51.9922 37.7985 52.9844 36.728 53.5747 34.6376C54.3285 34.9802 55.1491 35.1576 55.9796 35.1576C56.81 35.1576 57.6306 34.9802 58.3844 34.6376C58.9747 36.728 59.9666 37.7985 61.352 37.7985C63.2584 37.7985 64.54 39.4957 64.8567 41.3194H47.1024Z" fill="#7A55F6"/>
<path d="M31.6247 62.9721C32.6806 64.035 33.9378 64.8847 35.3255 65.4732C36.7585 66.0795 38.3023 66.3921 39.8624 66.3921C41.4226 66.3921 42.9663 66.0795 44.3994 65.4732C45.787 64.8846 47.0442 64.035 48.1002 62.972C49.1641 61.9056 50.0095 60.648 50.5903 59.2677C51.8075 56.3641 51.8075 53.1052 50.5903 50.2016C50.0093 48.8223 49.1639 47.5656 48.1002 46.5002C45.936 44.3143 42.9651 43.0811 39.8624 43.0811C36.7598 43.0811 33.7889 44.3143 31.6247 46.5002C30.5602 47.5681 29.7147 48.8275 29.1346 50.2097C27.9174 53.1132 27.9174 56.372 29.1346 59.2755C29.7164 60.653 30.5617 61.9079 31.6247 62.9721ZM30.7892 50.8776C31.2816 49.7046 31.9997 48.6362 32.9042 47.7309C33.798 46.8303 34.8628 46.1108 36.0383 45.6131C37.2472 45.1016 38.5494 44.8378 39.8655 44.8378C41.1816 44.8378 42.4839 45.1016 43.6927 45.6131C44.8683 46.1102 45.9332 46.8294 46.8269 47.7299C47.731 48.6355 48.4491 49.7041 48.9419 50.8769C49.9771 53.3481 49.9771 56.1213 48.9419 58.5925C48.4474 59.7661 47.7271 60.8349 46.8206 61.7401C44.9939 63.5885 42.484 64.6312 39.8624 64.6312C37.2408 64.6312 34.731 63.5885 32.9043 61.7401C32.0001 60.835 31.282 59.7669 30.7892 58.5945C29.7543 56.1231 29.7543 53.3499 30.7892 50.8785V50.8776Z" fill="#7A55F6"/>
<path d="M37.3281 54.8011C37.6606 55.1285 38.0557 55.388 38.4906 55.5647C38.9255 55.7415 39.3916 55.8319 39.8622 55.831C40.7154 55.8287 41.4522 56.4197 41.6214 57.2419C41.791 58.0639 41.3469 58.8894 40.56 59.2147C40.2309 59.3524 39.8673 59.3901 39.5162 59.323C39.165 59.2558 38.8424 59.0868 38.5898 58.8378C38.4268 58.6775 38.2969 58.4876 38.2075 58.2786C38.1464 58.1362 38.0482 58.0122 37.9229 57.9189C37.7976 57.8257 37.6495 57.7665 37.4935 57.7473C37.3375 57.7281 37.1791 57.7496 37.0343 57.8097C36.8895 57.8697 36.7632 57.9662 36.6683 58.0894C36.5735 58.2126 36.5132 58.3582 36.4937 58.5115C36.4742 58.6648 36.4961 58.8205 36.5572 58.9629C36.9199 59.8071 37.6031 60.479 38.4616 60.8361C38.6246 60.8986 38.7919 60.9493 38.9624 60.9879V62.4442C38.9624 62.93 39.3635 63.3242 39.8576 63.3242C40.3524 63.3242 40.7534 62.93 40.7534 62.4442V60.9879C40.9232 60.9497 41.0899 60.8989 41.2519 60.836C41.9012 60.567 42.4554 60.1156 42.845 59.5385C43.2347 58.9614 43.4426 58.2841 43.4426 57.5914C43.4425 56.6578 43.0653 55.7625 42.3939 55.1022C41.7225 54.4419 40.8119 54.0708 39.8622 54.0704C39.6221 54.0714 39.3843 54.0247 39.1631 53.9331C38.8386 53.7986 38.5618 53.5727 38.3676 53.2839C38.1733 52.9951 38.0703 52.6563 38.0715 52.3101C38.0701 52.0792 38.1154 51.8502 38.2046 51.6365C38.2938 51.4229 38.4252 51.2287 38.5912 51.0652C38.757 50.9015 38.9541 50.7717 39.1712 50.6833C39.3882 50.5948 39.621 50.5494 39.856 50.5498H39.8684C40.2193 50.5497 40.5625 50.6513 40.8549 50.842C41.1473 51.0327 41.3759 51.304 41.5122 51.6219C41.5732 51.7643 41.6713 51.8885 41.7967 51.9818C41.922 52.0752 42.0701 52.1344 42.2261 52.1536C42.3821 52.1728 42.5405 52.1513 42.6854 52.0913C42.8303 52.0312 42.9565 51.9347 43.0514 51.8115C43.1463 51.6882 43.2065 51.5426 43.226 51.3893C43.2455 51.236 43.2236 51.0803 43.1625 50.9379C42.7998 50.0936 42.1163 49.4217 41.2574 49.0651C41.0948 49.0033 40.9277 48.9532 40.7577 48.9152V47.4807C40.7577 46.9944 40.3567 46.6001 39.8622 46.6001C39.3677 46.6001 38.9667 46.9944 38.9667 47.4807V48.9152C38.7966 48.9539 38.6296 49.0045 38.4669 49.0667C37.926 49.2911 37.4495 49.6427 37.0793 50.0907C36.7091 50.5388 36.4567 51.0693 36.3442 51.6358C36.2317 52.2023 36.2626 52.7872 36.4342 53.3392C36.6057 53.8912 36.9128 54.3932 37.3281 54.8011Z" fill="#7A55F6"/>
</g>
<defs>
<clipPath id="clip0_42_21">
<rect width="54" height="52" fill="white" transform="translate(13 14)"/>
</clipPath>
</defs>
</svg>
