<?xml version="1.0" encoding="utf-8"?>
<!-- Generator: Adobe Illustrator 22.1.0, SVG Export Plug-In . SVG Version: 6.00 Build 0)  -->
<svg version="1.1" id="Слой_1" xmlns="http://www.w3.org/2000/svg" xmlns:xlink="http://www.w3.org/1999/xlink" x="0px" y="0px"
	 viewBox="0 0 316.2 116" style="enable-background:new 0 0 316.2 116;" xml:space="preserve">
<style type="text/css">
	.st0{fill:#333333;}
	.st1{fill:#333333;}
</style>
<g id="Слой_1_1_">
</g>
<g id="Слой_2_1_">
	<g>
		<path class="st0" d="M71.7,34.8L40.6,65.9v23.6h14.9c16.4,0,29.7-13.3,29.7-29.7C85.2,49.3,79.8,40.1,71.7,34.8z M269.6,46.1
			l-35,35l-2.5,8.4h50.6L269.6,46.1z M97.7,89.5h40.4V74.6h-25.6v-7.4h13.7V52.3h-13.7v-7.4h25.6V30H97.7V89.5z M234.5,30h-50.6
			v14.9h17.8v44.6h14.9V44.9h17.8V30H234.5z M154.8,89.5h14.9V50.9l-14.9,14.9V89.5z"/>
	</g>
</g>
<g id="Слой_3">
	<path class="st1" d="M154.8,44.9V30h14.9L154.8,44.9z"/>
	<path class="st1" d="M40.6,44.9V30h14.9L40.6,44.9z"/>
	<path class="st1" d="M249.9,44.9V30h14.9L249.9,44.9z"/>
</g>
</svg>
