<svg width="110" height="32" viewBox="0 0 110 32" fill="none" xmlns="http://www.w3.org/2000/svg">
<g clip-path="url(#clip0_1_38)">
<path d="M10.8555 0.191406H8.25098C7.97168 0.191406 7.74414 0.418457 7.74414 0.698242V3.20312L3.61914 10.3394V0.698242C3.61914 0.418457 3.39258 0.191406 3.1123 0.191406H0.506836C0.226562 0.191406 0 0.418457 0 0.698242V31.4854C0 31.7646 0.226562 31.9922 0.506836 31.9922H3.1123C3.39258 31.9922 3.61914 31.7646 3.61914 31.4854V20.0889L7.74414 12.9414V31.4854C7.74414 31.7646 7.97168 31.9922 8.25098 31.9922H10.8555C11.1357 31.9922 11.3633 31.7646 11.3633 31.4854V0.698242C11.3633 0.418457 11.1357 0.191406 10.8555 0.191406Z" fill="#333333"/>
<path d="M93.9375 0H91.332C91.0527 0 90.8252 0.226562 90.8252 0.506836V3.01123L86.6992 10.1479V0.506836C86.6992 0.226562 86.4727 0 86.1934 0H83.5879C83.3076 0 83.0801 0.226562 83.0801 0.506836V31.2939C83.0801 31.5732 83.3076 31.8008 83.5879 31.8008H86.1934C86.4727 31.8008 86.6992 31.5732 86.6992 31.2939V19.8975L90.8252 12.75V31.2939C90.8252 31.5732 91.0527 31.8008 91.332 31.8008H93.9375C94.2168 31.8008 94.4434 31.5732 94.4434 31.2939V0.506836C94.4434 0.226562 94.2168 0 93.9375 0Z" fill="#333333"/>
<path d="M35.2148 26.2334H32.5156C32.3164 26.2334 32.1543 26.0713 32.1543 25.8721V20.2363C32.5898 19.4834 33.0986 18.6045 33.6152 17.7119L35.6514 21.2383C35.6514 21.2383 36.1309 21.9463 36.1309 22.8555V25.5156C36.0732 25.7705 35.8779 26.2334 35.2148 26.2334ZM34.8438 6.61426C35.748 6.62207 35.8125 7.52637 35.6523 7.89893C35.5537 8.12842 33.8398 11.2808 32.1543 14.3286V6.97608C32.1543 6.77637 32.3164 6.61426 32.5156 6.61426H34.8438ZM35.2852 14.8164C35.7754 13.9683 36.1875 13.25 36.4414 12.8062C37.5889 10.7935 38.6748 9.15527 38.6748 7.45313V3.2832C38.6367 1.05859 36.4629 0.0732431 35.377 0.10254C35.1709 0.10254 30.5898 0.0976571 29.041 0.0961922C28.7617 0.0957039 28.5361 0.322755 28.5361 0.60254V31.3887C28.5361 31.6689 28.7617 31.8955 29.042 31.8955C30.7344 31.8916 36.1152 31.8818 36.4521 31.8818C37.5371 31.9111 39.7109 30.9268 39.75 28.7022V28.5459V25.376V23.6133C39.75 22.5205 39.3047 21.7783 39.3047 21.7783L35.2852 14.8164Z" fill="#333333"/>
<path d="M101.365 7.99414C101.206 7.62207 101.27 6.71777 102.174 6.71045H105.162C105.443 6.71045 105.67 6.93701 105.67 7.2168V15.8755C103.771 12.4673 101.48 8.26172 101.365 7.99414ZM101.641 0.198243C100.556 0.168946 98.3818 1.1543 98.3438 3.37891V7.54883C98.3438 9.25098 99.4297 10.8892 100.577 12.9019C100.774 13.248 101.07 13.7632 101.422 14.3745L98.959 18.6406C98.959 18.6406 98.5146 19.3818 98.5146 20.4756C98.5146 21.4287 98.5166 29.2939 98.5175 31.4873C98.5175 31.7676 98.7441 31.9932 99.0234 31.9932H101.629C101.908 31.9932 102.135 31.7666 102.135 31.4873C102.135 29.2529 102.134 21.1436 102.134 20.9932C102.134 20.085 102.613 19.377 102.613 19.377L103.462 17.9072C104.33 19.4111 105.17 20.8604 105.67 21.7236V31.4854C105.67 31.7647 105.896 31.9922 106.176 31.9922H108.926C109.125 31.9922 109.287 31.8301 109.287 31.6299V0.553712C109.287 0.353517 109.127 0.191407 108.927 0.191896C107.447 0.192872 101.9 0.198243 101.641 0.198243Z" fill="#333333"/>
<path d="M67.7266 26.749C67.7618 26.5283 67.5918 26.3291 67.3692 26.3291H61.3555C60.795 26.3291 60.3418 25.876 60.3418 25.3164L60.3359 7.73192C60.3359 7.17186 60.79 6.71776 61.3496 6.71776H65.9102C66.1328 6.71776 66.3027 6.51903 66.2676 6.29882L65.3653 0.685535C65.3203 0.404773 65.0782 0.19823 64.793 0.19823H60.3086C59.3282 0.130359 56.7051 0.734363 56.7285 3.80321V28.3848C56.7051 31.4756 59.3682 32.0664 60.3301 31.9883V31.9854H66.3907C66.6758 31.9854 66.918 31.7783 66.9629 31.4981L67.7266 26.749Z" fill="#333333"/>
<path d="M14.6699 26.3291C14.4472 26.3291 14.2773 26.5283 14.3135 26.749L15.0742 31.4854C15.1191 31.7666 15.3613 31.9737 15.6465 31.9737H21.3828C22.3633 32.041 24.9853 31.4365 24.9629 28.3682V23.8447H24.9649V18.3721C24.9649 14.1919 22.1016 13.9942 22.1016 13.9942H22.0948C22.5351 13.231 22.9375 12.5371 23.125 12.2071C24.2724 10.1944 24.9531 9.251 24.9531 7.54885V3.37893C24.914 1.15432 22.7402 0.162129 21.6543 0.191425H16.1279C15.8437 0.191425 15.6015 0.397968 15.5566 0.678242L14.6543 6.29103C14.6191 6.51076 14.789 6.71047 15.0117 6.71047H20.4492C20.8076 6.69875 21.2529 6.88771 21.3603 7.46584L21.3613 7.9175C21.3613 7.9175 21.3105 9.62795 20.5097 10.9307C19.9951 11.7686 18.6299 13.9942 18.6299 13.9942H17.3261C17.0781 13.9942 16.8662 14.1743 16.8261 14.4204L16.3906 17.1299C16.3554 17.3496 16.5254 17.5498 16.748 17.5498H18.709C19.4179 17.5498 19.7539 17.5459 19.8554 17.5498C20.3955 17.5684 21.3652 17.8506 21.3652 19.2647V20.8037H21.3632C21.3603 22.1768 21.3583 23.7529 21.3573 25.3174C21.3573 25.877 20.9022 26.3291 20.3436 26.3291H14.6699Z" fill="#333333"/>
<path d="M53.3809 26.3291H47.0762V17.5176H50.0273C50.25 17.5176 50.4199 17.3184 50.3848 17.0977L49.9492 14.3862C49.9033 14.105 49.6611 13.8989 49.377 13.8989H47.0762V6.71045H53.4512C53.6738 6.71045 53.8437 6.51074 53.8086 6.29102L52.9082 0.684082C52.8633 0.403808 52.6211 0.197265 52.3369 0.197265L43.8203 0.191406C43.6201 0.191406 43.458 0.353516 43.458 0.553711V31.6299C43.458 31.8301 43.6201 31.9912 43.8203 31.9912L52.4023 31.9853C52.6875 31.9853 52.9297 31.7793 52.9746 31.499L53.7373 26.749C53.7734 26.5283 53.6035 26.3291 53.3809 26.3291Z" fill="#333333"/>
<path d="M80.4531 6.27588L79.5556 0.685059C79.5097 0.404297 79.2676 0.198242 78.9844 0.198242H69.3252C69.041 0.198242 68.7988 0.404785 68.7539 0.685059L67.8555 6.27588C67.8203 6.49561 67.9902 6.69482 68.2129 6.69482L72.334 6.69873V31.4932C72.334 31.7734 72.5605 32 72.8408 32H75.4463C75.7265 32 75.9531 31.7734 75.9531 31.4932C75.9531 31.4932 75.9541 14.0547 75.9551 6.69482H80.0967C80.3194 6.69482 80.4892 6.49561 80.4531 6.27588Z" fill="#333333"/>
</g>
<defs>
<clipPath id="clip0_1_38">
<rect width="109.287" height="32" fill="white"/>
</clipPath>
</defs>
</svg>
