<svg width="500" height="70" viewBox="0 0 500 70" fill="none" xmlns="http://www.w3.org/2000/svg">
<path d="M497.953 9.86445C497.954 6.45218 495.184 3.6838 491.773 3.6838C488.383 3.68422 485.593 6.47458 485.593 9.86403C485.593 13.2539 488.384 16.0426 491.773 16.0434C495.165 16.0447 497.951 13.2547 497.953 9.86445ZM484.546 9.86403C484.546 5.89791 487.806 2.63657 491.773 2.63657C495.758 2.63657 498.999 5.87635 499 9.86234C499.001 13.8276 495.738 17.0894 491.774 17.0907C487.807 17.0919 484.546 13.8302 484.546 9.86403Z" fill="#333333"/>
<path fill-rule="evenodd" clip-rule="evenodd" d="M491.56 4.55431C491.75 6.32534 493.176 5.31912 493.791 4.82447C494.016 4.64648 494.291 4.31882 494.441 4.22665C494.538 4.16915 494.682 4.20975 494.74 4.33023C494.797 4.50822 494.821 4.73272 494.711 5.06038C494.579 5.44553 494.355 5.81927 494.229 6.02052C493.901 6.54942 493.579 7.0149 493.194 7.50364C492.567 8.28579 491.774 8.90643 491.118 9.67124C490.112 10.844 489.543 12.6552 489.853 14.1844C489.934 14.5751 490.118 15.0698 490.492 15.2765C492.711 16.5072 494.338 11.2292 493.585 9.67124C493.481 9.47 493.274 9.10767 492.998 9.15968C491.607 9.41842 490.963 13.9371 491.831 14.2648C491.789 14.7996 490.94 15.1272 490.693 14.1384C490.612 13.7934 490.595 13.431 490.607 13.0746C490.649 11.5683 491.854 9.29159 493.234 8.59611C493.861 8.27395 494.746 8.27987 495.097 8.9986C496.333 11.5569 492.993 16.2827 490.101 15.8515C488.704 15.6388 488.198 14.2994 488.307 13.0286C488.393 11.9826 488.83 10.9878 489.434 10.1367C490.653 8.42361 492.573 7.92346 493.504 6.57817C493.504 6.57817 493.54 6.52659 493.546 6.49784C493.56 6.45556 493.511 6.40567 493.448 6.45556C493.345 6.54773 492.81 6.8238 492.436 6.86946C491.683 6.95571 491.275 5.92666 491.149 5.35759C491.12 5.23118 491.113 5.13352 490.993 5.29418C490.626 5.7715 490.344 8.43925 489.97 8.5885L488.51 9.1694C488.51 9.1694 488.447 9.19898 488.423 9.1119C488.257 8.49083 489.763 6.33507 490.183 5.61042C490.24 5.51867 490.585 4.84603 490.649 4.79402C490.758 4.70228 491.422 4.53148 491.56 4.55431Z" fill="#333333"/>
<path d="M54.2427 55.2459H34.1313L21.814 34.823L17.8119 38.987V55.2459H1V3.86391H17.8119V20.4475L32.2271 3.86391H51.9449L33.4574 23.0282L54.2427 55.2459ZM76.7529 36.1839C76.7529 33.8345 76.2016 31.7041 75.0977 29.8173C73.9942 27.9304 72.2908 26.9808 69.9638 26.9808C67.8884 26.9808 66.3173 27.9304 65.2616 29.8295C64.206 31.7405 63.6783 33.859 63.6783 36.1839C63.6783 38.6796 64.2419 41.0413 65.3699 43.2448C66.4852 45.4602 68.2123 46.5679 70.5274 46.5679C72.7589 46.5679 74.354 45.4966 75.3137 43.3421C76.2734 41.1876 76.7529 38.8014 76.7529 36.1839ZM88.4132 47.7606C84.4407 53.6512 77.6318 56.4077 70.5896 56.4077C63.3321 56.4077 56.3371 53.6744 52.281 47.5496C48.5605 41.9308 48.0844 32.7691 51.2185 26.7741C53.6296 22.1602 58.049 18.8253 63.116 17.4703C68.6972 15.9212 74.7379 16.2561 80.0962 18.4664C85.1071 20.5253 88.8347 24.7616 90.4578 29.7974C92.2301 35.2957 91.5976 43.0377 88.4132 47.7606ZM218.698 32.4148C218.172 29.9678 217.307 28.2716 216.114 27.3262C214.91 26.3669 213.39 25.8943 211.531 25.8943C209.73 25.8943 208.304 26.3534 207.251 27.2844C206.199 28.2022 205.404 29.9124 204.854 32.4148H218.698ZM233.08 39.6715H205C205 40.8282 205.198 41.8433 205.596 42.7278C206.804 45.4179 208.99 47.2338 212.12 47.2338C214.419 47.2338 217.07 46.3083 217.564 43.8118H231.945C231.399 47.3543 229.138 50.4799 226.228 52.5338C223.292 54.5995 219.686 55.7503 216.126 56.1566C211.56 56.7176 206.277 56.565 202.048 54.7995C197.129 52.7549 193.455 48.9748 191.455 44.0967C189.618 39.3421 189.593 34.0683 191.373 29.2757C193.221 24.3037 197.023 20.4585 201.955 18.4195C207.952 15.9504 216.348 16.1178 222.147 19.0092C227.293 21.5654 230.802 25.923 232.261 31.423C232.981 34.1897 233.255 36.8405 233.08 39.6715ZM273.36 47.832C270.597 53.0986 265.495 56.3883 259.344 56.3883C254.927 56.3883 252.021 54.9525 249.036 51.8886V68H234.055V17.9328H247.32V23.5153C250.197 17.7819 257.319 15.6989 263.064 17.1452C269.324 18.7065 273.54 23.9697 275.04 29.8853C276.444 35.3836 275.957 42.9201 273.36 47.832ZM261.158 35.6584C261.158 34.0759 260.633 32.3484 259.571 30.4878C258.509 28.6275 256.969 27.6974 254.965 27.6974C252.972 27.6974 251.433 28.5671 250.359 30.3187C249.284 32.0584 248.748 33.8341 248.748 35.6584C248.748 37.8937 249.165 39.9835 250.001 41.9164C250.847 43.8494 252.495 44.8159 254.965 44.8159C257.375 44.8159 258.998 43.813 259.869 41.8078C260.658 39.8723 261.158 37.7558 261.158 35.6584ZM308.039 54.8164C302.218 56.855 294.306 57.1679 288.51 54.7563C284.861 53.2381 281.626 50.6761 279.583 47.2693C277.586 43.9974 276.549 40.2279 276.549 36.3907C276.549 33.835 277.087 31.3236 277.99 28.9391C280.084 23.5774 283.704 20.5008 288.932 18.3696C294.914 15.9301 303.8 16.0189 309.48 19.1099C314.894 22.0558 317.727 26.1128 318.472 32.0918H303.142C302.873 30.2527 302.354 29.1159 301.596 28.146C299.449 25.3971 294.589 26.7402 293.038 29.4528C291.059 32.9141 290.732 38.0268 291.983 41.8209C292.809 44.3216 295.525 46.4419 298.164 46.4419C301.904 46.4419 302.681 43.923 303.658 40.7918H318.472C318.316 47.0524 314.573 52.5274 308.039 54.8164ZM345.798 40.5737C345.798 39.879 345.735 39.3087 345.609 38.8745C344.582 39.4449 342.977 39.9412 340.796 40.3627C339.134 40.6663 337.367 41.0375 335.882 41.8513C333.776 42.8926 333.89 45.8788 335.731 47.0849C337.862 48.3668 341.436 48.2611 343.228 46.4652C344.933 44.84 345.798 42.8808 345.798 40.5737ZM362.465 55.2459H347.131L346.548 51.2937C345.429 52.7384 342.932 53.9285 340.41 54.8997C339.18 55.3732 337.917 55.7478 336.623 55.9862C335.33 56.2132 333.955 56.3329 332.522 56.3329C329.936 56.3329 327.57 55.8792 325.427 54.9715C323.283 54.0638 321.664 52.6428 320.545 50.7323C319.543 48.6306 319.042 46.5049 319.042 44.3318C319.042 41.585 320.321 39.3201 322.08 37.2899C323.082 36.1319 324.064 35.4813 325.834 34.801C326.673 34.4788 327.503 34.199 328.316 33.9652C329.122 33.7335 329.885 33.5128 330.611 33.4037L336.891 32.4605C339.557 32.0601 342.135 31.7147 343.274 31.338C343.975 31.1059 344.802 30.3483 345.21 29.8705C345.618 29.3932 345.557 28.8914 345.557 28.3781C345.557 27.6733 345.22 27.0882 344.532 26.6109C343.845 26.1331 342.866 25.8942 341.596 25.8942C340.07 25.8942 338.173 26.1213 337.252 26.5749C336.332 27.0286 335.738 27.9363 335.458 29.2854H321.254C321.732 26.8375 321.645 25.4085 322.339 23.9135C323.031 22.4232 324.122 21.1434 325.613 20.0806C327.104 19.0181 329.152 18.192 331.776 17.6445C333.044 17.3803 334.55 17.1959 336.262 17.0594C337.987 16.9215 339.897 16.8446 342.018 16.8446C347.179 16.8446 351.045 17.4585 353.622 18.6833C356.194 19.9064 357.872 20.8919 358.655 22.7297C359.434 24.5578 359.96 26.933 360.205 29.8468V49.5739C360.205 51.6041 360.962 53.1087 362.465 54.0879V55.2459ZM404.134 55.2459H389.342V41.3004H378.387V55.2459H363.737L363.723 18.5146L363.737 17.9531H378.387V30.4489H389.177V17.9531H404.134L404.12 54.5775L404.134 55.2459ZM445.237 28.9442H432.5V55.2459H417.662V28.9442H404.817V17.9531H445.237V28.9442ZM493.285 43.312C493.285 46.5878 491.724 49.4656 489.217 51.5182C485.919 54.246 481.358 55.2459 477.17 55.2459H454.273V28.9442H445.72V17.9531H468.55V31.042H476.359C480.707 31.042 485.527 31.8923 488.973 34.7477C491.564 36.8942 493.285 39.8964 493.285 43.312ZM478.537 43.3501C478.537 40.9939 477.233 40.0055 474.992 39.737C474.537 39.737 473.636 39.6989 472.303 39.6419C470.97 39.5823 469.183 39.5586 468.55 39.5586V46.7611L472.259 46.8325C473.27 46.8538 474.104 46.8113 474.748 46.7611C477.026 46.592 478.537 45.973 478.537 43.3501ZM120.139 55.2455H112.949L105.093 30.333L106.307 40.0976V55.2455H93.1877V17.7379H110.013L116.544 38.4564L123.076 17.7379H139.901V55.2455H126.782V40.0976L127.995 30.333L120.139 55.2455ZM169.268 55.2455H162.078L154.222 30.333L155.436 40.0976V55.2455H142.316V17.7379H159.142L165.673 38.4564L172.205 17.7379H189.03V55.2455H175.911V40.0976L177.124 30.333L169.268 55.2455Z" fill="#333333"/>
</svg>
