<svg width="434" height="91" viewBox="0 0 434 91" fill="none" xmlns="http://www.w3.org/2000/svg">
<path d="M46.0948 22.9123C46.2661 20.6128 46.9925 18.3878 48.2128 16.4246C48.5351 15.8847 48.8929 15.4088 49.2347 14.8689C52.2973 15.5282 55.2624 16.5727 58.0578 17.977C57.0318 19.3024 56.3519 20.8583 56.0785 22.5066C55.8026 24.3083 56.014 26.1501 56.691 27.8444C57.4162 29.4904 58.4865 30.9648 59.8308 32.1696C61.1182 33.3353 62.5661 34.314 64.1311 35.0764C67.1625 36.5477 70.4446 37.4448 73.8085 37.7214C74.4887 37.7885 75.1722 37.7885 75.8556 37.7885C75.991 38.1941 76.1973 38.6669 76.3327 39.1397C75.0641 39.2986 73.7878 39.3892 72.5094 39.4112C67.732 39.5454 62.8868 38.9384 58.4511 37.3828C54.0121 35.7505 49.9181 33.1151 47.7421 29.2627C46.5257 27.3733 45.9487 25.1488 46.0948 22.9123ZM70.5946 55.1466C62.8159 54.7409 55.034 53.1214 47.9355 49.8088C44.3207 48.1879 40.9638 46.0528 37.9712 43.4712C34.97 40.8199 32.375 37.6447 30.805 33.9265C29.1741 30.2105 28.6301 26.115 29.2351 22.1073C29.5951 19.834 30.2846 17.6241 31.2821 15.5461C26.984 16.7465 22.9542 18.743 19.4062 21.4301C19.3385 21.9732 19.2708 22.5801 19.2031 23.12C18.8619 27.5277 19.8099 31.9394 21.9336 35.8271C23.9806 39.6731 27.1107 43.0496 30.6568 45.7552C34.2937 48.4506 38.2904 50.6329 42.5327 52.2397C51.0657 55.5523 60.3466 56.9035 69.563 56.8364C72.2311 56.8142 74.8962 56.6564 77.548 56.3637C77.6157 55.958 77.6866 55.5523 77.7543 55.0859C75.3734 55.2764 72.9817 55.2967 70.5978 55.1466H70.5946ZM41.1111 39.6731C43.8695 41.7401 46.9012 43.4222 50.1212 44.6723C56.6071 47.1735 63.7056 48.2532 70.7525 48.119C73.171 48.0989 75.5862 47.9411 77.9864 47.6463C78.002 47.4636 77.979 47.2797 77.9187 47.1064C77.9187 46.902 77.851 46.7007 77.851 46.4963C76.0071 46.5644 74.1642 46.5644 72.3224 46.4963C66.7223 46.2095 61.2269 44.8798 56.1236 42.5768C53.5696 41.3786 51.1852 39.8536 49.0316 38.0408C46.8352 36.1373 45.0472 33.8159 43.7738 31.2145C42.5184 28.5362 42.091 25.5497 42.5456 22.6312C42.9882 19.8422 44.1077 17.2015 45.8079 14.936C45.9283 14.7644 46.0666 14.606 46.2205 14.4632C43.5816 14.0681 40.9052 13.978 38.2452 14.1949C37.1524 14.262 36.1305 14.4632 35.1054 14.5974C33.789 17.0513 32.9771 19.7396 32.7167 22.5066C32.3838 25.818 33.049 29.1529 34.6283 32.0897C36.0628 35.0764 38.3935 37.6447 41.1111 39.6731ZM69.4405 63.9503C59.473 63.5446 49.5087 61.5162 40.3599 57.4625C35.7194 55.4501 31.3977 52.7817 27.5298 49.5405C23.6389 46.295 20.2927 42.3756 18.1103 37.7214C16.208 33.6891 15.323 29.2593 15.5314 24.813C11.729 28.6228 8.82678 33.2209 7.03379 38.2761C5.2408 43.3312 4.60169 48.7175 5.16251 54.0469C5.72333 59.3763 7.47012 64.5161 10.277 69.096C13.0839 73.6758 16.8811 77.5817 21.3948 80.5323C25.9086 83.4828 31.0267 85.4045 36.3802 86.1589C41.7338 86.9133 47.1895 86.4817 52.3545 84.895C57.5194 83.3084 62.2649 80.6063 66.249 76.9834C70.2331 73.3605 73.3566 68.9071 75.3946 63.9439C73.4045 64.0056 71.4198 64.0024 69.4405 63.9343V63.9503ZM60.4981 19.3282C59.8935 20.4047 59.5617 21.6105 59.531 22.842C59.5253 23.9517 59.8628 25.0364 60.4981 25.9502C61.7263 27.8412 63.9119 29.1253 66.3007 29.8696C68.2476 30.4499 70.2735 30.728 72.3063 30.6938C69.2403 26.1084 65.2127 22.2318 60.4981 19.3282Z" fill="#333333"/>
<path d="M243.856 63.8193C241.404 62.5607 239.365 60.6347 237.98 58.2675C236.549 55.8711 235.816 53.1292 235.862 50.3455C235.816 47.5617 236.549 44.8199 237.98 42.4235C239.403 40.0872 241.433 38.1713 243.856 36.8749C246.462 35.4998 249.376 34.8019 252.328 34.8464C255.259 34.7946 258.154 35.4944 260.732 36.8781C263.169 38.1557 265.201 40.0759 266.606 42.4267C268.036 44.826 268.791 47.5618 268.791 50.3487C268.791 53.1356 268.036 55.8714 266.606 58.2707C265.182 60.607 263.154 62.5238 260.732 63.8225C258.151 65.1984 255.258 65.8978 252.328 65.8541C249.383 65.8365 246.483 65.1399 243.856 63.8193ZM257.109 58.6732C258.515 57.8683 259.673 56.6988 260.458 55.2904C261.265 53.7658 261.686 52.0701 261.686 50.3487C261.686 48.6273 261.265 46.9315 260.458 45.407C259.672 43.998 258.515 42.8275 257.109 42.021C255.619 41.2222 253.952 40.8039 252.259 40.8039C250.565 40.8039 248.898 41.2222 247.409 42.021C246.005 42.8281 244.849 43.9972 244.063 45.4038C243.255 46.9287 242.833 48.625 242.833 50.3471C242.833 52.0691 243.255 53.7654 244.063 55.2904C244.848 56.6993 246.006 57.8698 247.412 58.6764C248.888 59.4953 250.556 59.916 252.247 59.8966C253.949 59.9282 255.628 59.5056 257.109 58.6732ZM118.211 40.4653C117.186 38.8394 115.684 37.6223 113.698 36.7407C111.712 35.8591 109.391 35.463 106.729 35.463H93.6857V65.2504H100.655V56.9802H106.735C109.398 56.9802 111.722 56.5745 113.705 55.7024C115.546 54.9291 117.116 53.6345 118.218 51.981C119.277 50.2491 119.823 48.2562 119.791 46.2312C119.834 44.1977 119.286 42.1948 118.211 40.4621V40.4653ZM112.815 46.2886C112.815 47.9114 112.27 49.1987 111.174 50.0772C110.078 50.9556 108.444 51.4316 106.393 51.4316H100.723V41.0723H106.393C108.511 41.0723 110.081 41.545 111.174 42.4235C112.267 43.3019 112.815 44.5924 112.815 46.2855V46.2886ZM130.509 35.4534H123.611V65.3079H130.168L144.516 45.8766V65.3079H151.418V35.4534H144.858L130.509 54.8815V35.4534ZM178.062 58.8776H164.055L161.392 65.3079H154.219L167.678 35.4534H174.577L188.039 65.3079H180.727L178.062 58.8776ZM175.805 53.6644L171.024 42.2222L166.244 53.6644H175.805ZM229.298 65.3079V35.4534H222.335V47.231H208.67V35.4534H201.701V65.3079H208.67V53.0543H222.335V65.3079H229.298ZM301.788 56.9131C301.788 55.0859 301.311 53.5942 300.354 52.3771C299.26 51.1062 297.809 50.1866 296.186 49.7354C297.476 49.19 298.57 48.2719 299.326 47.1009C300.082 45.9299 300.463 44.5603 300.422 43.171C300.422 40.7337 299.455 38.8362 297.485 37.4818C295.515 36.1274 292.775 35.4534 289.29 35.4534H275.284V65.3079H290.112C293.871 65.3079 296.74 64.5636 298.79 63.0718C300.767 61.6503 301.792 59.5548 301.792 56.9131H301.788ZM288.671 47.774H282.182V40.4621H288.675C290.177 40.4621 291.27 40.8007 292.092 41.4204C292.473 41.7596 292.775 42.1777 292.976 42.6453C293.176 43.1128 293.271 43.6184 293.252 44.1261C293.252 45.3463 292.843 46.2248 292.092 46.8349C291.341 47.445 290.177 47.774 288.675 47.774H288.671ZM289.832 52.5656C293.11 52.5656 294.751 53.7858 294.751 56.2902C294.751 58.8649 293.111 60.1511 289.832 60.149H282.182V52.5783L289.832 52.5656ZM314.293 63.8065C311.841 62.548 309.802 60.6219 308.416 58.2547C306.986 55.8583 306.253 53.1165 306.298 50.3327C306.253 47.549 306.986 44.8071 308.416 42.4107C309.839 40.0737 311.869 38.1577 314.293 36.8621C316.9 35.4913 319.814 34.7978 322.765 34.8464C325.696 34.7942 328.591 35.494 331.169 36.8781C333.606 38.1556 335.64 40.0758 337.045 42.4267C338.476 44.826 339.231 47.5618 339.231 50.3487C339.231 53.1356 338.476 55.8714 337.045 58.2707C335.622 60.6078 333.593 62.5248 331.169 63.8225C328.588 65.1984 325.695 65.8978 322.765 65.8541C319.822 65.8281 316.924 65.1319 314.296 63.8193L314.293 63.8065ZM327.555 58.6732C328.961 57.8666 330.119 56.6961 330.904 55.2872C331.711 53.7626 332.133 52.0669 332.133 50.3455C332.133 48.6241 331.711 46.9283 330.904 45.4038C330.118 43.9956 328.96 42.8253 327.555 42.0178C326.065 41.219 324.398 40.8007 322.704 40.8007C321.009 40.8007 319.342 41.219 317.852 42.0178C316.448 42.8254 315.291 43.9957 314.506 45.4038C313.699 46.9283 313.277 48.6241 313.277 50.3455C313.277 52.0669 313.699 53.7626 314.506 55.2872C315.29 56.6959 316.447 57.8665 317.852 58.6732C319.328 59.4921 320.996 59.9128 322.687 59.8934C324.391 59.9271 326.072 59.5056 327.555 58.6732ZM345.73 58.3346C347.175 60.6367 349.199 62.5268 351.604 63.8193C354.131 65.1737 356.865 65.7806 360.008 65.7806C362.439 65.8014 364.85 65.3409 367.1 64.4262C369.172 63.5364 371 62.1671 372.428 60.4333L367.915 56.3701C365.865 58.7403 363.338 59.8839 360.33 59.8839C358.589 59.9146 356.87 59.494 355.343 58.6636C353.918 57.8597 352.737 56.69 351.926 55.2776C351.119 53.7531 350.698 52.0573 350.698 50.3359C350.698 48.6145 351.119 46.9187 351.926 45.3942C352.738 43.9825 353.918 42.813 355.343 42.0082C356.87 41.1789 358.589 40.7594 360.33 40.7912C363.338 40.7912 365.865 42.0082 367.915 44.305L372.428 40.2417C370.995 38.5286 369.168 37.1821 367.1 36.3159C364.85 35.4027 362.439 34.9423 360.008 34.9614C356.865 34.9614 354.063 35.5716 351.604 36.926C349.156 38.1583 347.118 40.0608 345.73 42.4075C344.295 44.7106 343.612 47.3524 343.612 50.3295C343.612 53.3067 344.289 56.0315 345.724 58.3346H345.73ZM400.729 41.085H391.093V65.3207H384.195V41.0723H374.62V35.4534H400.732L400.729 41.085ZM413.095 35.4662H406.193V65.3207H412.753L427.098 45.8894V65.3207H434V35.4534H427.44L413.095 54.8815V35.4662Z" fill="#333333"/>
</svg>
