<svg width="73" height="73" viewBox="0 0 73 73" fill="none" xmlns="http://www.w3.org/2000/svg">
<circle cx="36.1292" cy="36.1292" r="36.1292" fill="#7B51F7"/>
<mask id="mask0_1_74" style="mask-type:alpha" maskUnits="userSpaceOnUse" x="0" y="0" width="73" height="73">
<circle cx="36.1292" cy="36.1292" r="36.1292" fill="#D9D9D9"/>
</mask>
<g mask="url(#mask0_1_74)">
<g clip-path="url(#clip0_1_74)">
<path d="M28.0239 53.3872C28.0239 53.3872 29.9104 58.2068 28.0239 58.7873C28.0239 58.7873 25.8083 60.5915 31.4677 67.3791C34.6706 71.2145 42.9886 74.394 44.1155 74.5202C45.3182 74.659 45.7486 68.237 46.4577 65.2721C46.9008 63.4049 46.0019 61.7773 46.5842 61.0582C46.5842 61.0582 44.1408 59.2287 44.1408 56.6297L28.0239 53.3872Z" fill="#E5E5E5"/>
<path d="M44.1663 74.6455C44.1536 74.6455 44.1283 74.6455 44.1156 74.6455C42.8369 74.5067 34.5569 71.2642 31.3918 67.4665C27.9607 63.3535 27.3783 61.0321 27.5049 59.8083C27.5809 59.0135 27.948 58.7106 27.9607 58.698L27.9734 58.6853L27.9987 58.6727C28.2518 58.5971 28.4418 58.433 28.5685 58.168C29.2267 56.7929 27.9354 53.4622 27.9227 53.4369L27.8467 53.2351L44.2801 56.5406V56.6415C44.2801 59.1523 46.6476 60.9564 46.673 60.9691L46.7743 61.0447L46.6983 61.1456C46.4452 61.4611 46.5212 62.0161 46.6096 62.7101C46.711 63.4418 46.8249 64.3502 46.597 65.3091C46.3692 66.2428 46.1792 67.4918 45.9767 68.8166C45.4069 72.4249 45.0018 74.6455 44.1663 74.6455ZM28.0874 58.8999C28.0114 58.9756 27.6062 59.4549 27.7456 60.578C27.8974 61.7513 28.6825 63.8582 31.5563 67.3151C34.81 71.2136 43.1407 74.2921 44.1283 74.4056C44.3307 74.4309 44.6474 74.1533 45.0018 72.7276C45.2676 71.6427 45.4956 70.1791 45.7107 68.766C45.9134 67.4412 46.1032 66.1796 46.3312 65.2459C46.5463 64.3251 46.4325 63.4418 46.3312 62.7353C46.2425 62.0413 46.1665 61.4737 46.4072 61.0826C45.9641 60.7167 44.0649 59.0512 44.0143 56.7297L28.2014 53.5504C28.4798 54.32 29.3787 56.9947 28.7583 58.2691C28.6191 58.5844 28.3911 58.7989 28.0874 58.8999Z" fill="#333333"/>
<path d="M45.4846 59.96C45.4846 59.96 45.9403 62.0418 45.5732 63.8963C45.2188 65.751 37.1919 62.3571 35.0017 60.8052C32.8114 59.2534 34.5585 65.4987 35.4194 66.1421C35.4194 66.1421 26.747 61.8777 28.0383 58.7993C28.0383 58.7993 29.1019 56.4399 28.4308 54.5728L45.4846 59.96Z" fill="#C49F83"/>
<path d="M52.3188 65.2461C51.9135 64.7668 45.4819 59.9724 45.4819 59.9724C46.8366 65.9778 44.1273 74.532 44.1273 74.532C24.6554 63.4546 28.0232 58.7991 28.0232 58.7991C22.06 61.3476 15.9323 65.4102 15.9323 65.4102C20.6927 64.8677 29.7197 68.6651 29.7197 68.6651C29.5804 69.927 26.7317 73.51 26.7317 73.51C31.3148 75.68 44.2919 75.9956 44.2919 75.9956C49.4448 72.8287 51.6857 70.9236 51.6857 70.9236L50.483 68.3876C51.3186 67.4667 52.3188 65.2461 52.3188 65.2461Z" fill="#444444"/>
<path d="M52.2943 65.2466C52.2816 65.2466 52.2816 65.2466 52.2816 65.2339L52.2563 65.2089C52.2436 65.1962 52.2183 65.1836 52.2056 65.1583C52.1676 65.133 52.1423 65.0951 52.1043 65.0701C52.0409 65.0069 51.9652 64.9565 51.9018 64.8934C51.7625 64.7798 51.6232 64.6663 51.484 64.5654C51.2054 64.3508 50.9143 64.1238 50.6229 63.9093C50.0534 63.4803 49.4709 63.0386 48.8885 62.6098C47.7365 61.7518 46.5716 60.8939 45.4069 60.0487L45.5969 59.9225C45.888 61.1336 46.002 62.3701 46.0147 63.6065C46.04 64.8428 45.9514 66.0794 45.8247 67.3157C45.6854 68.5396 45.4829 69.7633 45.2423 70.9746C44.9891 72.1859 44.7105 73.3843 44.3434 74.5829C44.3054 74.7091 44.1789 74.7721 44.0523 74.7344C44.0396 74.7344 44.0143 74.7217 44.0016 74.7091C43.1407 74.2171 42.2925 73.7251 41.4442 73.2202C40.5958 72.7156 39.7603 72.1859 38.9374 71.6559C37.2789 70.5835 35.6582 69.448 34.1265 68.2115C33.354 67.5933 32.6071 66.9499 31.8856 66.2685C31.1638 65.5873 30.4802 64.8807 29.8345 64.1238C29.518 63.7453 29.214 63.3541 28.9356 62.9378C28.7962 62.736 28.6698 62.5214 28.5431 62.3069C28.4165 62.0925 28.3025 61.8653 28.2013 61.6509C27.9987 61.1968 27.834 60.7172 27.7582 60.2252C27.7202 59.9729 27.7076 59.7205 27.7329 59.4682C27.7456 59.342 27.7709 59.2159 27.8087 59.0897C27.8213 59.0267 27.8467 58.9636 27.872 58.9004C27.8847 58.8753 27.8973 58.8374 27.91 58.8121C27.9227 58.7869 27.9353 58.7491 27.9607 58.7239L28.062 58.85C27.0111 59.3041 25.9603 59.7837 24.9348 60.301C23.9093 60.8183 22.8965 61.3482 21.8963 61.9158C20.8961 62.471 19.8959 63.0513 18.9211 63.657C17.9462 64.2499 16.9714 64.8681 16.0092 65.4989L15.9205 65.2466C16.5282 65.171 17.1233 65.171 17.731 65.1962C18.326 65.2213 18.9337 65.2971 19.5161 65.3854C20.7062 65.5621 21.871 65.827 23.0231 66.1297C24.1752 66.4326 25.3146 66.7858 26.454 67.1643C27.0238 67.3536 27.5809 67.5554 28.138 67.7574C28.6951 67.9591 29.252 68.1738 29.8091 68.4008C29.9104 68.4387 29.9738 68.5522 29.9611 68.6658C29.9484 68.8172 29.9105 68.9434 29.8598 69.0695C29.8218 69.1957 29.7711 69.3092 29.7205 69.4227C29.6191 69.6498 29.5053 69.8644 29.3913 70.0788C29.1509 70.5078 28.8976 70.9114 28.6318 71.3152C28.3658 71.7189 28.0873 72.11 27.8087 72.5012C27.5302 72.8923 27.2391 73.2708 26.9478 73.6493L26.8467 73.2329C27.4922 73.5357 28.2013 73.7501 28.8976 73.9395C29.6067 74.1286 30.3282 74.2801 31.0498 74.4189C31.7716 74.5577 32.5058 74.6712 33.2402 74.7721C33.9745 74.8732 34.7087 74.9741 35.4431 75.0623C36.9118 75.239 38.3929 75.3652 39.8616 75.4661C41.3429 75.5796 42.8242 75.6554 44.2927 75.7184L44.1662 75.7563L45.1285 75.1758L46.0778 74.5829C46.3945 74.3809 46.7109 74.1792 47.0274 73.9774L47.4958 73.6745L47.9643 73.3717C48.5847 72.9555 49.2051 72.5391 49.8127 72.11L50.2685 71.7821C50.4205 71.6686 50.5725 71.5675 50.7243 71.454C51.0283 71.2395 51.3194 71.0125 51.6105 70.7726L51.5725 70.9367L50.4078 68.3882C50.3952 68.3503 50.3952 68.3126 50.4205 68.2873C50.6231 68.0727 50.8003 67.8203 50.9649 67.5807C51.1294 67.3283 51.2941 67.076 51.446 66.8111C51.5978 66.5461 51.7498 66.2811 51.8892 66.0162C51.9652 65.8774 52.0283 65.7512 52.1043 65.6124L52.2056 65.4106L52.2563 65.3098L52.2816 65.2592L52.2943 65.2466ZM52.3449 65.2339C52.3449 65.2466 52.3449 65.2466 52.3449 65.2592V65.2718V65.2845L52.3323 65.3098L52.3069 65.3601L52.2563 65.4612L52.1676 65.663C52.1043 65.8018 52.0409 65.9406 51.9778 66.0794C51.8512 66.357 51.7118 66.6219 51.5598 66.8993C51.4207 67.1643 51.2687 67.4292 51.1041 67.6942C50.9396 67.9591 50.7749 68.2115 50.5598 68.4387L50.5725 68.3376L51.8132 70.8484C51.8385 70.8988 51.8258 70.9746 51.7752 71.0125C51.484 71.2648 51.1927 71.4919 50.9016 71.7189C50.6105 71.946 50.3065 72.1732 50.0027 72.4003C49.3949 72.8417 48.7874 73.2834 48.1669 73.7124C47.5465 74.1413 46.9263 74.5577 46.3058 74.9741L45.3563 75.5796L44.4067 76.1853C44.3687 76.2104 44.3307 76.223 44.28 76.223C43.5331 76.2104 42.7862 76.1853 42.0518 76.1474C41.3049 76.1095 40.5707 76.0716 39.8236 76.0339C38.3423 75.9454 36.8485 75.8193 35.3671 75.6554C34.6202 75.5796 33.8858 75.4913 33.1516 75.3778C32.4171 75.2769 31.6702 75.1508 30.936 75.012C30.2016 74.8732 29.4673 74.7091 28.7456 74.5197C28.024 74.318 27.3024 74.0909 26.606 73.7628C26.4667 73.6998 26.4035 73.5357 26.4793 73.3969C26.492 73.3843 26.5047 73.359 26.5173 73.3466C26.8087 72.9805 27.0998 72.6021 27.3782 72.2109C27.6569 71.8324 27.9353 71.4413 28.2013 71.0502C28.4671 70.6591 28.7202 70.2553 28.9482 69.8518C29.0622 69.6498 29.176 69.448 29.2647 69.2334C29.3153 69.1325 29.3533 69.0316 29.3913 68.9181C29.4293 68.8172 29.4547 68.7161 29.4673 68.6279L29.6191 68.8928C28.5304 68.4387 27.4162 68.0223 26.3022 67.6312C25.188 67.2401 24.0486 66.8869 22.9218 66.5587C21.7823 66.2434 20.6303 65.9532 19.4655 65.7639C18.8831 65.663 18.3007 65.5873 17.7057 65.5494C17.1233 65.5115 16.5282 65.4989 15.9458 65.5621C15.8699 65.5747 15.8066 65.5115 15.7939 65.4359C15.7939 65.3854 15.8192 65.335 15.8572 65.3098C16.8321 64.6916 17.8069 64.0858 18.8071 63.5056C19.7947 62.9251 20.7948 62.3575 21.8077 61.8023C22.8205 61.2471 23.8334 60.7172 24.8715 60.1999L25.6438 59.8214C25.897 59.6953 26.1629 59.5817 26.4287 59.4556L26.8213 59.2664C26.9478 59.2033 27.0871 59.1529 27.2138 59.0897L27.9987 58.7365C28.0367 58.7112 28.0873 58.7365 28.1127 58.7742C28.1253 58.7995 28.1253 58.8374 28.1 58.85C28.0873 58.8627 28.0747 58.9004 28.062 58.913C28.0493 58.9383 28.0367 58.9636 28.024 58.9888C27.9987 59.0392 27.986 59.1024 27.9733 59.1529C27.9353 59.2664 27.9227 59.38 27.91 59.4935C27.8847 59.7332 27.8973 59.9729 27.9353 60.1999C28.0113 60.6795 28.176 61.1336 28.3911 61.5752C28.4924 61.7897 28.6191 62.0041 28.7329 62.2187C28.8596 62.4205 28.9862 62.6351 29.1256 62.8242C29.404 63.228 29.7078 63.6065 30.0244 63.9723C30.3409 64.3382 30.6827 64.6916 31.0245 65.0448C31.3664 65.3854 31.7336 65.7261 32.088 66.0541C32.8222 66.7102 33.582 67.3283 34.3542 67.9214C35.1265 68.5143 35.9242 69.0946 36.7345 69.6498L37.3422 70.0662L37.9498 70.4699C38.3549 70.7349 38.7727 71.0125 39.178 71.2775C40.8365 72.3371 42.5203 73.3466 44.2169 74.3306L43.8749 74.4568C44.0523 73.8763 44.2169 73.2834 44.3687 72.6905C44.5207 72.0974 44.66 71.5045 44.7865 70.8988C45.0398 69.7003 45.2549 68.4891 45.4069 67.278C45.5589 66.0667 45.66 64.8428 45.66 63.6191C45.66 62.3952 45.5843 61.1715 45.3309 59.9855C45.3183 59.9225 45.3563 59.8593 45.4196 59.8467C45.4576 59.8341 45.4956 59.8467 45.5209 59.872C46.6729 60.7425 47.8125 61.613 48.9518 62.4963C49.5216 62.9378 50.0914 63.3794 50.6483 63.8335C50.9269 64.0606 51.2054 64.2878 51.484 64.5149C51.6232 64.6284 51.7625 64.7419 51.9018 64.8554C51.9652 64.9186 52.0409 64.969 52.1043 65.0322C52.1423 65.0574 52.1676 65.0951 52.2056 65.1204C52.2183 65.133 52.2436 65.1457 52.2563 65.171L52.2816 65.1962C52.3323 65.2089 52.3449 65.2213 52.3449 65.2339Z" fill="#333333"/>
<path d="M30.593 70.3318L29.0359 72.8803C29.0359 72.8803 38.7972 74.9115 42.4813 75.2649C42.4813 75.2649 32.3023 72.855 30.2639 72.3253L30.593 70.3318Z" fill="#969696"/>
<path d="M15.5916 65.991C15.5916 65.991 7.61549 65.991 6.2988 73.4097H25.6568L28.6192 69.1832C28.6192 69.1832 21.2129 65.499 15.5916 65.991Z" fill="#444444"/>
<path d="M15.5909 66.0167C14.5147 66.042 13.4512 66.2691 12.4257 66.6096C11.9193 66.7863 11.4256 67.0008 10.9571 67.2405C10.4887 67.4928 10.0329 67.783 9.61509 68.1111C9.19729 68.4391 8.81748 68.8049 8.47564 69.2087C8.31106 69.4105 8.14646 69.6125 7.99454 69.8269C7.84262 70.0415 7.70335 70.2685 7.57675 70.4956C7.45014 70.7226 7.32354 70.9623 7.22225 71.2022C7.12097 71.4419 7.01968 71.6816 6.93106 71.9339C6.89308 72.0601 6.84244 72.1862 6.81711 72.3124L6.76647 72.5017L6.71583 72.6909C6.65253 72.9432 6.60189 73.2082 6.55124 73.4605L6.31069 73.1829C7.91858 73.1829 9.53913 73.2082 11.147 73.2587C12.7549 73.2964 14.3755 73.3343 15.9833 73.347C17.5912 73.3596 19.2118 73.347 20.8197 73.309L23.2378 73.2587L24.4532 73.2334L25.6686 73.2082L25.4914 73.2964L26.2131 72.2241L26.9473 71.1517L28.4033 69.0196L28.5046 69.4357C28.0109 69.1961 27.4918 68.969 26.9727 68.7546C26.7195 68.6409 26.4535 68.54 26.2004 68.4391C25.9345 68.3382 25.6813 68.2247 25.4154 68.1362C24.8964 67.9344 24.3646 67.7451 23.8329 67.5686C23.567 67.4801 23.3011 67.3919 23.0353 67.3036C22.7694 67.2154 22.5035 67.1269 22.2376 67.0513C21.7059 66.8872 21.1615 66.7232 20.6171 66.597C20.0727 66.4582 19.5283 66.332 18.9712 66.2312C18.4142 66.1303 17.8571 66.0671 17.3 66.0294C16.7177 65.9662 16.1606 65.9662 15.5909 66.0167ZM15.5909 65.9662C16.7177 65.8653 17.8571 65.9032 18.9839 66.0167C19.5536 66.0671 20.1107 66.1555 20.6677 66.2438C20.9463 66.2943 21.2248 66.3447 21.5033 66.3952C21.7819 66.4456 22.0604 66.5088 22.3389 66.5844C22.896 66.7105 23.4404 66.8746 23.9848 67.0387C24.5292 67.2027 25.0609 67.3919 25.6053 67.5939C25.8712 67.6948 26.1371 67.7956 26.4029 67.8965C26.6689 67.9974 26.9347 68.1111 27.188 68.2247C27.7071 68.4517 28.226 68.6788 28.7451 68.9311L29.0364 69.0825L28.8464 69.3475L27.3524 71.4419L26.6055 72.4891L25.8459 73.5363L25.7826 73.6372H25.6686L24.4532 73.6119L23.2378 73.5866L20.8197 73.5363C19.2118 73.4984 17.5912 73.4984 15.9833 73.4984C14.3755 73.4984 12.7549 73.5363 11.147 73.5866C9.53913 73.6245 7.91858 73.6625 6.31069 73.6625H6.0195L6.07014 73.3849C6.09546 73.2461 6.12078 73.1199 6.14611 72.9811C6.18409 72.8423 6.20941 72.7161 6.24739 72.5774L6.29803 72.3756L6.36133 72.1736C6.39932 72.0348 6.44996 71.9086 6.48794 71.7825C6.58922 71.5175 6.69051 71.2652 6.80445 71.0129C6.9184 70.7605 7.05766 70.5209 7.19693 70.2812C7.76666 69.3349 8.55162 68.5273 9.45051 67.8965C9.89362 67.5812 10.3747 67.3163 10.8685 67.0766C11.3622 66.8493 11.8687 66.6476 12.3878 66.4961C12.9068 66.3321 13.4386 66.2185 13.9703 66.1303C14.2362 66.0797 14.5021 66.042 14.7679 66.0167C15.0465 65.9915 15.325 65.9662 15.5909 65.9662Z" fill="#333333"/>
<path d="M49.9902 73.4102L61.1695 72.8047C61.1695 72.8047 58.7133 65.9539 52.7502 65.7268C52.7502 65.7268 51.4082 68.0862 51.0284 68.4015L52.6235 70.9502L49.9902 73.4102Z" fill="#444444"/>
<path d="M50.0166 73.3971C51.0169 73.3212 51.9791 73.233 52.9286 73.1447L54.334 73.0186L55.0302 72.9554L55.714 72.8924C56.6255 72.8166 57.5244 72.7536 58.436 72.7283C59.3349 72.7031 60.2591 72.7031 61.1833 72.6778L61.0947 72.8166C60.9427 72.3625 60.7402 71.9208 60.5122 71.492C60.3982 71.2774 60.2844 71.063 60.1578 70.861C60.0311 70.6592 59.9044 70.4448 59.7653 70.2555C59.2209 69.4606 58.5878 68.7289 57.8662 68.0981C57.1444 67.4799 56.3469 66.95 55.486 66.5715C54.6251 66.193 53.6882 66.0037 52.7513 65.9658L53.0044 65.8272C52.878 66.0669 52.7386 66.2939 52.612 66.5209C52.4729 66.748 52.3335 66.9753 52.1942 67.2023C52.0551 67.4294 51.9031 67.6564 51.7511 67.8837C51.6751 67.9972 51.5993 68.1107 51.5106 68.2242C51.4726 68.2748 51.422 68.3378 51.3713 68.3883C51.346 68.4134 51.3206 68.4386 51.2953 68.4766L51.2446 68.5271L51.194 68.5774L51.2573 68.2242L51.6498 68.8677L52.0297 69.5111C52.1562 69.7255 52.2829 69.9401 52.4095 70.1546L52.7893 70.798L52.878 70.9494L52.764 71.0503C52.5487 71.2397 52.3335 71.4288 52.1182 71.6055C51.9031 71.7947 51.6751 71.9714 51.4473 72.1605C51.2193 72.3499 50.9789 72.539 50.7509 72.741C50.4851 72.9807 50.2446 73.1826 50.0166 73.3971ZM49.966 73.4223C50.1686 73.2204 50.3584 73.0186 50.5611 72.804C50.7635 72.5895 50.9662 72.3751 51.1813 72.1481C51.3966 71.9208 51.5993 71.6938 51.8271 71.4667C52.0424 71.2397 52.2702 71.0124 52.4855 70.7854L52.4475 71.0377L52.0297 70.4195C51.8904 70.2051 51.7511 70.0031 51.612 69.7887L51.194 69.1579L50.7889 68.5271L50.6751 68.3504L50.8522 68.161L50.8649 68.1486L50.8902 68.1233C50.9029 68.1107 50.9282 68.0854 50.9409 68.0602C50.9789 68.0098 51.0169 67.9593 51.0549 67.9087C51.1309 67.8078 51.194 67.6943 51.27 67.5934C51.4093 67.3788 51.5486 67.1518 51.6878 66.9247C51.8271 66.6977 51.9664 66.4706 52.0929 66.2434L52.4982 65.5622L52.5867 65.4108L52.7513 65.4234C53.2578 65.4485 53.7515 65.5117 54.2453 65.6378C54.7391 65.764 55.2075 65.9281 55.6633 66.1425C56.5749 66.5589 57.3851 67.1644 58.0813 67.8584C58.436 68.2116 58.7524 68.5774 59.0562 68.9686C59.2082 69.1579 59.3475 69.3597 59.4867 69.5617C59.626 69.7634 59.7653 69.9652 59.8918 70.1672C60.0184 70.369 60.1451 70.5836 60.2718 70.7854C60.3982 70.9998 60.5122 71.2144 60.6262 71.4288C60.854 71.8578 61.0693 72.2993 61.2591 72.7536L61.3098 72.8798L61.158 72.8924C60.2211 72.968 59.2715 73.0689 58.3093 73.1447C57.3471 73.2204 56.3849 73.2583 55.4353 73.2962L54.7264 73.3212L54.0173 73.3339L52.6246 73.3592L49.966 73.4223Z" fill="#333333"/>
<path d="M20.8714 32.0277C20.8714 32.0277 24.2518 24.382 29.3666 25.4544C34.4815 26.5269 47.066 27.3469 49.1298 26.653C51.1934 25.9591 54.3585 30.8291 53.3203 36.7463C53.3203 36.7463 53.4089 46.4862 53.5229 49.1106C53.5229 49.1106 52.472 51.2553 50.4338 49.1106C48.3954 46.9658 38.5709 45.8051 36.2667 46.8397C33.9624 47.8742 29.506 51.2427 26.0749 50.0695C22.6312 48.8835 17.9088 45.8302 20.8714 32.0277Z" fill="#CCAB8D"/>
<path d="M27.1358 35.2446C28.136 36.8091 28.9716 32.1031 35.4031 33.5035C37.682 34.0081 38.6442 34.3741 39.6571 35.8755C40.4547 37.0488 41.9991 40.7328 40.4547 43.395C40.0369 44.1014 40.8091 45.5903 41.4549 46.1706C42.0245 46.6878 40.7078 45.2242 39.1887 46.1706C37.5934 47.1546 36.4033 46.751 36.2514 46.8266C27.87 51.4695 22.6793 48.6561 21.3626 42.4487C21.3626 42.4234 21.1473 37.5282 22.3374 34.8535C23.5149 32.2166 26.68 29.0877 28.5918 26.9681C30.554 24.8233 25.7558 33.0745 27.1358 35.2446Z" fill="#C49F83"/>
<path d="M35.3295 47.0155C35.3295 47.0155 30.3539 49.2864 26.7835 47.7851C23.2133 46.2962 22.1245 45.3122 22.0359 42.4482C21.9473 39.5842 23.4539 27.0812 30.4299 27.712C37.4057 28.3428 44.0273 28.469 45.5338 28.204C47.0404 27.9391 49.9524 27.1569 49.9524 27.1569C49.9524 27.1569 40.1404 27.2704 34.5066 26.5639C28.8726 25.8573 22.555 26.4251 21.2509 31.2825C19.9469 36.1399 19.048 44.3155 22.3651 47.2678C25.6821 50.22 29.4804 50.8003 35.3295 47.0155Z" fill="#C1906B"/>
<path d="M44.9018 27.9148C46.1044 28.1798 48.206 28.6087 47.9782 30.6652C47.9022 31.3213 46.1298 32.2423 45.4713 32.2928C44.7244 32.3432 43.7749 32.5072 43.142 33.0245C42.7747 33.3273 42.5595 33.7941 42.5595 34.2735C42.5595 34.4755 42.5595 36.6455 42.6482 36.8346C43.2051 37.9829 43.3951 40.38 43.9649 42.0959C44.6231 44.064 45.6867 45.4267 43.7622 46.3981L48.4593 47.0668L52.0042 49.956L53.3969 48.5304C53.3969 48.5304 53.4096 43.7613 53.3969 42.6762C53.3209 36.759 53.2322 35.5857 53.0171 32.6587C52.384 24.3569 42.99 27.4984 44.9018 27.9148Z" fill="#DCBEA4"/>
<path d="M26.7082 27.4727C25.0116 27.9142 22.125 28.8605 20.7703 36.4684C19.1118 45.8298 24.5432 48.0883 25.8092 48.7064C27.0627 49.3246 29.734 49.6652 33.7347 47.6719C37.6722 45.7163 41.1538 46.6626 42.9136 46.7003C44.6607 46.7508 44.8507 46.2209 48.4463 47.0537C50.1681 47.4448 52.9281 46.448 53.4598 47.571C53.4598 47.571 55.2956 50.6115 52.9154 55.9735C50.9025 60.5155 46.1547 63.9599 41.5843 63.9599C32.7598 63.9599 24.1634 59.0521 21.3401 54.7497C18.5168 50.4474 18.7573 45.2999 17.7951 42.007C15.2504 33.2889 16.2252 25.6432 21.8845 20.6723C27.5438 15.7014 42.5085 12.85 46.4712 14.3261C50.434 15.8023 51.9152 24.861 52.6749 28.482C53.4345 32.1156 53.8016 33.9955 53.3078 36.7207C53.3078 36.7207 53.3965 30.3997 51.4216 28.6586C49.4465 26.9175 48.7247 27.9395 46.6611 27.9395C44.5974 27.9395 36.5327 27.5231 33.2662 27.2203C31.8482 27.1068 28.6071 26.9806 26.7082 27.4727Z" fill="#969696"/>
<path d="M26.719 27.4976C26.4404 27.5733 26.1746 27.649 25.9087 27.7374C25.6428 27.8383 25.3896 27.9518 25.1364 28.078C24.8832 28.2168 24.6553 28.3682 24.4274 28.5448C24.1995 28.7215 23.9969 28.9107 23.807 29.1126C23.4146 29.5163 23.0854 29.9705 22.7942 30.4625C22.503 30.942 22.2624 31.4593 22.0472 31.9765C21.832 32.4938 21.6547 33.0363 21.4901 33.5788C21.3256 34.1213 21.199 34.6639 21.0723 35.2191C21.0217 35.4965 20.9584 35.7741 20.9078 36.0517L20.8318 36.4681L20.7685 36.8845C20.6799 37.4395 20.6166 37.9946 20.5786 38.5625C20.5026 39.6853 20.5279 40.8207 20.7179 41.9185C20.8065 42.4735 20.9457 43.016 21.123 43.546C21.3002 44.0759 21.5281 44.5932 21.8067 45.0725C22.0852 45.5519 22.4144 46.0062 22.7815 46.4226C23.1487 46.8388 23.5665 47.2048 24.0223 47.5328C24.478 47.8609 24.9591 48.1383 25.4656 48.3906L25.8454 48.5673C25.972 48.6305 26.0986 48.6809 26.2253 48.7314C26.4784 48.8197 26.7444 48.8955 27.0228 48.9332C27.5673 49.0341 28.1244 49.0467 28.6813 49.009C28.9599 48.9964 29.2384 48.9585 29.5042 48.9206C29.7828 48.8702 30.0486 48.8197 30.3273 48.7567C31.416 48.4917 32.4668 48.088 33.4671 47.596L33.8468 47.4066C33.9102 47.3813 33.9735 47.3436 34.0368 47.3184L34.2393 47.2299C34.3659 47.1669 34.5053 47.1164 34.6444 47.066C34.7837 47.0155 34.9104 46.9652 35.0495 46.9146C35.594 46.7253 36.1511 46.574 36.7208 46.4603C37.8475 46.2333 39.0124 46.1829 40.1644 46.2459C40.7342 46.2712 41.304 46.3341 41.8735 46.3973C42.1522 46.4226 42.4306 46.4479 42.7093 46.4729C42.8484 46.4856 42.9877 46.4856 43.1144 46.4856C43.2535 46.4856 43.3929 46.4856 43.5322 46.4729C43.8106 46.4603 44.0893 46.4352 44.3677 46.3973C44.6462 46.3721 44.9502 46.3468 45.2413 46.3468C45.8237 46.3468 46.406 46.4226 46.9758 46.5109C47.1151 46.5361 47.2544 46.5614 47.3935 46.5865L47.8113 46.6749L48.6344 46.8514C49.1533 46.9525 49.7104 46.9272 50.2675 46.8893C50.8246 46.8514 51.3944 46.7885 51.9767 46.7885C52.268 46.7885 52.5718 46.8011 52.8756 46.8767C53.0275 46.9146 53.1922 46.9776 53.344 47.0787C53.496 47.1796 53.6227 47.3184 53.6986 47.4949L53.686 47.4698C53.6986 47.4949 53.7113 47.5201 53.7238 47.5328L53.7618 47.596C53.7871 47.6337 53.7998 47.6842 53.8251 47.7221C53.8631 47.8104 53.9011 47.886 53.9264 47.9745C53.9898 48.1383 54.0531 48.315 54.0911 48.4917C54.1922 48.8323 54.2556 49.1855 54.3062 49.5389C54.4075 50.2454 54.4075 50.952 54.3442 51.6584C54.2809 52.365 54.1418 53.0588 53.9644 53.7275C53.7744 54.4089 53.5467 55.065 53.268 55.7084C52.7238 56.9953 51.9767 58.2064 51.0778 59.2662C50.1789 60.3387 49.1155 61.2724 47.9506 62.042C46.786 62.8116 45.4944 63.4045 44.1398 63.745C43.4562 63.9218 42.7724 64.0226 42.0635 64.0606C41.8862 64.0732 41.7091 64.0732 41.5444 64.0732C41.3673 64.0732 41.2026 64.0732 41.0253 64.0606C40.6835 64.0479 40.3291 64.0353 39.9873 64.01C37.2146 63.8209 34.4673 63.1774 31.8717 62.2058C30.5677 61.7138 29.3017 61.1462 28.0864 60.4775C26.8708 59.8088 25.6934 59.0644 24.592 58.2064C24.0476 57.7775 23.5158 57.3232 23.0094 56.8439C22.5157 56.3645 22.0346 55.8472 21.6167 55.2794C20.7812 54.1566 20.1608 52.895 19.6924 51.5828C19.2239 50.2706 18.9201 48.9079 18.6669 47.5454C18.5403 46.8641 18.439 46.1829 18.325 45.5016C18.2111 44.8202 18.1098 44.1389 17.9705 43.4703C17.9072 43.1296 17.8313 42.8016 17.7426 42.4735C17.7173 42.3852 17.692 42.3096 17.6793 42.2338L17.6034 41.9815C17.5527 41.8174 17.5021 41.6535 17.4641 41.4768C17.2742 40.8081 17.1096 40.1394 16.9577 39.4582C16.6538 38.0955 16.4386 36.7204 16.3373 35.3326C16.236 33.9446 16.236 32.5443 16.388 31.1438C16.5399 29.756 16.8311 28.3682 17.2995 27.0561C17.768 25.7313 18.4137 24.4696 19.2239 23.3215C19.6291 22.7412 20.0722 22.1987 20.5533 21.6814C20.7938 21.4164 21.0344 21.1767 21.3002 20.9244C21.5535 20.6847 21.8193 20.445 22.0852 20.2179C22.3637 19.9908 22.6423 19.7889 22.9335 19.5744C23.2246 19.3726 23.5158 19.1833 23.8197 18.9941C24.4147 18.6282 25.0351 18.2875 25.6555 17.9847C26.9088 17.3665 28.2002 16.8366 29.5168 16.3698C32.1504 15.4362 34.8597 14.7423 37.6071 14.2628C38.9871 14.0231 40.3671 13.8339 41.7597 13.7455C42.456 13.6951 43.1651 13.6698 43.8613 13.6951C44.5704 13.7077 45.2793 13.7582 45.9882 13.9222C46.0769 13.9474 46.1655 13.96 46.2542 13.9853L46.3809 14.0231C46.4187 14.0357 46.4693 14.0483 46.5073 14.0736C46.6846 14.1367 46.8618 14.2124 47.0264 14.3007C47.3555 14.4773 47.6595 14.6918 47.938 14.9315C48.4824 15.4236 48.9255 15.9913 49.3053 16.5969C49.6851 17.2025 50.0018 17.8333 50.2802 18.4768C50.5587 19.1202 50.812 19.7763 51.0271 20.4323C51.4702 21.7571 51.8249 23.1071 52.1287 24.457C52.2806 25.1383 52.4198 25.807 52.5591 26.4883L52.9642 28.5196C53.1035 29.2009 53.2429 29.8696 53.3693 30.5635C53.496 31.2448 53.61 31.9387 53.686 32.6326C53.7618 33.3265 53.7998 34.0331 53.7744 34.7395C53.7491 35.4461 53.6733 36.1399 53.534 36.8339C53.5087 36.9474 53.4073 37.0233 53.2933 36.998C53.1922 36.9727 53.1162 36.8845 53.1289 36.796C53.1415 36.1149 53.1162 35.4082 53.0655 34.7269C53.0149 34.0331 52.9515 33.3517 52.8376 32.6705C52.7238 31.9892 52.5844 31.3078 52.3691 30.6644C52.2553 30.3364 52.1413 30.021 51.9767 29.7182C51.8249 29.4154 51.6349 29.1378 51.3944 28.9107C51.3438 28.8602 51.2678 28.7971 51.2044 28.7467C51.1411 28.6836 51.0778 28.6331 51.0018 28.5827C50.8626 28.4817 50.736 28.3808 50.584 28.2925C50.3055 28.1159 49.9891 27.9645 49.6724 27.9014C49.3433 27.8383 49.0142 27.8509 48.6724 27.9014C48.3304 27.9518 47.9886 28.0275 47.6342 28.0654C47.2797 28.1159 46.9251 28.1411 46.5706 28.1285C46.2162 28.1285 45.8744 28.1159 45.5198 28.1032C44.8235 28.078 44.1271 28.0402 43.4182 28.0149C42.0255 27.9518 40.6202 27.8635 39.2275 27.7752C37.8349 27.6869 36.4422 27.5986 35.0368 27.4976L33.9862 27.4093L32.9479 27.321C32.2515 27.2705 31.5553 27.2327 30.859 27.2201C30.1626 27.2075 29.4664 27.2201 28.7699 27.2705C28.0864 27.2453 27.3899 27.321 26.719 27.4976ZM26.7064 27.4472C27.3899 27.2705 28.0864 27.1948 28.7826 27.1444C29.479 27.0939 30.1753 27.0813 30.8842 27.0939C31.5806 27.1065 32.2895 27.1318 32.9859 27.1822L34.0368 27.2705L35.0875 27.3463C36.4802 27.4472 37.8728 27.5229 39.2782 27.5986C40.6709 27.6617 42.0762 27.7247 43.4689 27.7878C44.1651 27.813 44.8615 27.8383 45.5578 27.8509C45.9124 27.8635 46.2542 27.8635 46.6086 27.8635C46.9504 27.8635 47.2924 27.8383 47.6342 27.7878C47.976 27.7374 48.3178 27.6617 48.6597 27.5986C49.0142 27.5355 49.3813 27.5103 49.7484 27.586C50.1155 27.649 50.4575 27.8004 50.7613 27.9897C50.9133 28.078 51.0651 28.1916 51.2044 28.2925C51.2678 28.3429 51.3438 28.406 51.4071 28.4565C51.4702 28.5196 51.5462 28.5701 51.6095 28.6331C51.8755 28.8855 52.0907 29.1883 52.2553 29.5037C52.4324 29.8191 52.5591 30.1471 52.6731 30.4878C52.9009 31.1565 53.0655 31.8504 53.1795 32.5443C53.2933 33.2382 53.382 33.9322 53.4327 34.6386C53.4833 35.3453 53.5213 36.039 53.5213 36.7457L53.1035 36.7078C53.2175 36.039 53.2933 35.3577 53.306 34.6765C53.3187 33.9952 53.2807 33.3139 53.1922 32.6452C53.1035 31.9639 52.9895 31.2952 52.8502 30.6139C52.7111 29.9453 52.5718 29.264 52.4324 28.5827L52.0147 26.5514C51.8755 25.8701 51.7235 25.2014 51.5715 24.5327C51.2551 23.1954 50.9006 21.858 50.4702 20.5585C50.2549 19.9151 50.0144 19.2716 49.7358 18.6408C49.4573 18.0226 49.1533 17.4044 48.7989 16.8366C48.4444 16.2689 48.0266 15.739 47.5329 15.2974C47.2924 15.0829 47.0264 14.8937 46.7353 14.7423C46.4567 14.5909 46.1529 14.5025 45.8237 14.4268C45.5071 14.3511 45.1653 14.3133 44.8362 14.2754C44.4944 14.2376 44.1651 14.225 43.8233 14.2124C43.1397 14.1997 42.456 14.225 41.7724 14.2628C40.4051 14.3511 39.0377 14.5404 37.6704 14.7675C36.3157 15.0072 34.9611 15.2974 33.6315 15.638C32.3022 15.9787 30.9728 16.3824 29.6688 16.8366C28.3648 17.2908 27.0862 17.8081 25.858 18.4137C25.2377 18.7165 24.6426 19.0445 24.0602 19.3978C23.769 19.5744 23.4779 19.7637 23.1993 19.9529C22.9208 20.1548 22.6423 20.344 22.389 20.5585C21.3382 21.4164 20.4013 22.4258 19.6164 23.536C18.8314 24.6463 18.1984 25.8701 17.7426 27.1444C17.2869 28.4313 16.9957 29.7686 16.8311 31.1186C16.6791 32.4812 16.6665 33.8438 16.7678 35.2191C16.8691 36.5816 17.0716 37.9441 17.3502 39.2942C17.4894 39.9629 17.654 40.6316 17.8313 41.3001C17.8819 41.4642 17.9199 41.6283 17.9705 41.7923C17.9959 41.8679 18.0212 41.9562 18.0338 42.0447C18.0591 42.1329 18.0845 42.2085 18.0971 42.297C18.1857 42.6376 18.2491 42.9781 18.3124 43.3189C18.439 44.0001 18.5403 44.694 18.6289 45.3754C18.7302 46.0568 18.8188 46.7379 18.9327 47.4193C19.0467 48.1006 19.1733 48.7693 19.3252 49.4505C19.4771 50.1192 19.667 50.7879 19.8823 51.4314C20.1101 52.0748 20.3634 52.7182 20.6672 53.3364C20.7432 53.4879 20.8318 53.6393 20.9078 53.7907C20.9964 53.942 21.0723 54.0934 21.161 54.2322C21.2496 54.3836 21.3382 54.5224 21.4395 54.6739C21.5281 54.8126 21.6294 54.9514 21.7307 55.0902C22.1358 55.6452 22.6043 56.1499 23.098 56.6295C23.5918 57.1088 24.1109 57.5629 24.6553 57.992C25.7441 58.8372 26.9088 59.5944 28.1242 60.2504C29.3397 60.9063 30.5931 61.4868 31.8971 61.9788C33.1884 62.4708 34.5179 62.8619 35.8726 63.1648C36.5435 63.3162 37.2273 63.4424 37.9108 63.5433C38.5946 63.6442 39.2782 63.72 39.9746 63.7577C40.3164 63.783 40.6582 63.7956 41.0126 63.8082C41.3546 63.8209 41.7091 63.8209 42.0509 63.8082C42.7346 63.7703 43.4182 63.6568 44.0766 63.4803C44.7349 63.3036 45.3933 63.0639 46.0135 62.7737C46.634 62.4834 47.2291 62.1429 47.7987 61.7517C48.9382 60.9821 49.9638 60.0485 50.8246 58.9886C51.6982 57.929 52.4071 56.743 52.9135 55.4814C53.1669 54.8504 53.3947 54.1943 53.5593 53.5384C53.7238 52.8823 53.8378 52.201 53.9011 51.5322C53.9518 50.8635 53.9391 50.1824 53.8378 49.5137C53.7871 49.1855 53.7238 48.8576 53.6227 48.5294C53.572 48.3656 53.5213 48.2141 53.458 48.0627C53.4327 47.9871 53.3947 47.9113 53.3567 47.8357C53.344 47.7977 53.3187 47.7598 53.306 47.7221L53.2807 47.6716L53.2555 47.621V47.6086V47.596C53.2175 47.5075 53.1415 47.4319 53.0655 47.3814C52.9769 47.3184 52.8629 47.2805 52.7491 47.2552C52.5084 47.1922 52.2426 47.1796 51.964 47.1796C51.4198 47.1796 50.85 47.2426 50.2802 47.2805C49.9891 47.2931 49.7104 47.3184 49.4193 47.3057C49.1282 47.3057 48.8242 47.2805 48.5331 47.2299L47.6975 47.0534L47.2797 46.9776C47.1404 46.9525 47.0011 46.9272 46.862 46.902C46.3049 46.8137 45.7604 46.7379 45.216 46.7379C44.9375 46.7379 44.6715 46.7505 44.3931 46.7758C44.1146 46.8011 43.8233 46.8264 43.5322 46.8514C43.3802 46.8514 43.2409 46.8641 43.0891 46.8641C42.9497 46.8641 42.7978 46.8641 42.646 46.8514C42.3546 46.8388 42.0762 46.8011 41.7851 46.7758C41.2153 46.7126 40.6582 46.6497 40.1011 46.6244C38.9871 46.5614 37.8602 46.5865 36.7715 46.8011C36.2271 46.902 35.6826 47.0408 35.1635 47.2175C35.0368 47.2678 34.8977 47.3057 34.7711 47.3561C34.6444 47.4066 34.5179 47.4572 34.3786 47.5075L34.1886 47.596L33.9988 47.6842L33.6188 47.8609C32.5808 48.3529 31.5046 48.7567 30.3906 49.009C30.1119 49.072 29.8208 49.1225 29.5422 49.1603C29.2511 49.1982 28.9726 49.2361 28.6813 49.2487C28.099 49.274 27.5166 49.2487 26.9468 49.1478C26.6557 49.0973 26.3771 49.0217 26.0986 48.9206C25.9593 48.8702 25.82 48.807 25.6934 48.7441L25.3136 48.5547C24.8072 48.3024 24.3134 47.9995 23.845 47.6589C23.3892 47.3184 22.9588 46.9272 22.579 46.4856C22.1991 46.0568 21.87 45.5772 21.5914 45.0852C21.3129 44.5805 21.085 44.0632 20.9078 43.5207C20.7305 42.9781 20.6039 42.4231 20.5153 41.8553C20.338 40.7325 20.3254 39.5844 20.414 38.4614C20.4647 37.8938 20.5279 37.3386 20.6166 36.7709L20.6925 36.3545L20.7685 35.9382C20.8191 35.6606 20.8824 35.383 20.9457 35.1054C21.0723 34.5504 21.2116 34.0078 21.3762 33.4653C21.5408 32.9228 21.718 32.3929 21.9459 31.863C22.1612 31.3457 22.4144 30.8284 22.7056 30.349C22.9968 29.8569 23.3386 29.4027 23.7311 28.999C23.9336 28.7972 24.1362 28.5953 24.3641 28.4313C24.592 28.2546 24.8325 28.1032 25.0731 27.9645C25.3263 27.8257 25.5795 27.7121 25.8454 27.6112C26.1493 27.586 26.4277 27.5103 26.7064 27.4472Z" fill="#333333"/>
<path d="M18.263 39.4706C18.263 39.4706 17.2502 40.1644 16.7311 40.9592C15.4651 42.9022 15.4777 46.725 18.5416 47.3181C18.5416 47.3181 19.3645 47.7345 18.8581 43.9241C18.2757 39.4706 18.263 39.4706 18.263 39.4706Z" fill="#C1906B"/>
<path d="M35.4045 33.5032C35.4045 33.5032 33.1383 32.9481 31.4418 33.9573C29.7451 34.9668 26.5927 37.3133 28.6058 34.6387C29.7451 33.1247 33.2522 30.9168 35.9616 31.6612C38.6709 32.4055 37.6834 33.5537 35.4045 33.5032Z" fill="#969696"/>
<path d="M35.4031 33.5278C34.4916 33.326 33.542 33.389 32.6685 33.6287C32.4531 33.6918 32.238 33.7674 32.0354 33.8559C31.9342 33.8936 31.8329 33.9441 31.7316 33.9947C31.6809 34.0198 31.6302 34.045 31.5796 34.0703C31.5289 34.0956 31.4785 34.1209 31.4278 34.1586L30.8327 34.5246C30.63 34.6508 30.4402 34.7643 30.2376 34.8905C29.8451 35.1301 29.44 35.3698 29.0222 35.5842C28.8196 35.6978 28.6045 35.7989 28.3765 35.8871C28.3258 35.9124 28.2627 35.925 28.1993 35.9377C28.136 35.9503 28.0727 35.9627 27.984 35.9377C27.946 35.925 27.8954 35.8871 27.8827 35.8366C27.87 35.7862 27.87 35.7483 27.87 35.723C27.8827 35.6601 27.908 35.5969 27.9334 35.5465C28.0347 35.3319 28.1613 35.1301 28.3005 34.9408C28.3638 34.8399 28.4398 34.7517 28.5031 34.6634C28.5665 34.575 28.6425 34.4741 28.7185 34.3858C29.0222 34.0324 29.364 33.7044 29.7311 33.4143C30.4529 32.8213 31.2505 32.304 32.124 31.9381C32.5545 31.7489 33.0103 31.5975 33.4787 31.4965C33.7067 31.4461 33.9471 31.4082 34.1878 31.3704C34.4283 31.3451 34.6689 31.3325 34.9094 31.3325C35.1498 31.3451 35.3905 31.3578 35.6309 31.4082C35.7449 31.4334 35.8716 31.4587 35.9856 31.4965C36.0994 31.5344 36.2134 31.5596 36.3274 31.5975C36.5552 31.6732 36.7831 31.7615 36.9983 31.875C37.1123 31.9381 37.2136 32.0012 37.3149 32.0769C37.4162 32.1526 37.5174 32.2409 37.5934 32.3545C37.6314 32.4175 37.6694 32.4806 37.682 32.5437C37.7074 32.6194 37.7074 32.6951 37.6947 32.7708C37.682 32.8465 37.644 32.9096 37.606 32.9727C37.568 33.0358 37.5174 33.0736 37.4667 33.1115C37.2643 33.2629 37.0236 33.3386 36.7958 33.389C36.3274 33.5152 35.8716 33.5278 35.4031 33.5278ZM35.4031 33.49C35.6309 33.49 35.8716 33.49 36.0994 33.4521C36.2134 33.4395 36.3274 33.4143 36.4414 33.389C36.5552 33.3638 36.6692 33.3386 36.7705 33.3007C36.8845 33.2629 36.9856 33.225 37.0869 33.1619C37.1883 33.1115 37.2769 33.0484 37.3529 32.9727C37.4289 32.897 37.4794 32.8213 37.4794 32.733C37.4794 32.6573 37.454 32.5816 37.3909 32.5059C37.3276 32.4302 37.2516 32.3671 37.1629 32.3166C37.0743 32.2535 36.9731 32.2157 36.8718 32.1652C36.6691 32.0769 36.454 32.0012 36.2387 31.9255C36.1247 31.8877 36.0236 31.8624 35.9096 31.8372C35.7956 31.812 35.6943 31.7867 35.5805 31.7615C35.3651 31.7236 35.1374 31.6984 34.922 31.6984C34.0231 31.6732 33.1242 31.8877 32.276 32.2157C31.8456 32.3797 31.4405 32.5816 31.0353 32.7961C30.63 33.0105 30.2376 33.2503 29.8705 33.5278C29.5033 33.8053 29.1489 34.0956 28.8449 34.4488C28.6931 34.6255 28.5538 34.802 28.4271 35.004C28.3638 35.1049 28.3005 35.1931 28.2373 35.2942C28.174 35.3951 28.1233 35.496 28.0853 35.5969C28.06 35.6474 28.0474 35.6978 28.0474 35.7483C28.0474 35.7736 28.0474 35.7862 28.0474 35.7989C28.0474 35.8115 28.06 35.8115 28.0727 35.8115C28.098 35.8241 28.1613 35.8115 28.212 35.7989C28.2627 35.7862 28.3131 35.761 28.3638 35.7483C28.5665 35.6601 28.7689 35.5465 28.9716 35.4204C29.364 35.1807 29.7438 34.9157 30.1363 34.6508C30.3262 34.5246 30.5162 34.3858 30.7187 34.2596C30.9087 34.1335 31.1111 34.0073 31.3138 33.8812C31.3645 33.8559 31.4151 33.818 31.4658 33.7927C31.5163 33.7674 31.5669 33.7297 31.6302 33.7044C31.7316 33.654 31.8456 33.6035 31.9594 33.553C32.1874 33.4647 32.4151 33.4017 32.6558 33.3638C33.1242 33.2755 33.6054 33.2755 34.0738 33.3007C34.4789 33.326 34.9474 33.389 35.4031 33.49Z" fill="#333333"/>
<path d="M46.2307 33.3017C46.2307 33.3017 47.636 31.4344 49.0413 32.1031C50.434 32.7718 52.5863 35.7366 51.4342 35.0428C50.2567 34.3362 49.1807 33.4531 47.9905 33.5414C46.8005 33.6297 45.9016 33.6676 46.2307 33.3017Z" fill="#969696"/>
<path d="M46.2186 33.2892C46.3959 33.0621 46.5857 32.8602 46.7883 32.6457C46.9908 32.4438 47.2061 32.2546 47.4592 32.0906C47.7126 31.9392 48.0037 31.813 48.3201 31.8004C48.4721 31.7878 48.6368 31.8004 48.7886 31.8382C48.9406 31.8761 49.0926 31.9392 49.219 32.0275C49.4724 32.1789 49.7001 32.3807 49.9028 32.57C50.1053 32.7719 50.3079 32.9863 50.4979 33.1882C50.6877 33.4027 50.8777 33.6046 51.0675 33.8317C51.2575 34.0461 51.4348 34.2732 51.6119 34.5004C51.7006 34.6139 51.7766 34.7401 51.8399 34.8789C51.8526 34.9166 51.8652 34.9545 51.8779 35.0051C51.8779 35.0303 51.8906 35.0554 51.8779 35.0933C51.8779 35.1186 51.8652 35.1312 51.8526 35.1565C51.8399 35.1816 51.8146 35.2068 51.7892 35.2195C51.7386 35.2574 51.6879 35.2447 51.6626 35.2447C51.6246 35.2447 51.5993 35.2321 51.5866 35.2321C51.5359 35.2195 51.4979 35.2068 51.4599 35.1816C51.4221 35.1691 51.3841 35.1438 51.3588 35.1312L51.2701 35.0807L51.0801 34.9671C50.9537 34.8915 50.8397 34.8157 50.713 34.7527C50.2319 34.4625 49.7508 34.1596 49.2444 33.9452C48.9912 33.8317 48.7379 33.7434 48.4848 33.6929C48.3581 33.6677 48.219 33.655 48.0924 33.6424H47.6746C47.3833 33.6424 47.1048 33.6298 46.8137 33.6046C46.6744 33.5919 46.5224 33.5793 46.3832 33.5541C46.3452 33.5415 46.3072 33.5415 46.2819 33.5289C46.2439 33.5162 46.2059 33.5036 46.1806 33.4658C46.1679 33.4532 46.1552 33.4279 46.1552 33.4027C46.1552 33.3775 46.1552 33.3648 46.1679 33.3396C46.1679 33.3396 46.1932 33.3144 46.2186 33.2892ZM46.2439 33.3018C46.2186 33.327 46.2059 33.3522 46.1932 33.3901C46.1806 33.4153 46.1806 33.4532 46.2059 33.4658C46.2439 33.5036 46.3199 33.5289 46.3832 33.5289C46.5224 33.5415 46.6617 33.5415 46.801 33.5289C47.0795 33.5036 47.3579 33.4658 47.6492 33.4153L47.8644 33.3775C47.9404 33.3648 48.0037 33.3522 48.0797 33.3522C48.2317 33.3396 48.3835 33.3396 48.5355 33.3522C48.8393 33.3901 49.1306 33.4784 49.3964 33.5919C49.6748 33.7055 49.9281 33.8443 50.1686 33.9958C50.4092 34.147 50.6497 34.3111 50.8904 34.4625L51.2448 34.7022L51.4221 34.8157L51.5106 34.8789C51.5359 34.8915 51.5613 34.9166 51.5866 34.9292C51.6119 34.9419 51.6373 34.9545 51.6626 34.9671C51.6753 34.9671 51.6879 34.9798 51.6879 34.9798C51.6879 34.9798 51.6879 34.9798 51.6626 34.9924C51.6499 35.005 51.6373 35.005 51.6373 35.0177C51.6373 34.9924 51.6246 34.9671 51.6246 34.9419C51.5866 34.8283 51.5233 34.7022 51.4599 34.576C51.1815 34.0966 50.827 33.6424 50.4346 33.2387C50.2319 33.0368 50.0168 32.8602 49.7888 32.6836C49.561 32.5195 49.333 32.3681 49.0926 32.242C48.9659 32.1789 48.8519 32.141 48.7253 32.1032C48.5988 32.078 48.4721 32.0653 48.3455 32.0653C48.0924 32.078 47.8264 32.141 47.5732 32.242C47.3201 32.3429 47.0795 32.4943 46.8517 32.6583C46.6237 32.8854 46.421 33.0873 46.2439 33.3018Z" fill="#333333"/>
<path d="M43.2659 43.9874C43.2659 43.9874 44.9626 44.0883 42.6457 40.2023C42.6457 40.1897 43.8864 42.9149 43.2659 43.9874Z" fill="#DCBEA4"/>
<path d="M20.0615 48.719C20.0615 48.719 21.3276 54.9011 31.0508 58.8376C40.7741 62.7739 48.8895 59.3043 52.9281 54.1694C52.9281 54.1694 50.5608 60.1245 44.8254 62.5468C39.4954 64.7925 28.2276 61.7772 23.3786 55.6834C20.7325 52.34 20.0615 48.719 20.0615 48.719Z" fill="#7A7A7A"/>
<path d="M22.4519 29.8073C22.4519 29.8073 25.0093 25.2149 31.4788 26.3125C39.7082 27.713 46.7348 27.3723 47.9755 27.1704C51.3811 26.6153 50.7989 23.7513 49.938 21.0893C49.0644 18.4271 50.4571 23.007 47.7855 24.5083C46.3675 25.3032 39.2524 24.7228 35.2771 23.6504C29.4406 22.0859 23.1355 23.9532 22.4519 29.8073Z" fill="#7A7A7A"/>
<path d="M18.1997 39.13C18.1997 39.13 17.3641 28.5194 19.4151 24.6839C21.6307 20.5331 24.6945 19.284 28.594 18.0602C32.4934 16.8364 22.6308 20.7602 20.833 25.0624C18.6808 30.2226 18.3136 40.2151 18.1997 39.13Z" fill="#7A7A7A"/>
<path d="M43.8734 41.5399C43.886 41.6534 43.924 41.7543 43.9747 41.8554C44.0127 41.9563 44.0634 42.0572 44.1267 42.1455C44.2278 42.3348 44.3418 42.5239 44.4432 42.7259C44.6583 43.117 44.8609 43.5208 44.9876 43.9749C45.0509 44.2019 45.0889 44.4418 45.0889 44.6815C45.0889 44.9212 45.0509 45.1735 44.9496 45.4132C44.8609 45.6529 44.7089 45.8549 44.5318 46.0314C44.3545 46.2081 44.1647 46.3469 43.9494 46.4731C43.8987 46.4983 43.848 46.536 43.7847 46.5613C43.7214 46.5866 43.6583 46.6119 43.5949 46.6245C43.4683 46.6622 43.3543 46.6748 43.2278 46.6875C42.9872 46.7127 42.7467 46.7001 42.5187 46.6622C42.0503 46.5866 41.6072 46.4351 41.2147 46.2081C40.8096 45.981 40.4551 45.6782 40.1765 45.3123C39.898 44.9465 39.7207 44.5175 39.6574 44.0758C39.7334 44.2904 39.822 44.4922 39.936 44.6689C40.05 44.858 40.1765 45.0221 40.3285 45.1862C40.6196 45.5015 40.9743 45.7412 41.3667 45.9179C41.7465 46.0946 42.1643 46.2081 42.582 46.246C42.7847 46.2711 42.9998 46.2711 43.2025 46.246C43.3036 46.2334 43.3923 46.2081 43.4809 46.1828C43.5189 46.1702 43.5696 46.1575 43.6076 46.1323C43.6456 46.1198 43.6836 46.0819 43.7341 46.0567C44.076 45.8422 44.3672 45.552 44.5192 45.2114C44.6709 44.858 44.6583 44.4543 44.5825 44.0507C44.5065 43.647 44.3545 43.2306 44.2025 42.8142C44.1267 42.6124 44.0507 42.3978 43.9874 42.1834C43.9494 42.0698 43.924 41.9689 43.9114 41.8554C43.8607 41.767 43.8481 41.6408 43.8734 41.5399Z" fill="#333333"/>
<path d="M27.4651 60.037L31.4786 67.3925L41.6069 63.9606L46.4813 65.2728L47.912 62.0052C47.8993 62.0052 40.9106 67.5186 27.4651 60.037Z" fill="#333333"/>
<path d="M27.4785 60.0489C27.8329 60.6797 28.2003 61.3105 28.5547 61.916C28.9218 62.5342 29.2763 63.1273 29.6309 63.7202C29.9854 64.3133 30.3272 64.9062 30.6689 65.4865C31.0109 66.0796 31.34 66.6598 31.6692 67.2529L31.3907 67.1394C32.2389 66.8492 33.0745 66.559 33.9227 66.2687C34.3405 66.1299 34.7709 65.9913 35.1887 65.8525C35.6065 65.7137 36.0372 65.5876 36.4676 65.4488L39.0249 64.6665C39.4554 64.5404 39.8732 64.4016 40.3036 64.2628L40.9367 64.0608L41.5696 63.8464C41.5823 63.8464 41.6076 63.8464 41.6203 63.8464L42.2281 64.0104L42.8358 64.1745C43.2409 64.288 43.6461 64.3889 44.0512 64.4898C44.4563 64.5907 44.8614 64.7042 45.2792 64.8053C45.6843 64.9062 46.0894 65.0071 46.5074 65.108L46.3427 65.1838L47.0136 63.5311C47.2416 62.9759 47.4694 62.4333 47.6974 61.8781L48.0392 62.1431C47.9885 62.181 47.9379 62.2189 47.8874 62.2566C47.8367 62.2945 47.7861 62.3198 47.7481 62.3577C47.6467 62.4207 47.5581 62.4839 47.457 62.5469C47.2543 62.6604 47.0516 62.7739 46.8492 62.875C46.4441 63.0768 46.0136 63.2535 45.5832 63.4049C45.1527 63.5561 44.7096 63.6823 44.2663 63.796C43.8232 63.9096 43.3674 63.9852 42.9243 64.0608C41.1138 64.3258 39.2654 64.2628 37.4803 63.9725C36.5814 63.8337 35.6952 63.6193 34.8343 63.367C34.4038 63.2408 33.9734 63.102 33.5429 62.9506L33.2265 62.8371L32.9098 62.7236C32.6947 62.6477 32.4921 62.5595 32.2769 62.4839C32.0616 62.3954 31.8591 62.3072 31.6565 62.2189C31.454 62.1305 31.2387 62.0422 31.0361 61.9413L30.4285 61.6511L29.8207 61.3484C29.6183 61.2473 29.4156 61.1464 29.2256 61.0329C29.0231 60.9194 28.8332 60.8185 28.6307 60.7048L28.0483 60.3768C27.9596 60.3263 27.8709 60.2633 27.7825 60.2001C27.6811 60.1751 27.5798 60.1119 27.4785 60.0489ZM27.4405 60.011C27.5418 60.0613 27.6431 60.0992 27.7445 60.1498C27.8456 60.2001 27.9596 60.2507 28.0736 60.3012L28.6814 60.5912L29.2889 60.8688L29.8967 61.1464L30.5171 61.4114L31.1374 61.6637C31.34 61.7393 31.5552 61.8278 31.7578 61.9034C31.9729 61.9792 32.1756 62.0548 32.3907 62.1305C34.0747 62.7236 35.7965 63.1777 37.5436 63.4426C38.4172 63.5814 39.3034 63.6446 40.1896 63.6699C40.6327 63.6823 41.0758 63.6699 41.5192 63.6446C41.9623 63.6193 42.3927 63.5814 42.8358 63.5311C43.7094 63.4173 44.5703 63.2282 45.4058 62.9506C45.8236 62.8118 46.2287 62.6477 46.6339 62.4712C46.8365 62.3828 47.0263 62.2819 47.2163 62.1684C47.3176 62.118 47.4063 62.0548 47.4947 62.0043C47.5454 61.9792 47.5834 61.9413 47.6341 61.916C47.6721 61.8908 47.7227 61.8531 47.7607 61.8278L47.7734 61.8152C47.8747 61.7393 48.0139 61.7646 48.0772 61.8657C48.1279 61.9287 48.1279 62.0169 48.1025 62.0928C47.8494 62.6353 47.6087 63.1777 47.3556 63.7076L46.5959 65.3226C46.5705 65.3856 46.4947 65.4109 46.4314 65.3982C46.0263 65.2847 45.6212 65.1585 45.2159 65.045C44.8107 64.9315 44.4056 64.818 44.0005 64.7044C43.5954 64.5907 43.1903 64.4772 42.7852 64.3637L42.1774 64.1996L41.5696 64.0357H41.6203L40.9874 64.2501L40.3543 64.4772C39.9365 64.6286 39.5187 64.7801 39.1009 64.9315L36.5941 65.8525C36.1763 66.0038 35.7585 66.1552 35.3407 66.3066C34.9229 66.4581 34.5052 66.6095 34.0747 66.7483C33.2392 67.0383 32.3907 67.3159 31.5425 67.5935C31.4287 67.6314 31.3147 67.5809 31.264 67.48C30.9223 66.8492 30.5929 66.2057 30.2638 65.5749C29.9347 64.9441 29.6183 64.3007 29.3016 63.6699L28.3647 61.8025C28.0609 61.2096 27.7571 60.6039 27.4405 60.011Z" fill="#333333"/>
<path d="M37.5586 65.3348L44.1295 74.5322L44.8384 65.0446L41.5972 63.9595L37.5586 65.3348Z" fill="url(#paint0_linear_1_74)"/>
<path d="M37.5848 65.3352L38.4584 66.496L39.3193 67.6441C39.8891 68.401 40.4462 69.158 40.9906 69.915C41.2691 70.2935 41.5351 70.6719 41.8008 71.0506C42.0666 71.4291 42.32 71.8202 42.5857 72.1987L43.3708 73.3594L43.776 73.9397L44.1811 74.5202L44.0924 74.5452C44.1557 73.7506 44.2064 72.9683 44.2444 72.1734L44.3709 69.8014C44.4215 69.0066 44.4722 68.2243 44.5229 67.4296L44.5988 66.2436C44.6242 65.8525 44.6622 65.4488 44.6875 65.0576L44.8013 65.2217C44.2571 65.045 43.7253 64.8559 43.1809 64.6792L42.3706 64.4016L41.5602 64.124H41.6489L40.6613 64.4395L39.6486 64.7421L37.5848 65.3352ZM37.5468 65.3226L39.522 64.5909L40.5348 64.2124L41.5602 63.8464L41.5982 63.8337L41.6362 63.8464L42.4466 64.0987L43.2568 64.3637C43.8013 64.5404 44.3455 64.7171 44.8773 64.8936L44.9913 64.9315L44.9786 65.0576C44.9533 65.4488 44.9153 65.8525 44.89 66.2436L44.7886 67.4296C44.7255 68.2243 44.6622 69.0066 44.5862 69.8014L44.3582 72.1734C44.2824 72.9683 44.2191 73.7506 44.1557 74.5452L44.1431 74.6714L44.0671 74.5705L43.6493 73.9902L43.2315 73.4224L42.3706 72.2743C42.092 71.8958 41.8008 71.5047 41.5224 71.1262C41.2437 70.7351 40.9653 70.3566 40.6866 69.9655C40.1424 69.1833 39.598 68.4137 39.0788 67.6314L38.2939 66.4833L37.5468 65.3226Z" fill="#333333"/>
<path d="M37.4444 40.3167C36.7355 40.2788 36.0264 40.2788 35.3175 40.2788C34.6086 40.2664 33.8995 40.2914 33.1906 40.342C32.4815 40.405 31.7726 40.4681 31.0761 40.5564C30.7217 40.5943 30.3672 40.6448 30.0254 40.6952C29.8481 40.7205 29.6708 40.7457 29.4937 40.771L28.9619 40.8466C29.6581 40.7078 30.3546 40.5817 31.0635 40.506C31.2408 40.4808 31.4181 40.4555 31.5952 40.4429L32.127 40.3925C32.3043 40.3799 32.4815 40.3672 32.6588 40.3546C32.8359 40.342 33.0132 40.3293 33.1906 40.3167C33.3677 40.3041 33.545 40.3041 33.7223 40.2914C33.8995 40.2788 34.0768 40.2788 34.2539 40.2664C34.6086 40.2537 34.963 40.2284 35.3175 40.2284C36.0264 40.2158 36.7355 40.2411 37.4444 40.3167Z" fill="#333333"/>
<path d="M31.5166 40.4432C31.5166 40.4432 31.1874 35.775 34.7957 35.775C37.4417 35.775 37.4417 40.3297 37.4417 40.3297C37.4417 40.3297 32.6561 40.1782 31.5166 40.4432Z" fill="white"/>
<path d="M31.5185 40.4426C31.5185 40.4176 31.5185 40.4049 31.5058 40.3923V40.3417V40.2409C31.5058 40.1777 31.5058 40.1147 31.5058 40.0515C31.5058 39.9254 31.5058 39.7992 31.5185 39.673C31.5312 39.4207 31.5565 39.1557 31.5945 38.9034C31.6705 38.3988 31.8098 37.8941 32.0376 37.4274C32.1516 37.2001 32.2907 36.9731 32.4554 36.7713C32.62 36.5693 32.8098 36.3928 33.0252 36.2414L33.1012 36.1909C33.1265 36.1782 33.1518 36.1531 33.1896 36.1405L33.3669 36.0521C33.4303 36.027 33.4809 36.0017 33.5443 35.9764L33.6329 35.9385L33.7214 35.9133C33.7847 35.9008 33.8481 35.8755 33.9114 35.8629L34.1014 35.825C34.1392 35.825 34.1645 35.8124 34.2025 35.8124L34.3038 35.7997L34.4938 35.7747H34.6836C34.7469 35.7747 34.8103 35.762 34.8736 35.7747C34.9369 35.7747 35.0003 35.7871 35.0634 35.7871L35.2534 35.825C35.5065 35.8882 35.7472 35.9891 35.9623 36.1405C36.1776 36.2919 36.3549 36.4811 36.5067 36.6831C36.6587 36.8848 36.7854 37.1119 36.8992 37.3516C37.0132 37.5913 37.1018 37.8312 37.1778 38.0708C37.2538 38.3232 37.317 38.5629 37.355 38.8152C37.4563 39.3198 37.5069 39.8371 37.5196 40.3417V40.4049H37.4563L35.975 40.3797L34.4938 40.367C34 40.367 33.5063 40.367 33.0125 40.3797C32.7718 40.3797 32.5187 40.3923 32.2781 40.4049C32.1516 40.4049 32.0376 40.4176 31.9109 40.43C31.7718 40.4049 31.6325 40.43 31.5185 40.4426ZM31.5185 40.43C31.6452 40.4049 31.7591 40.3797 31.8856 40.367C32.0123 40.3544 32.1263 40.3291 32.2529 40.3291C32.4934 40.3038 32.7465 40.2914 32.9998 40.2788C33.4936 40.2535 33.9874 40.2409 34.4812 40.2282C34.7343 40.2282 34.9749 40.2156 35.2281 40.2156H35.975C36.4687 40.2156 36.9625 40.2282 37.4563 40.2409L37.393 40.3038C37.393 39.7992 37.3296 39.2945 37.2538 38.7899C37.1652 38.2853 37.0385 37.7932 36.836 37.3265C36.7347 37.0993 36.6207 36.8722 36.4687 36.6578C36.3169 36.4558 36.1396 36.2667 35.937 36.1152L35.8612 36.0647L35.7725 36.0143L35.6838 35.9638C35.6585 35.9512 35.6205 35.9385 35.5952 35.9259C35.4812 35.8755 35.3547 35.8376 35.2281 35.8124C34.9749 35.7494 34.7216 35.7747 34.4685 35.7871L34.2785 35.8124L34.1898 35.825C34.1645 35.825 34.1265 35.8376 34.1014 35.8503L33.9114 35.9008C33.8481 35.9133 33.7974 35.9385 33.7341 35.9638L33.6456 35.9891L33.5569 36.027C33.4936 36.0521 33.4429 36.0773 33.3796 36.1026L33.2149 36.1909C33.1896 36.2035 33.1645 36.2288 33.1392 36.2414L33.0632 36.2919C32.6454 36.582 32.3414 36.9984 32.1136 37.44C31.8856 37.8941 31.7465 38.3861 31.6578 38.8782C31.6072 39.1307 31.5818 39.383 31.5565 39.6353C31.5438 39.7615 31.5312 39.8876 31.5312 40.0138C31.5312 40.0768 31.5312 40.14 31.5312 40.203V40.3038V40.3544C31.5312 40.4049 31.5312 40.43 31.5185 40.43Z" fill="#333333"/>
<path d="M29.2137 40.0641C29.315 40.0767 29.4037 40.0892 29.505 40.1018C29.6062 40.1144 29.6948 40.1271 29.7962 40.1397L30.3659 40.228C30.5557 40.2532 30.7457 40.2911 30.9355 40.3164C31.1255 40.3415 31.3155 40.3668 31.5053 40.392C31.7586 40.392 31.9991 40.392 32.2524 40.3794C32.4928 40.3668 32.7461 40.3541 32.9866 40.3415L33.7208 40.2911C33.9615 40.2785 34.2146 40.2659 34.4553 40.2532C34.949 40.228 35.4428 40.228 35.9366 40.228L36.3037 40.2406C36.4302 40.2406 36.5568 40.2532 36.6708 40.2532C36.924 40.2659 37.1646 40.2785 37.4051 40.3038V40.3164C37.1519 40.329 36.9113 40.329 36.6582 40.3415L35.9239 40.3541C35.4302 40.3668 34.9364 40.3794 34.4426 40.3794L33.7082 40.392H32.9613C32.7082 40.392 32.4675 40.4047 32.227 40.4173C31.9864 40.4299 31.7333 40.4552 31.4926 40.4803C31.2902 40.4803 31.1002 40.4552 30.9104 40.4299C30.7204 40.4047 30.5304 40.3668 30.3279 40.3415C29.9735 40.2659 29.5935 40.1776 29.2137 40.0641Z" fill="#333333"/>
<path d="M31.6679 38.6137C31.6679 38.6137 33.8962 34.1222 36.9222 37.5162C36.9222 37.5162 36.6182 35.775 34.7951 35.775C32.149 35.7623 31.8959 37.7053 31.6679 38.6137Z" fill="#333333"/>
<path d="M35.1019 40.2274C35.997 40.2274 36.7226 39.5045 36.7226 38.6126C36.7226 37.7206 35.997 36.9976 35.1019 36.9976C34.207 36.9976 33.4814 37.7206 33.4814 38.6126C33.4814 39.5045 34.207 40.2274 35.1019 40.2274Z" fill="url(#paint1_radial_1_74)"/>
<path d="M36.7365 38.6137C36.7365 39.0427 36.5845 39.4717 36.2934 39.7997C36.1414 39.9637 35.9643 40.1025 35.7616 40.1781C35.5589 40.2664 35.3312 40.3043 35.1158 40.3043C34.888 40.2917 34.6727 40.2413 34.4703 40.1529C34.2676 40.0646 34.0905 39.9258 33.9385 39.7744C33.6347 39.4717 33.4447 39.0427 33.432 38.6137C33.4067 38.1722 33.584 37.7305 33.9005 37.4152C34.0525 37.2512 34.2423 37.125 34.4449 37.0365C34.6474 36.9483 34.8754 36.9104 35.1032 36.8979C35.3312 36.8979 35.5589 36.9483 35.7616 37.0365C35.9643 37.125 36.1541 37.2638 36.2934 37.4277C36.5972 37.7558 36.7365 38.1973 36.7365 38.6137ZM36.7238 38.6137C36.7238 38.3993 36.6732 38.1973 36.5845 38.0081C36.4958 37.8188 36.3694 37.6549 36.2174 37.5161C35.9136 37.2512 35.5085 37.0871 35.1158 37.0997C34.7107 37.0997 34.3183 37.2512 34.0272 37.5414C33.7358 37.8188 33.5587 38.2099 33.546 38.6263C33.546 38.8283 33.5714 39.0427 33.6474 39.2318C33.7232 39.4212 33.8372 39.5979 33.9892 39.7491C34.2929 40.0394 34.7107 40.1782 35.1158 40.1655C35.5212 40.1529 35.9136 40.0016 36.23 39.724C36.382 39.5853 36.5085 39.4212 36.5972 39.2318C36.6732 39.0427 36.7238 38.8283 36.7238 38.6137Z" fill="#333333"/>
<path d="M35.1126 39.6478C35.651 39.6478 36.0874 39.2128 36.0874 38.6762C36.0874 38.1397 35.651 37.7048 35.1126 37.7048C34.5741 37.7048 34.1377 38.1397 34.1377 38.6762C34.1377 39.2128 34.5741 39.6478 35.1126 39.6478Z" fill="#333333"/>
<path d="M34.7479 38.6516C34.9508 38.6516 35.1151 38.4877 35.1151 38.2855C35.1151 38.0835 34.9508 37.9197 34.7479 37.9197C34.5453 37.9197 34.3808 38.0835 34.3808 38.2855C34.3808 38.4877 34.5453 38.6516 34.7479 38.6516Z" fill="#333333"/>
<path d="M44.2529 39.9007C44.8607 39.8375 45.4684 39.8124 46.076 39.8249C46.38 39.8249 46.6838 39.8501 46.9876 39.8628L47.8991 39.9007C48.0511 39.9007 48.2031 39.9133 48.3549 39.926C48.5069 39.9386 48.6589 39.951 48.8107 39.9637L49.2665 40.0016C49.4185 40.0142 49.5705 40.0395 49.7222 40.0521C50.33 40.1277 50.9251 40.2286 51.5327 40.3548L51.0769 40.2918C50.9251 40.2665 50.7731 40.2413 50.6211 40.2286C50.3173 40.1909 50.0136 40.153 49.7096 40.1151C49.102 40.0395 48.4942 39.9889 47.8865 39.926C47.2789 39.8754 46.6711 39.8628 46.0633 39.8628C45.4811 39.8754 44.8733 39.8754 44.2529 39.9007Z" fill="#333333"/>
<path d="M49.3437 40.0142C49.3437 40.0142 49.6224 36.0021 46.5206 36.0021C44.2542 36.0021 44.6848 39.8627 44.6848 39.8627C44.6848 39.8627 48.3688 39.7869 49.3437 40.0142Z" fill="white"/>
<path d="M49.3435 40.0013V39.9887V39.9634V39.9255V39.8499V39.6858C49.3435 39.5723 49.3309 39.4714 49.3182 39.3579C49.2929 39.1432 49.2675 38.9288 49.2295 38.7144C49.1537 38.298 49.0397 37.8816 48.8497 37.4905C48.66 37.112 48.4066 36.7588 48.0648 36.5065C47.9002 36.3803 47.7104 36.2668 47.5077 36.191C47.3053 36.1154 47.1026 36.0648 46.8875 36.0269C46.8368 36.0143 46.7862 36.0143 46.7228 36.0143C46.6722 36.0143 46.6215 36.0018 46.5582 36.0018C46.4571 36.0018 46.3431 36.0018 46.2417 36.0143C46.0264 36.0395 45.8239 36.1154 45.6466 36.2415C45.4695 36.3677 45.3175 36.5191 45.2035 36.6956C45.0897 36.8723 45.0011 37.0741 44.9377 37.2761C44.8111 37.6798 44.7477 38.1087 44.7224 38.5377C44.6971 38.9667 44.6971 39.3956 44.7477 39.8246L44.6844 39.774C45.0771 39.7614 45.4568 39.7614 45.8493 39.7614H46.4317L47.014 39.774C47.4064 39.7867 47.7864 39.7993 48.1788 39.8246C48.3686 39.8372 48.5713 39.8499 48.7611 39.8751C48.8624 39.8876 48.9511 39.9002 49.0524 39.9128C49.1031 39.9255 49.1537 39.9255 49.1917 39.9381C49.2549 39.976 49.2929 39.9887 49.3435 40.0013ZM49.3562 40.0137C49.2549 40.0013 49.1537 39.9887 49.0651 39.976C48.9637 39.9634 48.8751 39.9634 48.7737 39.9508C48.584 39.9381 48.3813 39.9255 48.1915 39.9255C47.7991 39.9128 47.4191 39.9128 47.0266 39.9002H45.8619L44.6971 39.9128H44.6339V39.8625C44.5959 39.4208 44.5959 38.9918 44.6339 38.563C44.6717 38.1339 44.7477 37.6923 44.8997 37.2887C44.9757 37.0867 45.0644 36.885 45.1908 36.7083C45.3175 36.5316 45.4695 36.3677 45.6466 36.2415C45.8239 36.1154 46.0391 36.0395 46.2544 36.0018C46.3684 35.9892 46.4695 35.9766 46.5835 35.9766C46.6975 35.9766 46.7988 35.9766 46.9128 35.9892C47.128 36.0143 47.3433 36.0522 47.5584 36.128C47.7611 36.2036 47.9635 36.3045 48.1408 36.4307C48.318 36.5568 48.47 36.7209 48.6093 36.8976C48.7486 37.0741 48.8497 37.2635 48.9511 37.4652C49.1411 37.8563 49.2549 38.2854 49.3182 38.7144C49.3435 38.9288 49.3688 39.1432 49.3815 39.3579C49.3815 39.4714 49.3815 39.5723 49.3815 39.6858C49.3815 39.7363 49.3815 39.7993 49.3815 39.8499V39.9255V39.9634V39.9887V40.0013C49.3562 40.0013 49.3562 40.0013 49.3562 40.0137Z" fill="#333333"/>
<path d="M51.3323 39.6975C51.0158 39.786 50.6865 39.8616 50.3574 39.9248C50.1927 39.9498 50.0283 39.9877 49.8636 40.0004C49.6989 40.0256 49.5345 40.0383 49.3572 40.0383C49.142 40.0257 48.9394 40.0004 48.7243 39.9877C48.5089 39.9751 48.3063 39.9625 48.0912 39.9625H47.4581H46.8252C46.4074 39.9625 45.9769 39.9498 45.5589 39.9374L44.926 39.9248C44.7107 39.9121 44.5083 39.9121 44.2929 39.8995V39.8869C44.5083 39.8742 44.7107 39.8489 44.926 39.8489C45.1412 39.8363 45.3565 39.8363 45.5589 39.8237C45.9896 39.8112 46.4074 39.8237 46.8378 39.8489C47.0529 39.8616 47.2683 39.8616 47.4707 39.8742L48.1038 39.9121C48.3189 39.9248 48.5216 39.9374 48.7369 39.9374C48.9521 39.9374 49.1674 39.9374 49.3698 39.9498C49.5345 39.9374 49.6989 39.9121 49.8636 39.8869C50.0283 39.8616 50.1927 39.8363 50.3574 39.8112L50.8512 39.7354C50.9398 39.7228 51.0158 39.7101 51.1043 39.6975C51.1549 39.7101 51.2436 39.6975 51.3323 39.6975Z" fill="#333333"/>
<path d="M49.0665 37.906C49.0665 37.906 46.4331 34.9032 44.7871 37.8049C44.7871 37.8049 44.9898 36.0007 46.5343 36.0007C48.3069 35.9881 48.8765 37.1111 49.0665 37.906Z" fill="#333333"/>
<path d="M46.953 39.9008C47.722 39.9008 48.3457 39.2794 48.3457 38.513C48.3457 37.7464 47.722 37.125 46.953 37.125C46.1838 37.125 45.5603 37.7464 45.5603 38.513C45.5603 39.2794 46.1838 39.9008 46.953 39.9008Z" fill="url(#paint2_radial_1_74)"/>
<path d="M48.3568 38.5128C48.3568 38.8786 48.2304 39.2447 47.977 39.5347C47.8504 39.6735 47.6859 39.787 47.5086 39.8628C47.3313 39.9385 47.1415 39.9764 46.9388 39.9637C46.749 39.9637 46.559 39.9132 46.3819 39.8249C46.2046 39.7493 46.0526 39.6358 45.9261 39.497C45.6602 39.232 45.5082 38.8662 45.483 38.4877C45.4704 38.2984 45.5082 38.109 45.5715 37.9325C45.6348 37.7558 45.7488 37.5917 45.8755 37.4531C46.0146 37.3143 46.1666 37.2006 46.3566 37.125C46.5337 37.0494 46.7364 37.0115 46.9262 37.0115C47.1161 37.0115 47.3188 37.0494 47.4959 37.1376C47.6733 37.2133 47.825 37.3394 47.9517 37.4782C48.2304 37.7811 48.3568 38.1469 48.3568 38.5128ZM48.3315 38.5128C48.3315 38.3363 48.2935 38.1469 48.2177 37.9955C48.1417 37.8316 48.0277 37.6928 47.901 37.5793C47.6353 37.3521 47.2935 37.2259 46.9515 37.2259C46.6097 37.2259 46.2679 37.3647 46.0273 37.5917C45.7868 37.8316 45.6222 38.1596 45.6095 38.5128C45.5968 38.6895 45.6348 38.8662 45.6981 39.0301C45.7615 39.1941 45.8628 39.3456 45.9893 39.4717C46.1159 39.5979 46.2679 39.6861 46.445 39.7493C46.6097 39.8123 46.787 39.8376 46.9642 39.8249C47.3061 39.8123 47.6479 39.6861 47.9137 39.4465C48.0404 39.3329 48.1544 39.1941 48.2304 39.0301C48.2935 38.8786 48.3315 38.7021 48.3315 38.5128Z" fill="#333333"/>
<path d="M47.0279 39.4577C47.4895 39.4577 47.8634 39.0851 47.8634 38.6251C47.8634 38.1652 47.4895 37.7924 47.0279 37.7924C46.5664 37.7924 46.1923 38.1652 46.1923 38.6251C46.1923 39.0851 46.5664 39.4577 47.0279 39.4577Z" fill="#333333"/>
<path d="M46.5954 38.4491C46.7842 38.4491 46.9372 38.2966 46.9372 38.1085C46.9372 37.9203 46.7842 37.7677 46.5954 37.7677C46.4067 37.7677 46.2537 37.9203 46.2537 38.1085C46.2537 38.2966 46.4067 38.4491 46.5954 38.4491Z" fill="#333333"/>
<path d="M46.4833 52.3269C44.4451 54.5854 40.2544 55.0017 37.216 53.3488C36.0384 52.6929 47.2051 51.5322 46.4833 52.3269Z" fill="#C1906B"/>
<path d="M38.4668 53.047C38.4668 53.047 43.2145 54.5232 45.9745 52.5297C45.9745 52.5297 40.9861 52.0882 38.4668 53.047Z" fill="#E8B992"/>
<path d="M43.2281 53.2738C43.8783 53.2738 44.4054 52.946 44.4054 52.5419C44.4054 52.1379 43.8783 51.8102 43.2281 51.8102C42.5777 51.8102 42.0505 52.1379 42.0505 52.5419C42.0505 52.946 42.5777 53.2738 43.2281 53.2738Z" fill="#F9CEAF"/>
<path d="M44.1293 45.9809C44.1293 45.9809 42.4202 47.3813 40.9769 45.9809C39.5209 44.5805 36.6469 44.0885 33.5577 46.8261C30.4686 49.564 28.5695 50.8508 27.1008 47.4696C25.6323 44.0885 24.2902 44.0758 24.5941 47.5706C24.898 51.0655 27.8479 53.778 31.1142 54.9388C32.1017 55.292 33.2413 55.2667 34.1529 55.1911C37.4446 54.9261 40.3311 53.6643 41.268 52.8065C42.4709 51.7089 42.6227 52.0116 43.6229 53.2608C44.6231 54.5097 47.1804 55.7461 49.6367 55.1153C52.0927 54.4971 56.0049 53.0588 56.0429 47.9112C56.0936 42.7637 55.6125 47.558 54.7389 48.7061C53.8653 49.8542 52.8904 51.1032 50.0798 47.2551C47.2944 43.4324 44.1293 45.9809 44.1293 45.9809Z" fill="#969696"/>
<path d="M44.1528 45.9935C43.9755 46.1323 43.7731 46.2458 43.5704 46.3469C43.3679 46.4478 43.1526 46.5234 42.9248 46.5739C42.6968 46.6243 42.4691 46.6369 42.2411 46.6243C42.0133 46.6116 41.7853 46.5487 41.5826 46.4478C41.3802 46.3593 41.1775 46.2207 41.0131 46.0693C40.9244 45.9935 40.8484 45.9178 40.7597 45.842C40.7217 45.8043 40.6711 45.7664 40.6333 45.7411L40.4939 45.6402C40.1268 45.3879 39.7217 45.1986 39.2911 45.0851C39.0759 45.0221 38.8606 44.9842 38.6455 44.9589C38.4302 44.9336 38.2024 44.9212 37.9871 44.9336C37.544 44.9463 37.1135 45.0221 36.6831 45.1482C35.8348 45.4006 35.0626 45.842 34.3662 46.3846C34.0117 46.6495 33.6953 46.9524 33.366 47.2551C33.0368 47.5579 32.695 47.8608 32.3406 48.151C31.9859 48.4411 31.6315 48.7187 31.2517 48.9836C30.8719 49.236 30.4668 49.4756 29.9984 49.6271C29.7704 49.7029 29.5173 49.7532 29.2639 49.7532C29.0108 49.7532 28.745 49.7029 28.5044 49.6018C28.2639 49.5009 28.0613 49.3495 27.8839 49.173C27.7068 48.9963 27.5548 48.8069 27.4282 48.6178C27.289 48.4158 27.175 48.214 27.0737 48.0122C26.9724 47.8103 26.8713 47.5959 26.7826 47.3939C26.6053 46.9903 26.4028 46.5992 26.1875 46.2207C26.0736 46.0314 25.9596 45.8547 25.8204 45.6908C25.6938 45.5267 25.5418 45.3753 25.3899 45.2618C25.3519 45.2365 25.3139 45.2112 25.276 45.1986C25.238 45.1861 25.2127 45.1735 25.1747 45.1735C25.124 45.1735 25.0734 45.1861 25.0227 45.2365C24.9721 45.287 24.9215 45.3627 24.8835 45.4509C24.8455 45.5394 24.8202 45.6403 24.7949 45.7411C24.7442 45.9431 24.7189 46.1575 24.7062 46.3719C24.6936 46.5866 24.6936 46.8136 24.6936 47.028C24.6936 47.2426 24.7062 47.4697 24.7316 47.6841C24.7442 47.8987 24.7822 48.1131 24.8202 48.3402C24.9848 49.198 25.314 50.0308 25.7824 50.7878C26.2508 51.5448 26.8459 52.2135 27.5042 52.8064C28.1753 53.3869 28.9222 53.8915 29.7197 54.2953C30.1124 54.497 30.5302 54.6737 30.9479 54.8252C31.1631 54.9008 31.3657 54.964 31.5808 55.0143C31.7962 55.0649 32.0113 55.1028 32.2393 55.1278C33.1255 55.2163 34.0244 55.1405 34.8979 55.027C35.7842 54.9008 36.6577 54.7116 37.506 54.4467C38.3544 54.1817 39.1899 53.8662 39.9748 53.4498C40.1648 53.3489 40.3546 53.2354 40.5446 53.1219C40.7217 53.0084 40.8991 52.8822 41.0637 52.7434C41.1017 52.7055 41.1395 52.6678 41.1902 52.6299L41.3168 52.5164C41.4055 52.4405 41.4942 52.3649 41.5826 52.2891C41.6713 52.2135 41.7726 52.1505 41.8866 52.0873C42.0006 52.0243 42.1271 51.9738 42.2917 51.9612C42.4437 51.9485 42.6082 51.9991 42.7348 52.0621C42.8615 52.1379 42.95 52.2135 43.0386 52.3017C43.216 52.4784 43.3553 52.6552 43.5071 52.819L43.7224 53.084L43.7731 53.1472L43.8237 53.2101C43.8615 53.2481 43.8869 53.286 43.9249 53.3237C44.0642 53.4751 44.2288 53.6139 44.3933 53.7527C44.7353 54.0177 45.1024 54.2447 45.4948 54.4214C45.8873 54.6106 46.2924 54.7494 46.7102 54.8631C47.5458 55.0775 48.432 55.1154 49.2677 54.9513C49.3184 54.9387 49.3689 54.9261 49.4195 54.9134C49.4702 54.9008 49.5209 54.8882 49.5715 54.8755C49.6729 54.8504 49.7868 54.8125 49.888 54.7873C50.1033 54.7243 50.3184 54.6611 50.5211 54.5981C50.9389 54.4593 51.344 54.3079 51.7491 54.1185C52.534 53.7527 53.2811 53.2733 53.8889 52.6802C54.1926 52.3776 54.4584 52.0494 54.6991 51.6836C54.9269 51.3304 55.1169 50.9392 55.2689 50.5355C55.5726 49.728 55.6993 48.8701 55.7246 47.9996C55.7373 47.5579 55.7373 47.1038 55.7246 46.6622C55.7246 46.4351 55.7246 46.2207 55.6993 46.0061C55.6993 45.9558 55.6866 45.9052 55.6866 45.8547C55.6866 45.8296 55.674 45.8043 55.674 45.7917C55.674 45.779 55.6613 45.7538 55.6613 45.7664C55.6613 45.7664 55.6613 45.7664 55.674 45.779C55.6866 45.7917 55.6866 45.8043 55.7246 45.8296C55.7624 45.8547 55.8511 45.8799 55.9018 45.8673C55.9651 45.8547 55.9904 45.8296 56.0031 45.817C56.0284 45.7917 56.0284 45.7917 56.0284 45.7917C56.0284 45.7917 56.0284 45.8043 56.0158 45.8043C56.0031 45.8296 55.9778 45.8799 55.9651 45.9305C55.8891 46.1196 55.8384 46.3469 55.7751 46.5613C55.712 46.7757 55.6486 46.9903 55.5853 47.2047C55.522 47.4191 55.446 47.6338 55.37 47.8482C55.294 48.0626 55.2055 48.2772 55.0915 48.4916C55.0409 48.5925 54.9775 48.706 54.9015 48.8069C54.8889 48.8322 54.8635 48.8575 54.8509 48.8827L54.8004 48.9457L54.6991 49.0845C54.5598 49.2612 54.3951 49.4379 54.218 49.6018C54.0406 49.7659 53.8255 49.9173 53.5849 49.9929C53.3444 50.0814 53.0658 50.0814 52.8253 50.0308C52.5846 49.9677 52.3569 49.8668 52.1542 49.7406C51.9517 49.6144 51.7744 49.463 51.5973 49.3118C51.2553 49.0089 50.9515 48.6557 50.6731 48.3149C50.3818 47.9617 50.1286 47.5959 49.8626 47.23C49.5969 46.8766 49.3057 46.536 48.9764 46.2458C48.6473 45.9558 48.2802 45.6908 47.8751 45.5141C47.47 45.3374 47.0268 45.2239 46.5837 45.2112C46.1404 45.1986 45.6973 45.2744 45.2669 45.4132C45.0517 45.4888 44.8491 45.5646 44.6466 45.6655C44.52 45.7538 44.3173 45.8673 44.1528 45.9935ZM44.1148 45.9558C44.2922 45.817 44.4946 45.7034 44.6846 45.5897C44.8871 45.4888 45.0897 45.4006 45.3049 45.3247C45.7353 45.1735 46.1911 45.0977 46.6469 45.1103C47.1026 45.1103 47.5584 45.2112 47.9762 45.3879C48.1915 45.4762 48.3942 45.5771 48.584 45.7034C48.774 45.8296 48.9638 45.9558 49.1411 46.107C49.4955 46.3972 49.7993 46.7378 50.078 47.0912C50.3564 47.4444 50.6224 47.7976 50.9262 48.1384C51.2173 48.4663 51.534 48.7945 51.8631 49.0719C52.0277 49.2107 52.2049 49.3368 52.3949 49.4504C52.572 49.5515 52.7746 49.6397 52.9646 49.6776C53.1544 49.7153 53.3571 49.7029 53.5342 49.6271C53.7115 49.5641 53.8762 49.4379 54.0153 49.2991C54.1673 49.1477 54.294 48.9836 54.4331 48.8069L54.5344 48.6683L54.5851 48.6051C54.5978 48.5799 54.6104 48.5672 54.6231 48.5422C54.6738 48.4663 54.7244 48.3655 54.7751 48.2772C54.9522 47.8985 55.0789 47.4697 55.2055 47.0407L55.3827 46.3972C55.446 46.1828 55.4966 45.9682 55.5726 45.7411C55.598 45.6782 55.6106 45.6276 55.6486 45.552C55.6613 45.5394 55.674 45.5141 55.6866 45.4888C55.6993 45.4635 55.712 45.4385 55.7624 45.4006C55.7878 45.3753 55.8258 45.35 55.9018 45.3374C55.9778 45.3123 56.0791 45.35 56.1297 45.3879C56.1804 45.4258 56.1931 45.4509 56.2182 45.4762C56.2309 45.5015 56.2435 45.5141 56.2435 45.5267C56.2689 45.5897 56.2815 45.6276 56.2815 45.6529C56.2942 45.6908 56.2942 45.7159 56.2942 45.7538C56.3069 45.817 56.3069 45.8799 56.3195 45.9305C56.3449 46.1702 56.3449 46.3972 56.3575 46.6243C56.3702 47.0786 56.3702 47.52 56.3575 47.9743C56.3449 48.8954 56.2182 49.8291 55.8891 50.6996C55.5726 51.5827 55.0409 52.3902 54.3824 53.0463C54.0533 53.3742 53.6862 53.6644 53.2938 53.9294C52.9013 54.1817 52.4962 54.4088 52.0784 54.5981C51.6604 54.7873 51.23 54.9513 50.7869 55.0901C50.5717 55.1658 50.3438 55.2289 50.1286 55.2793C50.0146 55.3045 49.9133 55.3425 49.7993 55.3677C49.7488 55.3804 49.6855 55.3928 49.6349 55.4054C49.5715 55.4181 49.5209 55.4307 49.4575 55.4433C48.5333 55.62 47.5711 55.5695 46.6722 55.3298C46.2164 55.2037 45.786 55.0522 45.3682 54.8378C44.9504 54.6358 44.558 54.3835 44.1908 54.0933C44.0135 53.942 43.8364 53.7906 43.6717 53.6139C43.6337 53.5762 43.5957 53.5257 43.5577 53.4751L43.4944 53.4121L43.4437 53.3489L43.2413 53.084C43.102 52.9075 42.9626 52.7308 42.8235 52.592C42.7475 52.5164 42.6842 52.4532 42.6082 52.4155C42.5322 52.3776 42.4691 52.3523 42.4057 52.3649C42.3424 52.3649 42.2537 52.3902 42.1651 52.4405C42.0764 52.4784 41.9879 52.5416 41.9119 52.6046C41.8233 52.6678 41.7473 52.7308 41.6586 52.8064L41.5322 52.9075C41.4942 52.9452 41.4562 52.9831 41.4055 53.021C41.2282 53.1724 41.0257 53.3112 40.8357 53.4248C40.6333 53.5509 40.4306 53.6518 40.228 53.7527C39.4051 54.1565 38.5568 54.4593 37.6833 54.7116C36.8097 54.9513 35.9235 55.1278 35.0246 55.2416C34.5688 55.2919 34.1257 55.3298 33.6699 55.3425C33.2142 55.3551 32.7584 55.3551 32.3153 55.2919C31.8595 55.2416 31.4164 55.1405 30.9859 54.964C30.5681 54.7999 30.1502 54.6232 29.7451 54.4214C28.9348 54.005 28.1753 53.513 27.4915 52.9201C26.8079 52.3397 26.1875 51.6583 25.6938 50.8887C25.2 50.1317 24.8202 49.2865 24.6176 48.3907C24.567 48.1635 24.529 47.9364 24.5037 47.7094C24.4783 47.4823 24.453 47.2551 24.4404 47.028C24.4277 46.801 24.4277 46.5739 24.4277 46.3469C24.4404 46.1196 24.453 45.8799 24.5037 45.6529C24.529 45.5394 24.5543 45.4132 24.605 45.2997C24.6556 45.1861 24.7189 45.06 24.8202 44.9463C24.8708 44.8959 24.9468 44.8454 25.0227 44.8075C25.0987 44.7698 25.2 44.7571 25.276 44.7571C25.3646 44.7571 25.4406 44.7824 25.5039 44.8075C25.5672 44.8327 25.6305 44.8706 25.6938 44.8959C25.9216 45.0347 26.0862 45.2239 26.2382 45.4006C26.3901 45.5897 26.5166 45.779 26.6433 45.9682C26.8839 46.3593 27.099 46.7631 27.289 47.1795C27.3904 47.3939 27.4662 47.5832 27.5675 47.7724C27.6688 47.9617 27.7701 48.151 27.8966 48.3276C28.1373 48.6808 28.4284 48.9836 28.7704 49.1351C28.9475 49.2107 29.1375 49.2486 29.3273 49.2486C29.5173 49.2486 29.7197 49.2107 29.9224 49.1477C30.3148 49.0215 30.6946 48.8196 31.0744 48.5799C31.4417 48.3402 31.7962 48.0752 32.1506 47.8103C32.5051 47.5327 32.847 47.2426 33.1888 46.965C33.5306 46.6748 33.8724 46.3719 34.2524 46.107C34.9993 45.5773 35.8222 45.1482 36.7084 44.9212C37.5946 44.6939 38.5442 44.6813 39.4177 44.9589C39.6331 45.0221 39.8482 45.1103 40.0508 45.2112C40.2533 45.3123 40.456 45.4258 40.6333 45.5646L40.7724 45.6655C40.8231 45.7034 40.8611 45.7411 40.8991 45.779C40.9877 45.8547 41.0637 45.9305 41.1522 46.0061C41.3168 46.1575 41.4942 46.2837 41.6966 46.3719C41.8993 46.473 42.1144 46.5234 42.3297 46.5487C42.5449 46.5739 42.7728 46.5487 42.988 46.5107C43.2033 46.4604 43.4184 46.3846 43.6211 46.2963C43.7477 46.2081 43.9375 46.0944 44.1148 45.9558Z" fill="#333333"/>
<path d="M45.4806 46.4854C45.4806 46.4854 47.4808 47.5073 48.0506 48.706C48.8228 50.3461 50.7473 51.9735 54.6468 50.2955C54.6468 50.2955 50.0637 51.0651 48.6964 48.2896C47.7848 46.4601 46.8353 46.1322 45.4806 46.4854Z" fill="#CCCCCC"/>
<path d="M25.9617 48.7059C25.9617 48.7059 30.6588 52.8945 34.9633 47.5703C36.0775 46.2078 38.369 46.0816 39.3566 46.1699C39.3566 46.1699 36.7106 47.3685 35.8117 48.6807C32.925 52.9072 28.0508 50.5984 25.9617 48.7059Z" fill="#CCCCCC"/>
<path d="M27.5537 51.3557C27.5537 51.3557 30.3264 55.494 34.8461 54.6108C39.3659 53.7277 40.7713 51.608 42.5944 51.5577C43.4299 51.5324 45.4557 53.286 46.7217 54.0432C48.127 54.8884 51.3428 55.1534 54.2926 51.6838C54.2926 51.6838 50.3553 55.1913 47.2788 53.261C44.2148 51.3306 44.0504 50.5735 42.4044 50.5861C40.7586 50.5987 38.2264 53.2357 34.2764 53.4627C30.3264 53.7024 29.0097 52.3652 27.5537 51.3557Z" fill="#7A7A7A"/>
</g>
</g>
<defs>
<linearGradient id="paint0_linear_1_74" x1="41.3518" y1="65.7681" x2="43.1488" y2="72.7936" gradientUnits="userSpaceOnUse">
<stop stop-color="#8152F6"/>
<stop offset="0.1158" stop-color="#7E56F4"/>
<stop offset="0.232" stop-color="#7662F0"/>
<stop offset="0.348" stop-color="#6976E8"/>
<stop offset="0.3973" stop-color="#6281E4"/>
<stop offset="0.482" stop-color="#6099E1"/>
<stop offset="0.5907" stop-color="#5FB0DE"/>
<stop offset="0.707" stop-color="#5EC1DD"/>
<stop offset="0.835" stop-color="#5DCBDB"/>
<stop offset="0.9973" stop-color="#5DCEDB"/>
</linearGradient>
<radialGradient id="paint1_radial_1_74" cx="0" cy="0" r="1" gradientUnits="userSpaceOnUse" gradientTransform="translate(35.1049 38.616) scale(1.62362 1.61799)">
<stop stop-color="#5B4106"/>
<stop offset="0.28" stop-color="#583F06"/>
<stop offset="0.4749" stop-color="#4F3805"/>
<stop offset="0.644" stop-color="#402D04"/>
<stop offset="0.7983" stop-color="#2A1E03"/>
<stop offset="0.9413" stop-color="#0E0A01"/>
<stop offset="1"/>
</radialGradient>
<radialGradient id="paint2_radial_1_74" cx="0" cy="0" r="1" gradientUnits="userSpaceOnUse" gradientTransform="translate(46.951 38.5174) scale(1.39467 1.38983)">
<stop stop-color="#5B4106"/>
<stop offset="0.28" stop-color="#583F06"/>
<stop offset="0.4749" stop-color="#4F3805"/>
<stop offset="0.644" stop-color="#402D04"/>
<stop offset="0.7983" stop-color="#2A1E03"/>
<stop offset="0.9413" stop-color="#0E0A01"/>
<stop offset="1"/>
</radialGradient>
<clipPath id="clip0_1_74">
<rect width="55.2885" height="62.5793" fill="white" transform="translate(6.0195 13.6853)"/>
</clipPath>
</defs>
</svg>
