<svg version="1.0" xmlns="http://www.w3.org/2000/svg"
 width="512.000000pt" height="512.000000pt" viewBox="0 0 512.000000 512.000000"
 preserveAspectRatio="xMidYMid meet">
<metadata>
Created by potrace 1.16, written by Peter Selinger 2001-2019
</metadata>
<g transform="translate(0.000000,512.000000) scale(0.100000,-0.100000)"
fill="#7c52f125" stroke="none">
<path d="M695 4996 c7 -81 7 -83 -16 -89 -13 -4 -42 -7 -65 -7 -22 0 -76 -9
-120 -20 -188 -47 -336 -163 -412 -321 -68 -141 -77 -187 -77 -409 0 -219 16
-319 80 -510 218 -647 872 -1193 1745 -1456 79 -23 107 -38 167 -85 40 -32 96
-72 126 -91 l55 -33 -2 -85 c-1 -107 19 -169 85 -256 l49 -65 0 -529 0 -528
-162 -4 c-186 -5 -232 -18 -341 -92 -80 -55 -138 -128 -210 -265 l-58 -111
1021 0 1021 0 -57 110 c-70 135 -130 211 -211 266 -109 74 -155 87 -340 92
l-163 4 0 528 0 529 49 65 c66 87 86 149 85 256 l-2 85 55 33 c30 19 86 59
126 91 60 47 88 62 167 85 873 263 1527 809 1745 1456 64 191 80 291 80 510 0
222 -9 268 -77 409 -76 158 -224 274 -412 321 -44 11 -98 20 -120 20 -23 0
-52 3 -65 7 -23 6 -23 8 -17 89 l7 84 -1871 0 -1872 0 7 -84z m55 -418 c90
-506 331 -1178 594 -1653 36 -66 66 -132 66 -147 0 -16 -12 -41 -29 -60 -45
-50 -78 -45 -205 32 -435 265 -727 606 -857 1001 -84 257 -90 529 -14 684 64
132 205 212 376 214 l56 1 13 -72z m3786 61 c231 -43 347 -230 331 -534 -26
-468 -279 -891 -735 -1229 -97 -72 -277 -183 -310 -191 -31 -8 -87 20 -101 51
-19 43 -13 66 55 189 269 492 501 1139 595 1658 l12 67 47 0 c25 0 73 -5 106
-11z"/>
</g>
</svg>