<svg version="1.0" xmlns="http://www.w3.org/2000/svg"
 width="512.000000pt" height="512.000000pt" viewBox="0 0 512.000000 512.000000"
 preserveAspectRatio="xMidYMid meet">
<metadata>
Created by potrace 1.16, written by Peter Selinger 2001-2019
</metadata>
<g transform="translate(0.000000,512.000000) scale(0.100000,-0.100000)"
fill="#7c52f125" stroke="none">
<path d="M1910 4278 c0 -351 -4 -580 -11 -608 -12 -51 -49 -96 -96 -116 -26
-11 -143 -14 -618 -14 l-585 0 2 -1502 3 -1503 26 -56 c36 -76 90 -133 157
-166 l57 -28 1715 0 1715 0 63 34 c73 40 125 98 153 171 19 49 19 101 19 2070
0 1969 0 2021 -19 2070 -28 73 -80 131 -153 171 l-63 34 -1182 3 -1183 2 0
-562z m1780 -578 l0 -160 -480 0 -480 0 0 160 0 160 480 0 480 0 0 -160z m0
-815 l0 -155 -1130 0 -1130 0 0 155 0 155 1130 0 1130 0 0 -155z m0 -650 l0
-155 -1130 0 -1130 0 0 155 0 155 1130 0 1130 0 0 -155z m-1460 -975 l0 -160
-400 0 -400 0 0 160 0 160 400 0 400 0 0 -160z"/>
<path d="M1175 4270 l-410 -410 413 0 412 0 0 410 c0 226 -1 410 -3 410 -1 0
-187 -184 -412 -410z"/>
</g>
</svg>
