<svg width="81" height="25" viewBox="0 0 81 25" fill="none" xmlns="http://www.w3.org/2000/svg">
<g clip-path="url(#clip0_100_1129)">
<path d="M0 24.8643V9.34404H15.5363V0.019043H40.3655V24.8643H0Z" fill="#333333"/>
<path d="M8.45833 19.969H8.12128L6.53234 12.8267H3.56311V21.4777H5.1039V14.3354H5.44095L6.98174 21.4777H9.59788L11.1708 14.3354H11.5078V21.4777H13.0486V12.8267H10.0794L8.45833 19.969ZM24.107 21.4777H29.5158V19.969H25.6799V17.8022H28.9862V16.3577H25.6799V14.3354H29.5158V12.8267H24.107V21.4777ZM18.5698 20.1776C16.8043 20.1776 15.9857 18.8615 15.9857 17.1442C15.9857 15.4268 16.8043 14.1107 18.5698 14.1107C20.3353 14.1107 21.1538 15.4268 21.1538 17.1442C21.1538 18.8615 20.3353 20.1776 18.5698 20.1776ZM18.5698 12.6021C15.9215 12.6021 14.3807 14.4317 14.3807 17.1121C14.3807 19.7924 15.9215 21.6863 18.5698 21.6863C21.218 21.6863 22.7588 19.7924 22.7588 17.1121C22.7588 14.4317 21.218 12.6021 18.5698 12.6021ZM30.6072 21.4777H32.2764L34.1542 18.059L36.1605 21.4777H37.8297L35.1493 16.9516L37.6692 12.8267H36L34.2345 15.9083L32.4369 12.8267H30.7677L33.1752 16.9034L30.6072 21.4777Z" fill="white"/>
<path d="M69.0803 15.2727L69.7865 15.369C69.626 16.1554 68.9679 16.5727 68.2136 16.5727C67.042 16.5727 66.4802 15.7381 66.4802 14.6468C66.4802 13.5554 67.0741 12.7368 68.2457 12.7368C68.9679 12.7368 69.4976 13.0899 69.7544 13.748L69.0803 14.0369C68.9198 13.6517 68.6469 13.3788 68.2136 13.3788C67.4593 13.3788 67.2025 13.9887 67.2025 14.6468C67.2025 15.3369 67.4914 15.9307 68.2457 15.9307C68.6951 15.9468 68.9679 15.706 69.0803 15.2727ZM44.4276 20.826H45.3264C45.6795 20.826 45.9363 20.6494 45.9363 20.2963C45.9363 19.9432 45.6795 19.7827 45.3264 19.7827H44.4276V20.826ZM43.7375 21.468V17.7604H46.4339V18.4024H44.4276V19.1407H45.4388C46.1771 19.1407 46.6265 19.4778 46.6265 20.2642C46.6265 21.0186 46.1771 21.468 45.4388 21.468H43.7375ZM47.0438 21.468V17.7604H47.75V20.826H47.8623L48.7932 17.7604H50.0932V21.468H49.3871V18.4024H49.2908L48.3759 21.468H47.0438ZM51.4414 19.6383H52.2921C52.6612 19.6383 52.902 19.3494 52.902 18.9963C52.902 18.6271 52.6773 18.3864 52.2921 18.3864H51.4414V19.6383ZM50.7513 21.468V17.7604H52.2921C53.0625 17.7604 53.5921 18.2098 53.5921 18.9963C53.5921 19.7827 53.0625 20.2482 52.2921 20.2482H51.4414V21.4519H50.7513V21.468ZM53.6082 21.468L54.7638 19.5099L53.6403 17.7604H54.4749L55.3095 19.221H55.5984V17.7604H56.3046V19.221H56.5935L57.4281 17.7604H58.2627L57.1392 19.5099L58.2948 21.468H57.4762L56.5935 19.8469H56.3046V21.468H55.5984V19.8469H55.3095L54.4267 21.468H53.6082ZM59.6269 19.879H60.7022L60.2528 18.3864H60.1084L59.6269 19.879ZM58.4392 21.468L59.675 17.7604H60.7022L61.9381 21.468H61.1998L60.8948 20.5371H59.4182L59.1133 21.468H58.4392ZM43.7214 16.5246V12.8171H45.0375L45.6795 15.8826H45.7758L46.3697 12.8171H47.6858V16.5246H46.9796V13.443H46.8833L46.3215 16.5085H45.1499L44.5239 13.443H44.4276V16.5085H43.7214V16.5246ZM49.9809 15.9468C50.7513 15.9468 51.0723 15.353 51.0723 14.6628C51.0723 13.9406 50.7031 13.3949 49.9328 13.3949C49.1624 13.3949 48.8574 13.9887 48.8574 14.6628C48.8574 15.353 49.2105 15.9468 49.9809 15.9468ZM49.9649 16.5888C48.8093 16.5888 48.1352 15.7542 48.1352 14.6628C48.1352 13.5714 48.8093 12.7529 49.9649 12.7529C51.1204 12.7529 51.7945 13.5714 51.7945 14.6628C51.7945 15.7542 51.1204 16.5888 49.9649 16.5888ZM54.7638 15.2727L55.47 15.369C55.3095 16.1554 54.6514 16.5727 53.8971 16.5727C52.7254 16.5727 52.1637 15.7381 52.1637 14.6468C52.1637 13.5554 52.7575 12.7368 53.9292 12.7368C54.6514 12.7368 55.1811 13.0899 55.4379 13.748L54.7638 14.0369C54.6033 13.6517 54.3304 13.3788 53.8971 13.3788C53.1427 13.3788 52.8859 13.9887 52.8859 14.6468C52.8859 15.3369 53.1748 15.9307 53.9292 15.9307C54.3786 15.9468 54.6514 15.706 54.7638 15.2727ZM55.9996 16.5246V12.8171H56.7058V14.2616H57.075L58.2145 12.8171H59.0651L57.6688 14.5184L59.1133 16.5085H58.2627L57.075 14.8875H56.7058V16.5085H55.9996V16.5246ZM60.943 15.9468C61.7134 15.9468 62.0344 15.353 62.0344 14.6628C62.0344 13.9406 61.6652 13.3949 60.8948 13.3949C60.1244 13.3949 59.8195 13.9887 59.8195 14.6628C59.8195 15.353 60.1565 15.9468 60.943 15.9468ZM60.9109 16.5888C59.7553 16.5888 59.0973 15.7542 59.0973 14.6628C59.0973 13.5714 59.7553 12.7529 60.9109 12.7529C62.0665 12.7529 62.7406 13.5714 62.7406 14.6628C62.7406 15.7542 62.0825 16.5888 60.9109 16.5888ZM63.8962 14.3258H64.795C65.0999 14.3258 65.3246 14.1974 65.3246 13.8924C65.3246 13.5554 65.116 13.4591 64.795 13.4591H63.8962V14.3258ZM63.8962 15.8826H64.8592C65.1962 15.8826 65.4209 15.7702 65.4209 15.4172C65.4209 15.0641 65.1802 14.9357 64.8592 14.9357H63.8962V15.8826ZM63.2221 16.5246V12.8171H64.9073C65.5172 12.8171 65.9987 13.0739 65.9987 13.7159C65.9987 14.1492 65.8382 14.4702 65.453 14.6147C65.8703 14.727 66.095 15.048 66.095 15.4814C66.095 16.1554 65.6135 16.5085 64.9715 16.5085H63.2221V16.5246ZM70.3161 16.5246V12.8171H71.0223V14.2616H71.3915L72.515 12.8171H73.3656L71.9853 14.5505L73.4138 16.5246H72.5631L71.3915 14.9036H71.0223V16.5246H70.3161ZM74.7459 14.9357H75.8213L75.3719 13.443H75.2274L74.7459 14.9357ZM73.5422 16.5246L74.7941 12.8171H75.8213L77.0571 16.5246H76.3188L76.0139 15.5937H74.5212L74.2163 16.5246H73.5422ZM79.593 14.4863V13.443H78.7744C78.4053 13.443 78.1485 13.5554 78.1485 13.9566C78.1485 14.3579 78.4053 14.4702 78.7744 14.4702H79.593V14.4863ZM77.3942 16.5246L77.5546 15.5134C77.6028 15.1925 77.7633 14.9678 78.0682 14.8073C77.683 14.6468 77.4262 14.2776 77.4262 13.8443C77.4262 13.1381 78.0682 12.801 78.6942 12.801H80.251V16.5085H79.5609V15.0962H78.7423C78.4053 15.0962 78.2929 15.2085 78.2448 15.5616L78.1003 16.5246H77.3942Z" fill="#333333"/>
</g>
<defs>
<clipPath id="clip0_100_1129">
<rect width="80.2495" height="24.8836" fill="white"/>
</clipPath>
</defs>
</svg>
