<svg width="112" height="25" viewBox="0 0 112 25" fill="none" xmlns="http://www.w3.org/2000/svg">
<path d="M0 23.7622V9.93485H13.7313V1.6416H35.6843V23.7631H0V23.7622Z" fill="#333333"/>
<path d="M7.46569 19.3924H7.16915L5.76186 13.0376H3.13977V20.7345H4.50284V14.3796H4.79939L6.16245 20.7345H8.47325L9.8658 14.3796H10.1624V20.7345H11.5254V13.0376H8.90333L7.46569 19.3924ZM21.301 20.7345H26.0856V19.3916H22.6936V17.4671H25.6113V16.1853H22.6936V14.3805H26.0856V13.0376H21.301V20.7345ZM16.4132 19.5863C14.8577 19.5863 14.1319 18.4075 14.1319 16.8865C14.1319 15.3654 14.8577 14.1867 16.4132 14.1867C17.9688 14.1867 18.6945 15.3654 18.6945 16.8865C18.6945 18.4075 17.9688 19.5863 16.4132 19.5863ZM16.4132 12.8438C14.0729 12.8438 12.7099 14.4696 12.7099 16.8559C12.7099 19.2423 14.0729 20.9283 16.4132 20.9283C18.7535 20.9283 20.1166 19.2431 20.1166 16.8559C20.1166 14.4696 18.7535 12.8438 16.4132 12.8438ZM27.049 20.7345H28.53L30.1887 17.6915L31.9663 20.7345H33.4472L31.0775 16.7066L33.2998 13.0367H31.8188L30.2633 15.7811L28.6782 13.0367H27.1972L29.3303 16.6612L27.049 20.7345Z" fill="white"/>
<path d="M39.32 1.66699H40.3059V4.1162H42.9826V1.66699H43.9685V7.45428H42.9826V5.0042H40.3059V7.45428H39.32V1.66699Z" fill="#333333"/>
<path d="M48.8242 6.03802H46.2715L45.7304 7.45428H44.7047L46.9808 1.66699H48.1713L50.404 7.45428H49.3696L48.8242 6.03802ZM48.4834 5.15002L47.5452 2.7043L46.6114 5.15002H48.4834Z" fill="#333333"/>
<path d="M55.6705 8.66535V7.45428H51.1616V1.66699H52.1475V6.57065H54.7609V1.66699H55.7425V6.57065H56.6156L56.6234 8.66535H55.6705Z" fill="#333333"/>
<path d="M62.3256 1.66699V7.45428H61.3441V2.95403L58.735 7.45428H57.5011V1.66699H58.487V6.15066L61.0839 1.66699H62.3256Z" fill="#333333"/>
<path d="M66.159 1.58522C67.7579 1.56513 68.9285 2.73516 68.912 4.55919C68.9276 6.38322 67.7579 7.55325 66.159 7.53317C64.5557 7.55325 63.3817 6.38322 63.4016 4.55919C63.3808 2.73516 64.5557 1.56513 66.159 1.58522ZM66.1989 6.64953C67.2446 6.64953 67.9305 5.85845 67.9305 4.55919C67.9305 3.25993 67.2455 2.46885 66.1989 2.46885H66.1182C65.0725 2.46885 64.3867 3.25993 64.3867 4.55919C64.3867 5.85845 65.0717 6.64953 66.1182 6.64953H66.1989Z" fill="#333333"/>
<path d="M69.9917 1.66699H70.9776V4.1162H73.6543V1.66699H74.6402V7.45428H73.6543V5.0042H70.9776V7.45428H69.9917V1.66699Z" fill="#333333"/>
<path d="M79.4959 6.03802H76.9432L76.4021 7.45428H75.3763L77.6525 1.66699H78.843L81.0757 7.45428H80.0413L79.4959 6.03802ZM79.1551 5.15002L78.2169 2.7043L77.2831 5.15002H79.1551Z" fill="#333333"/>
<path d="M81.2612 6.54211L81.6661 6.53775C82.1265 6.52116 82.3355 6.36835 82.3832 5.7423C82.4075 5.47599 82.4274 5.10489 82.4396 4.62815C82.4552 4.15228 82.4638 3.6799 82.4638 3.21538V1.66553H86.5192V7.45282H85.5333V2.5544H83.409V3.22411C83.409 3.65982 83.3968 4.18459 83.3769 4.79842C83.3569 5.41225 83.3327 5.86367 83.3049 6.15443C83.2694 6.5456 83.1289 6.86082 82.8922 7.09919C82.6555 7.33756 82.2826 7.45456 81.7736 7.45456H81.2603V6.54211H81.2612Z" fill="#333333"/>
<path d="M90.3884 7.45428H87.9233V1.66699H88.9092V3.83853H90.3797C91.6622 3.83853 92.2717 4.56064 92.2717 5.60231C92.2804 6.5427 91.6752 7.47087 90.3884 7.45428ZM90.2722 4.69772H88.9092V6.57064H90.3199C90.9408 6.57064 91.2859 6.20392 91.2859 5.62676C91.2867 5.01642 90.9494 4.69772 90.2722 4.69772Z" fill="#333333"/>
<path d="M93.2316 1.66699H94.2175V4.1162H96.8951V1.66699H97.881V7.45428H96.8951V5.0042H94.2175V7.45428H93.2316V1.66699Z" fill="#333333"/>
<path d="M101.75 7.45428H99.2855V1.66699H100.271V3.83853H101.742C103.024 3.83853 103.634 4.56064 103.634 5.60231C103.642 6.5427 103.037 7.47087 101.75 7.45428ZM101.634 4.69772H100.271V6.57064H101.682C102.303 6.57064 102.648 6.20392 102.648 5.62676C102.647 5.01642 102.311 4.69772 101.634 4.69772ZM105.297 1.66699V7.45428H104.311V1.66699H105.297Z" fill="#333333"/>
<path d="M111.527 1.66657V7.45386H110.544V2.95361L107.935 7.45386H106.701V1.66657H107.686V6.15024L110.283 1.66657H111.527ZM108.441 0.104492C108.476 0.427561 108.713 0.592587 109.078 0.592587C109.447 0.592587 109.696 0.426687 109.731 0.104492H110.532C110.52 0.835325 110.003 1.23436 109.077 1.23436C108.151 1.23436 107.65 0.834452 107.639 0.104492H108.441Z" fill="#333333"/>
<path d="M39.32 9.8278H41.8372C42.9193 9.81557 43.6928 10.5062 43.6806 11.6195C43.6928 12.7337 42.9193 13.4235 41.8372 13.4156H40.3068V15.6151H39.3209V9.8278H39.32ZM41.7123 12.5276C42.3496 12.5276 42.6982 12.1888 42.6982 11.6195C42.6982 11.0502 42.3496 10.7158 41.7123 10.7158H40.3059V12.5285H41.7123V12.5276Z" fill="#333333"/>
<path d="M47.6768 14.1987H45.1241L44.583 15.6149H43.5573L45.8334 9.82764H47.0239L49.2566 15.6149H48.2231L47.6768 14.1987ZM47.336 13.3107L46.3987 10.8649L45.4649 13.3107H47.336Z" fill="#333333"/>
<path d="M52.2552 9.74779C53.6183 9.73557 54.5556 10.5747 54.6198 11.6967H53.6339C53.5819 11.3658 53.4336 11.1073 53.1969 10.9178C52.9602 10.7284 52.6636 10.6314 52.2995 10.6314H52.2153C51.1818 10.6157 50.4959 11.4906 50.508 12.7218C50.4959 13.9529 51.1818 14.8287 52.2153 14.8121H52.2995C52.6645 14.8121 52.9645 14.7196 53.2012 14.5336C53.4379 14.3441 53.5819 14.0856 53.6339 13.7503H54.6198C54.5513 14.8924 53.6218 15.7115 52.2552 15.6957C50.5644 15.7115 49.51 14.4602 49.5256 12.7218C49.5109 10.9903 50.5644 9.72771 52.2552 9.74779Z" fill="#333333"/>
<path d="M58.8305 13.4966H56.9784C55.9162 13.4966 55.4272 13.0967 55.4237 12.2297L55.4159 9.82851H56.4018L56.4061 11.7861C56.4061 12.4 56.6021 12.6139 57.2758 12.6139H58.8314V9.82764H59.8172V15.6149H58.8314V13.4966H58.8305Z" fill="#333333"/>
<path d="M61.22 9.82764H65.5V10.7156H62.2059V12.2009H65.0075V13.0889H62.2059V14.7313H65.5806V15.6149H61.22V9.82764Z" fill="#333333"/>
<path d="M68.0753 10.7156H66.0593V9.82764H71.0771V10.7156H69.0568V15.6149H68.0753V10.7156Z" fill="#333333"/>
<path d="M71.9243 9.82764H72.9102V12.2777H75.5878V9.82764H76.5737V15.6149H75.5878V13.1648H72.9102V15.6149H71.9243V9.82764Z" fill="#333333"/>
<path d="M80.4426 15.6149H77.9783V9.82764H78.9642V11.9992H80.4348C81.7172 11.9992 82.3268 12.7222 82.3268 13.763C82.3337 14.7033 81.7285 15.6315 80.4426 15.6149ZM80.3264 12.8584H78.9642V14.7313H80.375C80.9958 14.7313 81.3409 14.3637 81.3409 13.7865C81.3401 13.1779 81.0036 12.8584 80.3264 12.8584ZM83.989 9.82764V15.6149H83.0031V9.82764H83.989Z" fill="#333333"/>
<path d="M90.219 9.8277V15.615H89.2375V11.1156L86.6284 15.615H85.3937V9.8277H86.3796V14.3114L88.9765 9.8277H90.219ZM87.1331 8.26562C87.1695 8.58869 87.4053 8.75372 87.7704 8.75372C88.1389 8.75372 88.3877 8.58869 88.4233 8.26562H89.2254C89.2132 8.99646 88.6964 9.39549 87.7704 9.39549C86.8443 9.39549 86.344 8.99558 86.3319 8.26562H87.1331Z" fill="#333333"/>
<path d="M44.8347 22.8935V24.9882H43.8765V23.778H39.7084V24.9882H38.7468V22.8935L39.1639 22.8856C39.581 22.8813 39.7813 22.6639 39.829 22.2081C39.8567 21.9618 39.8767 21.6143 39.8888 21.1751C39.9009 20.7351 39.9087 20.1544 39.9131 19.4393L39.9174 17.9907H43.9849V22.8944H44.8347V22.8935ZM43.0034 18.8779H40.8634V19.4506C40.8634 19.9588 40.8591 20.4958 40.8478 21.0651C40.8357 21.63 40.82 22.0177 40.7958 22.2317C40.7637 22.5425 40.6718 22.7599 40.5235 22.8935H43.0043V18.8779H43.0034Z" fill="#333333"/>
<path d="M45.7384 17.9897H50.0184V18.8777H46.7243V20.363H49.5259V21.251H46.7243V22.8934H50.099V23.777H45.7384V17.9897Z" fill="#333333"/>
<path d="M55.7348 17.9897V23.777H54.7533V18.8777H52.1199V23.777H51.134V17.9897H55.7348Z" fill="#333333"/>
<path d="M59.5681 17.9089C61.1671 17.8889 62.3376 19.0589 62.3212 20.8829C62.3368 22.7069 61.1671 23.8779 59.5681 23.8578C57.9649 23.8779 56.7909 22.7078 56.8108 20.8829C56.7909 19.0589 57.9649 17.8889 59.5681 17.9089ZM59.608 22.9741C60.6538 22.9741 61.3396 22.1831 61.3396 20.8838C61.3396 19.5845 60.6546 18.7935 59.608 18.7935H59.5274C58.4817 18.7935 57.7958 19.5845 57.7958 20.8838C57.7958 22.1831 58.4808 22.9741 59.5274 22.9741H59.608Z" fill="#333333"/>
<path d="M65.3812 23.858C63.9262 23.858 63.1371 23.1761 63.0366 21.9047H64.0268C64.1352 22.6268 64.5722 22.9744 65.3933 22.9744C66.1954 22.9744 66.6038 22.6792 66.6038 22.1108C66.6038 21.5826 66.2188 21.2996 65.4939 21.2996H64.7127V20.4108H65.474C66.1356 20.4108 66.5197 20.0999 66.5197 19.5795C66.5197 19.0914 66.1069 18.7806 65.4133 18.7806C64.5835 18.7806 64.1707 19.1884 64.0788 19.8781H63.0808C63.1051 19.5507 63.2013 19.2407 63.3739 18.9421C63.5464 18.6391 63.7987 18.3929 64.1395 18.1999C64.4803 18.0061 64.8973 17.9092 65.3977 17.9092C66.7087 17.9092 67.5021 18.5509 67.5021 19.556C67.5021 20.1532 67.157 20.6457 66.5041 20.8517C67.1769 21.001 67.5862 21.4411 67.5862 22.1553C67.5975 23.1673 66.7512 23.8702 65.3812 23.858Z" fill="#333333"/>
<path d="M73.5179 17.9897V23.777H72.5364V19.2768L69.9273 23.777H68.6934V17.9897H69.6793V22.4734L72.2762 17.9897H73.5179Z" fill="#333333"/>
<path d="M76.3812 18.8777H74.3652V17.9897H79.383V18.8777H77.3636V23.777H76.3812V18.8777Z" fill="#333333"/>
<path d="M82.9997 22.3608H80.447L79.9059 23.777H78.8801L81.1562 17.9897H82.3468L84.5795 23.777H83.5459L82.9997 22.3608ZM82.6589 21.4728L81.7207 19.0271L80.7869 21.4728H82.6589Z" fill="#333333"/>
<path d="M85.3381 17.9899H87.8552C88.9374 17.9777 89.7108 18.6684 89.6987 19.7816C89.7108 20.8958 88.9374 21.5856 87.8552 21.5777H86.324V23.7772H85.3381V17.9899ZM87.7304 20.6897C88.3677 20.6897 88.7163 20.3509 88.7163 19.7816C88.7163 19.2123 88.3677 18.8779 87.7304 18.8779H86.324V20.6897H87.7304Z" fill="#333333"/>
<path d="M95.4865 17.9897V23.777H94.5049V19.2768L91.8959 23.777H90.662V17.9897H91.6479V22.4734L94.2448 17.9897H95.4865Z" fill="#333333"/>
<path d="M101.717 17.9888V23.7761H100.735V19.2759L98.126 23.7761H96.8921V17.9888H97.878V22.4725L100.475 17.9888H101.717ZM98.6306 16.4268C98.667 16.7498 98.9029 16.9149 99.2679 16.9149C99.6364 16.9149 99.8853 16.749 99.9208 16.4268H100.723C100.711 17.1576 100.194 17.5566 99.2679 17.5566C98.3419 17.5566 97.8416 17.1567 97.8294 16.4268H98.6306Z" fill="#333333"/>
</svg>
