<svg width="100" height="100" viewBox="0 0 100 100" fill="none" xmlns="http://www.w3.org/2000/svg">
<rect width="100" height="100" rx="30" fill="#F4F8FF"/>
<path d="M78.4096 44.048C79.4976 45.0016 78.0704 46.704 76.9824 45.7504L52.2144 24.2592C51.6106 23.7325 50.8364 23.4423 50.0352 23.4423C49.2339 23.4423 48.4598 23.7325 47.856 24.2592L38.256 32.4896C38.0987 32.6348 37.9024 32.7308 37.6912 32.7655C37.48 32.8003 37.2632 32.7723 37.0677 32.6851C36.8722 32.5979 36.7066 32.4553 36.5913 32.275C36.4761 32.0946 36.4162 31.8844 36.4192 31.6704V28.6112C36.42 28.5395 36.4066 28.4684 36.3795 28.402C36.3525 28.3356 36.3125 28.2753 36.2618 28.2246C36.2111 28.1739 36.1508 28.1339 36.0844 28.1069C36.018 28.0798 35.9469 28.0664 35.8752 28.0672H30.9152C30.7732 28.0761 30.6392 28.1361 30.5381 28.2361C30.4369 28.3361 30.3753 28.4693 30.3648 28.6112V38.8832C30.3641 39.0571 30.3205 39.228 30.2379 39.381C30.1553 39.5339 30.0362 39.6641 29.8912 39.76L23.0176 45.7504C21.9296 46.704 20.5024 45.0016 21.5904 44.048L27.92 38.544C27.9905 38.5033 28.0474 38.4427 28.0838 38.3699C28.1202 38.2971 28.1345 38.2152 28.1248 38.1344V28.0672C28.1298 27.4747 28.3674 26.9078 28.7864 26.4888C29.2054 26.0698 29.7723 25.8322 30.3648 25.8272H36.4256C37.0187 25.8322 37.5862 26.0696 38.0063 26.4884C38.4263 26.9073 38.6653 27.4741 38.672 28.0672C38.6724 28.1694 38.7019 28.2693 38.7571 28.3553C38.8122 28.4413 38.8907 28.5097 38.9834 28.5527C39.0761 28.5957 39.1791 28.6114 39.2803 28.5979C39.3816 28.5845 39.4769 28.5425 39.5552 28.4768L46.3584 22.5632C47.3884 21.6977 48.6867 21.216 50.032 21.2C51.3599 21.2057 52.6414 21.6897 53.6416 22.5632L78.4096 44.048ZM52.2784 69.8912C50.8512 69.8912 50.8512 67.6448 52.2784 67.6448H56.2272C56.5251 67.6448 56.8108 67.7631 57.0214 67.9738C57.232 68.1844 57.3504 68.4701 57.3504 68.768C57.3504 69.0659 57.232 69.3516 57.0214 69.5622C56.8108 69.7729 56.5251 69.8912 56.2272 69.8912H52.2784ZM52.2784 72.6816C51.9898 72.6816 51.7131 72.567 51.5091 72.3629C51.305 72.1589 51.1904 71.8822 51.1904 71.5936C51.1904 71.3051 51.305 71.0283 51.5091 70.8243C51.7131 70.6202 51.9898 70.5056 52.2784 70.5056H56.2272C56.5157 70.5056 56.7925 70.6202 56.9965 70.8243C57.2006 71.0283 57.3152 71.3051 57.3152 71.5936C57.3152 71.8822 57.2006 72.1589 56.9965 72.3629C56.7925 72.567 56.5157 72.6816 56.2272 72.6816H52.2784ZM46.3584 67.9904C46.5679 67.7946 46.8452 67.6878 47.1319 67.6924C47.4186 67.697 47.6924 67.8126 47.8956 68.0149C48.0988 68.2173 48.2155 68.4906 48.2212 68.7773C48.227 69.0639 48.1213 69.3417 47.9264 69.552L47.7216 69.7568C47.6275 69.8713 47.576 70.015 47.576 70.1632C47.576 70.3115 47.6275 70.4551 47.7216 70.5696L47.9264 70.7744C48.1343 70.9823 48.2511 71.2644 48.2511 71.5584C48.2511 71.8525 48.1343 72.1345 47.9264 72.3424C47.7185 72.5503 47.4364 72.6672 47.1424 72.6672C46.8483 72.6672 46.5663 72.5503 46.3584 72.3424L46.16 72.1376C46.0455 72.0435 45.9018 71.992 45.7536 71.992C45.6053 71.992 45.4617 72.0435 45.3472 72.1376L45.1424 72.3424C44.9281 72.509 44.6601 72.5911 44.3893 72.5731C44.1185 72.5551 43.8637 72.4383 43.6734 72.2448C43.4831 72.0513 43.3704 71.7947 43.3569 71.5236C43.3434 71.2525 43.4299 70.9859 43.6 70.7744L43.8048 70.5696C43.8683 70.5226 43.9199 70.4613 43.9555 70.3908C43.9911 70.3202 44.0096 70.2422 44.0096 70.1632C44.0096 70.0842 43.9911 70.0062 43.9555 69.9357C43.9199 69.8651 43.8683 69.8038 43.8048 69.7568L43.6 69.552C43.4051 69.3417 43.2994 69.0639 43.3051 68.7773C43.3109 68.4906 43.4276 68.2173 43.6308 68.0149C43.834 67.8126 44.1077 67.697 44.3944 67.6924C44.6812 67.6878 44.9585 67.7946 45.168 67.9904L45.3728 68.1888C45.4198 68.2523 45.4811 68.304 45.5516 68.3395C45.6222 68.3751 45.7001 68.3936 45.7792 68.3936C45.8582 68.3936 45.9362 68.3751 46.0067 68.3395C46.0773 68.304 46.1386 68.2523 46.1856 68.1888L46.3584 67.9904ZM44.656 59.8944C44.656 58.4672 46.9024 58.4672 46.9024 59.8944V60.24C46.9015 60.3117 46.915 60.3828 46.942 60.4492C46.9691 60.5156 47.0091 60.5759 47.0598 60.6266C47.1105 60.6773 47.1708 60.7173 47.2372 60.7444C47.3036 60.7714 47.3747 60.7849 47.4464 60.784H47.7216C48.0101 60.784 48.2869 60.8986 48.4909 61.1027C48.695 61.3067 48.8096 61.5835 48.8096 61.872C48.8096 62.1606 48.695 62.4373 48.4909 62.6413C48.2869 62.8454 48.0101 62.96 47.7216 62.96H47.44C47.3604 62.9609 47.2819 62.9789 47.2099 63.0128C47.1378 63.0466 47.0738 63.0955 47.0223 63.1562C46.9707 63.2168 46.9328 63.2878 46.911 63.3644C46.8892 63.441 46.8841 63.5213 46.896 63.6V63.8688C46.896 64.1667 46.7776 64.4524 46.567 64.663C46.3564 64.8737 46.0707 64.992 45.7728 64.992C45.4749 64.992 45.1892 64.8737 44.9786 64.663C44.7679 64.4524 44.6496 64.1667 44.6496 63.8688V63.568C44.6603 63.4115 44.6094 63.2569 44.5078 63.1374C44.4061 63.0178 44.2618 62.9427 44.1056 62.928H43.7664C43.4778 62.928 43.2011 62.8134 42.9971 62.6093C42.793 62.4053 42.6784 62.1286 42.6784 61.84C42.6784 61.5515 42.793 61.2747 42.9971 61.0707C43.2011 60.8666 43.4778 60.752 43.7664 60.752H44.1056C44.2469 60.743 44.3801 60.6827 44.4802 60.5826C44.5803 60.4825 44.6405 60.3493 44.6496 60.208L44.656 59.8944ZM52.2784 62.9536C51.9898 62.9536 51.7131 62.839 51.5091 62.6349C51.305 62.4309 51.1904 62.1542 51.1904 61.8656C51.1904 61.5771 51.305 61.3003 51.5091 61.0963C51.7131 60.8922 51.9898 60.7776 52.2784 60.7776H56.2272C56.3701 60.7776 56.5115 60.8058 56.6435 60.8604C56.7755 60.9151 56.8955 60.9953 56.9965 61.0963C57.0975 61.1973 57.1777 61.3172 57.2324 61.4492C57.287 61.5813 57.3152 61.7227 57.3152 61.8656C57.3152 62.0085 57.287 62.15 57.2324 62.282C57.1777 62.414 57.0975 62.5339 56.9965 62.6349C56.8955 62.736 56.7755 62.8161 56.6435 62.8708C56.5115 62.9255 56.3701 62.9536 56.2272 62.9536H52.2784ZM42.0384 50.1024H57.9296C58.2364 50.1123 58.5275 50.2403 58.7422 50.4598C58.9568 50.6792 59.0784 50.9731 59.0816 51.28V55.632C59.0699 55.928 58.9428 56.2076 58.7275 56.4109C58.5121 56.6143 58.2257 56.7253 57.9296 56.72H42.0704C41.9273 56.7209 41.7854 56.6933 41.653 56.6389C41.5206 56.5845 41.4004 56.5044 41.2992 56.4032C41.198 56.302 41.1179 56.1818 41.0635 56.0494C41.0091 55.917 40.9815 55.7751 40.9824 55.632V51.28C40.9771 50.9832 41.0878 50.6961 41.291 50.4798C41.4942 50.2634 41.7739 50.1349 42.0704 50.1216L42.0384 50.1024ZM56.2656 52.3488H43.7728C43.7011 52.348 43.63 52.3614 43.5636 52.3885C43.4972 52.4155 43.4369 52.4555 43.3862 52.5062C43.3355 52.5569 43.2955 52.6172 43.2684 52.6836C43.2414 52.75 43.2279 52.8211 43.2288 52.8928V53.9808C43.2279 54.0525 43.2414 54.1236 43.2684 54.19C43.2955 54.2564 43.3355 54.3167 43.3862 54.3674C43.4369 54.4181 43.4972 54.4581 43.5636 54.4851C43.63 54.5122 43.7011 54.5257 43.7728 54.5248H56.2976C56.4384 54.5144 56.5709 54.4538 56.6707 54.3539C56.7706 54.2541 56.8312 54.1217 56.8416 53.9808V52.8928C56.8325 52.7515 56.7723 52.6183 56.6722 52.5182C56.5721 52.4181 56.4389 52.3579 56.2976 52.3488H56.2656ZM39.8624 45.3088H60.1056C62.0256 45.3088 63.5104 47.0752 63.6448 48.7776V70.2304C63.6439 70.3021 63.6574 70.3732 63.6844 70.4396C63.7115 70.506 63.7515 70.5663 63.8022 70.617C63.8529 70.6677 63.9132 70.7077 63.9796 70.7348C64.046 70.7618 64.1171 70.7753 64.1888 70.7744H67.4528C68.0421 70.7712 68.6068 70.5378 69.0264 70.1242C69.4461 69.7105 69.6875 69.1492 69.6992 68.56V48.944C69.6998 48.4594 69.5967 47.9802 69.397 47.5387C69.1972 47.0971 68.9052 46.7034 68.5408 46.384L52.144 31.8752C51.556 31.3445 50.7921 31.0508 50 31.0508C49.2079 31.0508 48.444 31.3445 47.856 31.8752L31.5232 46.3648C31.1481 46.6753 30.8487 47.0672 30.648 47.5109C30.4472 47.9545 30.3504 48.4381 30.3648 48.9248V68.56C30.3606 68.8505 30.4137 69.139 30.5212 69.4089C30.6286 69.6788 30.7883 69.9249 30.9911 70.133C31.1938 70.3411 31.4356 70.5071 31.7027 70.6216C31.9697 70.736 32.2567 70.7967 32.5472 70.8H35.8816C36.0229 70.791 36.1561 70.7307 36.2562 70.6306C36.3563 70.5305 36.4165 70.3973 36.4256 70.256V48.8096C36.429 47.8907 36.7955 47.0103 37.4453 46.3605C38.0951 45.7107 38.9754 45.3442 39.8944 45.3408L39.8624 45.3088ZM63.6128 73.4688V75.2352C63.6196 75.7004 63.5339 76.1623 63.3608 76.5941C63.1876 77.0259 62.9305 77.419 62.6042 77.7506C62.2779 78.0822 61.8891 78.3457 61.4601 78.5259C61.0312 78.706 60.5708 78.7992 60.1056 78.8H39.8944C39.4339 78.7967 38.9785 78.7023 38.5546 78.5224C38.1306 78.3425 37.7465 78.0806 37.4241 77.7517C37.1017 77.4228 36.8476 77.0334 36.6762 76.6059C36.5048 76.1784 36.4197 75.7213 36.4256 75.2608V73.4944C36.4152 73.3536 36.3546 73.2211 36.2547 73.1213C36.1549 73.0214 36.0224 72.9608 35.8816 72.9504H32.5472C31.3844 72.9357 30.2729 72.4694 29.4476 71.6501C28.6223 70.8308 28.148 69.7227 28.1248 68.56V48.944C28.1241 48.1454 28.2952 47.3561 28.6265 46.6295C28.9578 45.9029 29.4415 45.256 30.0448 44.7328L46.4288 30.2432C47.4204 29.3558 48.7044 28.8651 50.0352 28.8651C51.3659 28.8651 52.6499 29.3558 53.6416 30.2432L70.0384 44.7328C70.6308 45.2602 71.1019 45.9098 71.419 46.6368C71.7361 47.3638 71.8917 48.151 71.8752 48.944V68.56C71.876 69.1407 71.7622 69.7158 71.5401 70.2524C71.3181 70.789 70.9923 71.2764 70.5814 71.6867C70.1705 72.0971 69.6826 72.4222 69.1457 72.6434C68.6088 72.8647 68.0335 72.9777 67.4528 72.976H64.1888C64.1171 72.9752 64.046 72.9886 63.9796 73.0157C63.9132 73.0427 63.8529 73.0827 63.8022 73.1334C63.7515 73.1841 63.7115 73.2444 63.6844 73.3108C63.6574 73.3772 63.6439 73.4483 63.6448 73.52L63.6128 73.4688ZM60.1056 47.5168H39.8944C39.5599 47.5324 39.2433 47.6723 39.0066 47.909C38.7698 48.1458 38.63 48.4624 38.6144 48.7968V75.2608C38.6144 75.6003 38.7492 75.9259 38.9893 76.1659C39.2293 76.406 39.5549 76.5408 39.8944 76.5408H60.1056C60.4451 76.5408 60.7706 76.406 61.0107 76.1659C61.2507 75.9259 61.3856 75.6003 61.3856 75.2608V48.8096C61.3856 48.4701 61.2507 48.1446 61.0107 47.9045C60.7706 47.6645 60.4451 47.5296 60.1056 47.5296V47.5168Z" fill="#7B51F7"/>
</svg>
