<svg width="100" height="100" viewBox="0 0 100 100" fill="none" xmlns="http://www.w3.org/2000/svg">
<rect width="100" height="100" rx="30" fill="#F4F8FF"/>
<g clip-path="url(#clip0_1_37)">
<path d="M71.1886 33.7387C71.2474 34.0233 71.1939 34.3197 71.0392 34.5659C70.8846 34.812 70.6408 34.9888 70.3588 35.0594C70.0768 35.13 69.7785 35.0889 69.5261 34.9446C69.2737 34.8003 69.0869 34.5641 69.0046 34.2853L67.2986 27.7947C67.2522 27.6059 67.2553 27.4083 67.3076 27.221C67.3599 27.0337 67.4597 26.8632 67.5973 26.7258C67.7349 26.5884 67.9056 26.4888 68.0929 26.4368C68.2803 26.3847 68.4779 26.3819 68.6666 26.4287L75.146 28.1333C75.4258 28.2147 75.6633 28.4013 75.8086 28.654C75.9538 28.9068 75.9955 29.2059 75.925 29.4887C75.8544 29.7715 75.6771 30.016 75.4302 30.1709C75.1832 30.3257 74.8859 30.3789 74.6006 30.3193L72.6213 29.7727C72.4166 29.706 72.2799 29.906 72.4166 30.046C77.3255 35.5664 80.0261 42.7032 80.0015 50.0905C79.9769 57.4777 77.2289 64.5964 72.2833 70.084C72.0929 70.3011 71.8242 70.4337 71.536 70.4527C71.2479 70.4716 70.9641 70.3753 70.7469 70.185C70.5298 69.9947 70.3972 69.7259 70.3783 69.4377C70.3593 69.1496 70.4556 68.8658 70.646 68.6487C75.163 63.5976 77.6884 57.0758 77.7511 50.2998C77.8138 43.5239 75.4095 36.9565 70.9866 31.8227C70.92 31.686 70.646 31.8227 70.714 31.956L71.1886 33.7387ZM40.4806 41.118C40.477 40.9724 40.5026 40.8275 40.5558 40.6919C40.6091 40.5563 40.6889 40.4327 40.7906 40.3285C40.8924 40.2242 41.0139 40.1413 41.1482 40.0847C41.2824 40.0282 41.4266 39.999 41.5723 39.999C41.718 39.999 41.8622 40.0282 41.9964 40.0847C42.1306 40.1413 42.2522 40.2242 42.3539 40.3285C42.4556 40.4327 42.5355 40.5563 42.5887 40.6919C42.642 40.8275 42.6675 40.9724 42.6639 41.118V42.6893C42.6639 42.8227 42.8686 42.8947 43.0053 42.8227L48.1233 38.3813C48.6394 37.9196 49.3075 37.6644 49.9999 37.6644C50.6924 37.6644 51.3605 37.9196 51.8766 38.3813L61.9759 47.062C62.1883 47.2648 62.314 47.5419 62.3268 47.8353C62.3395 48.1286 62.2384 48.4156 62.0446 48.6362C61.8507 48.8567 61.5791 48.9938 61.2865 49.0187C60.9939 49.0437 60.703 48.9545 60.4746 48.77L50.4433 40.0247C50.3169 39.9252 50.1608 39.8711 49.9999 39.8711C49.8391 39.8711 49.683 39.9252 49.5566 40.0247L39.5253 48.77C39.2977 48.9608 39.0044 49.055 38.7083 49.0324C38.4121 49.0099 38.1365 48.8724 37.9404 48.6493C37.7443 48.4262 37.6433 48.1352 37.6589 47.8386C37.6745 47.542 37.8055 47.2633 38.0239 47.062L40.2759 45.1493C40.3411 45.103 40.3938 45.0414 40.4295 44.9699C40.4652 44.8984 40.4827 44.8192 40.4806 44.7393V41.118ZM40.4806 50.82C40.4877 50.5351 40.6058 50.2643 40.8097 50.0653C41.0137 49.8664 41.2873 49.755 41.5723 49.755C41.8572 49.755 42.1309 49.8664 42.3348 50.0653C42.5388 50.2643 42.6569 50.5351 42.6639 50.82V59.6333C42.6639 59.9753 43.0739 60.112 43.3466 60.112H56.6533C56.9259 60.112 57.3359 59.9753 57.3359 59.6333V50.82C57.343 50.5351 57.4611 50.2643 57.6651 50.0653C57.869 49.8664 58.1427 49.755 58.4276 49.755C58.7126 49.755 58.9862 49.8664 59.1902 50.0653C59.3941 50.2643 59.5122 50.5351 59.5193 50.82V59.6333C59.4985 60.3749 59.1856 61.0782 58.6487 61.5902C58.1118 62.1021 57.3943 62.3812 56.6526 62.3667H43.3466C42.6049 62.3812 41.8875 62.1021 41.3506 61.5902C40.8136 61.0782 40.5007 60.3749 40.4799 59.6333L40.4806 50.82ZM27.7199 29.9127C28.6753 28.82 30.3126 30.3227 29.3573 31.416C24.8255 36.4464 22.2894 42.9601 22.2266 49.7305C22.1639 56.5008 24.5788 63.0605 29.0166 68.174C29.0374 68.2045 29.0684 68.2264 29.1041 68.2359C29.1397 68.2453 29.1776 68.2416 29.2107 68.2254C29.2438 68.2092 29.27 68.1816 29.2844 68.1477C29.2988 68.1138 29.3006 68.0758 29.2893 68.0407L28.8113 66.2647C28.7525 65.98 28.806 65.6836 28.9607 65.4375C29.1153 65.1913 29.3591 65.0145 29.6411 64.9439C29.9231 64.8733 30.2214 64.9145 30.4738 65.0587C30.7262 65.203 30.913 65.4392 30.9953 65.718L32.7013 72.2087C32.7594 72.3984 32.7648 72.6003 32.7169 72.7929C32.669 72.9855 32.5696 73.1614 32.4294 73.3017C32.2892 73.4421 32.1134 73.5417 31.9209 73.5897C31.7284 73.6378 31.5264 73.6326 31.3366 73.5747L24.8539 71.8667C24.5686 71.7902 24.3247 71.6047 24.1748 71.3501C24.0248 71.0956 23.9809 70.7923 24.0524 70.5057C24.1239 70.219 24.3051 69.972 24.5571 69.8176C24.809 69.6633 25.1114 69.6141 25.3993 69.6807L27.3786 70.2273C27.5833 70.294 27.6513 70.094 27.5833 69.954C22.6744 64.4336 19.9738 57.2968 19.9984 49.9095C20.023 42.5223 22.771 35.4036 27.7166 29.916L27.7199 29.9127ZM61.9079 24.8567C62.1707 24.9838 62.4732 25.0013 62.7489 24.9054C63.0245 24.8096 63.2508 24.6081 63.3779 24.3453C63.5051 24.0826 63.5226 23.7801 63.4267 23.5044C63.3308 23.2288 63.1294 23.0025 62.8666 22.8753C62.1793 22.5385 61.473 22.242 60.7513 21.9873C60.4806 21.8846 60.1805 21.8922 59.9154 22.0086C59.6504 22.125 59.4416 22.3409 59.3342 22.6097C59.2267 22.8785 59.2292 23.1788 59.341 23.4458C59.4528 23.7128 59.665 23.9253 59.9319 24.0373C60.6146 24.3107 61.2966 24.5833 61.9113 24.8567H61.9079ZM34.1333 24.5153C33.8796 24.6692 33.6974 24.9176 33.6268 25.2059C33.5562 25.4941 33.603 25.7986 33.7569 26.0523C33.9109 26.3061 34.1593 26.4882 34.4475 26.5588C34.7357 26.6294 35.0402 26.5826 35.2939 26.4287C35.9079 26.0187 36.5219 25.6767 37.1359 25.3353C37.3912 25.1955 37.5817 24.9614 37.6667 24.683C37.7517 24.4046 37.7246 24.104 37.591 23.8454C37.4574 23.5868 37.228 23.3906 36.9518 23.2988C36.6756 23.207 36.3744 23.2268 36.1126 23.354C35.4299 23.764 34.8159 24.1053 34.1333 24.5153ZM42.5959 20.894C42.3132 20.973 42.0724 21.1591 41.9248 21.4129C41.7771 21.6667 41.7343 21.968 41.8055 22.2529C41.8766 22.5377 42.056 22.7836 42.3056 22.9382C42.5552 23.0928 42.8552 23.1439 43.1419 23.0807C43.8374 22.8805 44.5436 22.72 45.2573 22.6C46.7586 22.3267 46.2126 20.1407 44.8479 20.414C44.0973 20.5507 43.3466 20.6873 42.5959 20.892V20.894ZM51.7399 20.006C50.3753 19.8693 50.1026 22.124 51.6066 22.2607C52.317 22.2577 53.0259 22.3263 53.7226 22.4653C55.2919 22.602 55.4286 20.3473 54.0633 20.2107C53.3126 20.144 52.4939 20.074 51.7433 20.006H51.7399ZM38.0919 75.1433C37.8301 75.023 37.5314 75.0102 37.2602 75.1078C36.989 75.2054 36.7669 75.4055 36.6418 75.6651C36.5166 75.9247 36.4983 76.2231 36.5909 76.496C36.6834 76.769 36.8794 76.9947 37.1366 77.1247C37.8239 77.4615 38.5302 77.758 39.2519 78.0127C39.5226 78.1154 39.8228 78.1078 40.0878 77.9914C40.3529 77.875 40.5616 77.6591 40.669 77.3903C40.7765 77.1215 40.774 76.8212 40.6622 76.5542C40.5504 76.2872 40.3382 76.0747 40.0713 75.9627C39.3886 75.6893 38.7066 75.4167 38.0919 75.1433ZM65.866 75.4847C66.1111 75.3267 66.285 75.0794 66.3505 74.7952C66.4161 74.511 66.3681 74.2124 66.2168 73.9631C66.0656 73.7137 65.823 73.5333 65.5407 73.4601C65.2583 73.3869 64.9586 73.4268 64.7053 73.5713C64.0913 73.9813 63.4773 74.3233 62.8633 74.6647C62.608 74.8045 62.4175 75.0386 62.3325 75.317C62.2475 75.5954 62.2747 75.896 62.4082 76.1546C62.5418 76.4132 62.7712 76.6094 63.0474 76.7012C63.3236 76.793 63.6248 76.7732 63.8866 76.646C64.5693 76.3047 65.1833 75.8947 65.866 75.4847ZM57.4039 79.106C57.6867 79.027 57.9275 78.8408 58.0751 78.5871C58.2228 78.3333 58.2655 78.032 58.1944 77.7471C58.1233 77.4623 57.9439 77.2164 57.6943 77.0618C57.4447 76.9072 57.1446 76.8561 56.8579 76.9193C56.1625 77.1188 55.4562 77.2786 54.7426 77.398C53.2413 77.6713 53.7873 79.8573 55.1519 79.584C55.9026 79.4507 56.6533 79.3107 57.4039 79.106ZM48.2599 79.994C49.6246 80.1273 49.8973 77.876 48.3933 77.7393C47.6605 77.739 46.9294 77.6705 46.2093 77.5347C45.9103 77.4985 45.6092 77.5826 45.3722 77.7684C45.1352 77.9543 44.9818 78.2267 44.9456 78.5257C44.9095 78.8246 44.9936 79.1258 45.1794 79.3627C45.3652 79.5997 45.6376 79.7532 45.9366 79.7893C46.6873 79.856 47.4379 79.9227 48.2566 79.994H48.2599Z" fill="#7B51F7"/>
</g>
<defs>
<clipPath id="clip0_1_37">
<rect width="60" height="60" fill="white" transform="translate(20 20)"/>
</clipPath>
</defs>
</svg>
