<svg width="100" height="100" viewBox="0 0 100 100" fill="none" xmlns="http://www.w3.org/2000/svg">
<rect width="100" height="100" rx="30" fill="#F4F8FF"/>
<g clip-path="url(#clip0_1_28)">
<path d="M69.0777 48.9417C69.0934 48.4807 69.0067 48.0219 68.8238 47.5984C68.6409 47.1749 68.3663 46.7973 68.0199 46.4927L52.0835 32.3906C51.51 31.8784 50.768 31.5953 49.9991 31.5953C49.2302 31.5953 48.4881 31.8784 47.9146 32.3906L31.9814 46.4914C31.6259 46.7925 31.3409 47.1681 31.1466 47.5915C30.9523 48.0149 30.8535 48.4759 30.857 48.9417V72.5719C30.8407 73.4311 31.1654 74.2618 31.7602 74.8821C32.3549 75.5023 33.1712 75.8617 34.0304 75.8815H65.9037C66.7628 75.8617 67.5791 75.5023 68.1739 74.8821C68.7687 74.2618 69.0934 73.4311 69.077 72.5719L69.0777 48.9417ZM49.9674 44.3728C52.4319 44.3571 54.8457 45.0736 56.9025 46.4315C58.9594 47.7894 60.5667 49.7274 61.5207 51.9999C62.4747 54.2724 62.7325 56.777 62.2613 59.1962C61.79 61.6154 60.6111 63.8401 58.8739 65.5884C57.1367 67.3367 54.9195 68.5298 52.5034 69.0164C50.0873 69.5031 47.5811 69.2613 45.3025 68.3217C43.024 67.3822 41.0757 65.7873 39.7048 63.7391C38.3339 61.691 37.602 59.2818 37.6019 56.8172C37.5965 53.5287 38.895 50.3722 41.2129 48.0395C43.5307 45.7068 46.6789 44.3882 49.9674 44.3728ZM49.9674 46.5574C47.9375 46.5552 45.9526 47.1551 44.2638 48.2812C42.575 49.4073 41.2582 51.009 40.4799 52.8837C39.7016 54.7584 39.4969 56.8218 39.8915 58.8129C40.2862 60.804 41.2626 62.6333 42.6972 64.0693C44.1317 65.5054 45.96 66.4836 47.9507 66.8804C49.9414 67.2771 52.005 67.0745 53.8805 66.2981C55.756 65.5218 57.3591 64.2066 58.4869 62.5189C59.6148 60.8313 60.2167 58.847 60.2166 56.8172C60.2148 54.0985 59.1347 51.4915 57.2133 49.5682C55.2919 47.6448 52.686 46.562 49.9674 46.5574ZM54.1362 52.5811C55.0621 51.5233 56.7154 52.9121 55.7895 53.9712L50.0333 60.6569C49.8329 60.8904 49.5844 61.0779 49.3048 61.2063C49.0251 61.3348 48.7211 61.4014 48.4134 61.4014C48.1056 61.4014 47.8016 61.3348 47.5219 61.2063C47.2423 61.0779 46.9938 60.8904 46.7934 60.6569L44.2137 57.6777C44.1181 57.5735 44.0439 57.4514 43.9955 57.3185C43.9471 57.1856 43.9253 57.0444 43.9314 56.9031C43.9376 56.7618 43.9715 56.623 44.0312 56.4948C44.0909 56.3666 44.1754 56.2514 44.2796 56.1558C44.3839 56.0602 44.506 55.9861 44.6389 55.9376C44.7718 55.8892 44.9129 55.8674 45.0543 55.8736C45.1956 55.8797 45.3343 55.9136 45.4625 55.9733C45.5908 56.0331 45.706 56.1175 45.8016 56.2217L47.9837 58.7374C48.0366 58.7997 48.1025 58.8497 48.1767 58.8841C48.2508 58.9184 48.3316 58.9362 48.4134 58.9362C48.4951 58.9362 48.5759 58.9184 48.65 58.8841C48.7242 58.8497 48.7901 58.7997 48.843 58.7374L54.1362 52.5811ZM71.2598 72.5719C71.2689 74.0018 70.7098 75.3768 69.7054 76.3946C68.701 77.4124 67.3336 77.9897 65.9037 77.9995H34.031C32.6117 77.9754 31.2595 77.3915 30.2688 76.3749C29.2782 75.3582 28.7294 73.9913 28.7421 72.5719V48.9417C28.7275 48.1793 28.8798 47.4228 29.1882 46.7253C29.4967 46.0279 29.9539 45.4063 30.5279 44.9041L46.4624 30.7374C47.4256 29.8741 48.6736 29.3966 49.967 29.3966C51.2605 29.3966 52.5085 29.8741 53.4717 30.7374L69.4081 44.9029C69.991 45.4017 70.4585 46.0212 70.7782 46.7186C71.0979 47.416 71.2623 48.1746 71.2598 48.9417V72.5719ZM77.6065 44.2409C77.7169 44.3308 77.8082 44.4421 77.8748 44.568C77.9415 44.6939 77.9822 44.832 77.9945 44.9739C78.0068 45.1159 77.9905 45.2588 77.9465 45.3943C77.9025 45.5299 77.8317 45.6552 77.7384 45.7628C77.5399 45.9635 77.273 46.0818 76.9911 46.0941C76.7091 46.1065 76.4329 46.0119 76.2177 45.8294L52.0835 24.9121C51.4976 24.4003 50.746 24.1182 49.968 24.1182C49.19 24.1182 48.4383 24.4003 47.8524 24.9121L38.5938 32.988C38.4327 33.1198 38.2373 33.2029 38.0307 33.2274C37.824 33.252 37.6146 33.217 37.4272 33.1266C37.2397 33.0362 37.0819 32.8941 36.9725 32.7171C36.863 32.5401 36.8064 32.3355 36.8092 32.1274V29.2173C36.8102 29.1475 36.7972 29.0782 36.771 29.0135C36.7447 28.9488 36.7057 28.89 36.6564 28.8406C36.607 28.7913 36.5482 28.7523 36.4835 28.726C36.4188 28.6998 36.3495 28.6868 36.2797 28.6878H31.3859C31.3161 28.6868 31.2469 28.6998 31.1822 28.7261C31.1175 28.7523 31.0588 28.7913 31.0095 28.8407C30.9602 28.8901 30.9213 28.9488 30.8951 29.0135C30.8689 29.0782 30.856 29.1475 30.857 29.2173V39.2102C30.8616 39.3745 30.8282 39.5377 30.7593 39.6869C30.6905 39.8362 30.588 39.9676 30.4601 40.0707L23.7818 45.8306C23.5665 46.0132 23.2903 46.1077 23.0083 46.0954C22.7264 46.083 22.4595 45.9647 22.261 45.7641C22.1677 45.6564 22.0969 45.5311 22.0529 45.3956C22.0089 45.2601 21.9926 45.1171 22.0049 44.9752C22.0172 44.8332 22.0579 44.6952 22.1246 44.5693C22.1912 44.4433 22.2825 44.3321 22.393 44.2421L28.543 38.8804C28.6007 38.8306 28.648 38.7698 28.682 38.7015C28.7159 38.6333 28.736 38.5589 28.7409 38.4828V28.6853C28.7271 28.404 28.773 28.1231 28.8757 27.8609C28.9783 27.5986 29.1353 27.3611 29.3363 27.164C29.5334 26.9585 29.7693 26.7942 30.0303 26.6805C30.2914 26.5669 30.5724 26.5062 30.857 26.5019H36.8092C37.37 26.5174 37.9078 26.728 38.3299 27.0974C38.5259 27.2985 38.6796 27.5368 38.7817 27.7984C38.8839 28.0599 38.9326 28.3393 38.9248 28.62C38.9274 28.726 38.9604 28.8291 39.0199 28.9169C39.0793 29.0048 39.1628 29.0737 39.2602 29.1156C39.3577 29.1574 39.4652 29.1705 39.5698 29.1531C39.6745 29.1357 39.7719 29.0887 39.8506 29.0176L46.4624 23.3236C47.4177 22.4492 48.6725 21.9752 49.9674 21.9995C51.2802 21.9857 52.5518 22.4572 53.5383 23.3236L77.6065 44.2409Z" fill="#7B51F7"/>
</g>
<defs>
<clipPath id="clip0_1_28">
<rect width="56" height="56" fill="white" transform="translate(22 22)"/>
</clipPath>
</defs>
</svg>
